<svg width="499" height="445" viewBox="0 0 499 445" fill="none" xmlns="http://www.w3.org/2000/svg">
<mask id="mask0_465_955" style="mask-type:luminance" maskUnits="userSpaceOnUse" x="20" y="0" width="464" height="445">
<path d="M484 0H20V445H484V0Z" fill="white"/>
</mask>
<g mask="url(#mask0_465_955)">
<path d="M209.092 387.838H73.748L89.2832 302.593H168.475C190.907 302.593 209.092 320.816 209.092 343.296V387.838Z" fill="#020202"/>
<path d="M74.3835 387.303H208.558V343.296C208.558 321.148 190.574 303.131 168.471 303.131H89.723L74.3835 387.303ZM209.089 388.376H73.7448C73.5868 388.376 73.4373 388.306 73.3359 388.184C73.2351 388.06 73.1931 387.899 73.2216 387.744L88.757 302.496C88.8033 302.242 89.0236 302.058 89.28 302.058H168.471C191.161 302.058 209.621 320.556 209.621 343.296V387.838C209.621 388.135 209.383 388.376 209.089 388.376Z" fill="black"/>
<path d="M183.069 351.25C182.822 351.25 182.603 351.077 182.549 350.824L178.213 330.09C178.152 329.801 178.336 329.516 178.623 329.455C178.915 329.391 179.193 329.579 179.253 329.868L183.59 350.602C183.651 350.892 183.467 351.177 183.18 351.241C183.142 351.248 183.106 351.25 183.069 351.25Z" fill="black"/>
<path d="M48.4297 394.241V350.714H81.2957V377.865C81.2957 381.362 84.1257 384.196 87.6156 384.196L141.67 384.179V413.858L68.023 413.872C57.2025 413.875 48.4297 405.085 48.4297 394.241Z" fill="#DFE3E8"/>
<path d="M174.181 393.409L177.395 396.888C179.018 398.646 179.182 401.306 177.784 403.25L174.628 407.64L166.979 399.089H118.926V389.012H164.138C167.951 389.012 171.591 390.606 174.181 393.409Z" fill="#DFE3E8"/>
<path d="M172.7 387.124L174.518 389.092C176.141 390.85 176.304 393.511 174.907 395.454L171.751 399.844L164.103 391.293H118.926V384.281H126.594C129.766 384.281 135.423 381.216 142.582 381.216H159.206C164.329 381.216 169.22 383.356 172.7 387.124Z" fill="#DFE3E8"/>
<path d="M175.306 400.184L179.162 404.358C180.785 406.115 180.948 408.774 179.552 410.719L176.395 415.11L168.746 406.556H138.975V396.479H166.846C170.058 396.479 173.124 397.821 175.306 400.184Z" fill="#DFE3E8"/>
<path d="M173.897 407.521L177.919 411.876C179.41 413.49 179.559 415.935 178.277 417.719C176.554 420.112 173.064 420.3 171.098 418.101L168.914 415.662C167.872 414.496 166.382 413.829 164.82 413.829H139.821C133.285 413.829 128.684 413.454 122.387 403.742L165.287 403.752C168.556 403.752 171.676 405.117 173.897 407.521Z" fill="#DFE3E8"/>
<path d="M177.787 403.788C177.678 403.788 177.569 403.754 177.475 403.686C177.237 403.51 177.184 403.174 177.356 402.934C178.598 401.207 178.453 398.819 177.009 397.256L173.795 393.776C171.313 391.089 167.794 389.547 164.141 389.547H155.295C155.001 389.547 154.764 389.309 154.764 389.012C154.764 388.715 155.001 388.474 155.295 388.474H164.141C168.088 388.474 171.89 390.139 174.573 393.043L177.787 396.523C179.577 398.46 179.758 401.421 178.218 403.566C178.113 403.71 177.952 403.788 177.787 403.788Z" fill="black"/>
<path d="M178.321 412.964C178.212 412.964 178.103 412.932 178.008 412.863C177.77 412.689 177.718 412.354 177.891 412.112L179.119 410.403C180.361 408.674 180.216 406.286 178.772 404.723L174.916 400.55C172.842 398.302 169.899 397.015 166.845 397.015H155.211C154.918 397.015 154.68 396.777 154.68 396.479C154.68 396.182 154.918 395.941 155.211 395.941H166.845C170.194 395.941 173.419 397.353 175.694 399.817L179.55 403.99C181.34 405.931 181.52 408.891 179.98 411.034L178.751 412.743C178.647 412.889 178.485 412.964 178.321 412.964Z" fill="black"/>
<path d="M174.527 420.176C173.066 420.176 171.684 419.56 170.702 418.462L168.518 416.02C167.577 414.968 166.229 414.365 164.818 414.365H137.169C132.182 414.365 127.531 411.893 124.728 407.75C124.562 407.505 124.624 407.172 124.867 407.004C125.11 406.836 125.44 406.899 125.606 407.145C128.211 410.994 132.534 413.29 137.169 413.29H164.818C166.53 413.29 168.166 414.023 169.308 415.301L171.491 417.741C172.321 418.669 173.504 419.167 174.751 419.098C175.991 419.029 177.119 418.413 177.845 417.403C178.973 415.833 178.841 413.663 177.529 412.241L173.507 407.888C171.394 405.6 168.397 404.287 165.285 404.287H155.605C155.31 404.287 155.072 404.046 155.072 403.752C155.072 403.455 155.31 403.213 155.605 403.213H165.285C168.691 403.213 171.971 404.65 174.284 407.156L178.306 411.508C179.966 413.305 180.132 416.049 178.706 418.033C177.791 419.306 176.37 420.083 174.808 420.169C174.714 420.173 174.621 420.176 174.527 420.176Z" fill="black"/>
<path d="M68.0186 414.408C62.6459 414.408 57.5945 412.312 53.7946 408.504C49.9923 404.696 47.8984 399.63 47.8984 394.241V350.176H81.828V377.866C81.828 379.411 82.4295 380.868 83.5216 381.961C84.615 383.057 86.0682 383.658 87.6137 383.658H87.6159H125.16C127.982 383.658 130.23 383.037 132.61 382.379C135.497 381.584 138.767 380.678 143.693 380.678H159.209C164.463 380.678 169.522 382.896 173.092 386.758L174.91 388.727C176.456 390.4 176.83 392.815 175.864 394.879C175.737 395.148 175.423 395.262 175.155 395.135C174.89 395.009 174.776 394.689 174.902 394.42C175.681 392.756 175.38 390.809 174.132 389.46L172.313 387.49C168.945 383.843 164.168 381.752 159.209 381.752H143.693C138.91 381.752 135.85 382.598 132.891 383.414C130.44 384.094 128.125 384.732 125.16 384.732H87.6159H87.6137C85.7851 384.732 84.066 384.019 82.7727 382.723C81.4775 381.426 80.7645 379.701 80.7645 377.866V351.25H48.9619V394.241C48.9619 399.342 50.9443 404.136 54.5439 407.742C58.143 411.348 62.929 413.335 68.0193 413.335H68.0234H146.714C147.008 413.335 147.246 413.575 147.246 413.872C147.246 414.167 147.008 414.408 146.714 414.408H68.0234H68.0186Z" fill="black"/>
<path d="M89.7606 357.363H43.3652V349.237C43.3652 323.477 64.0528 302.593 89.5725 302.593H89.7606V357.363Z" fill="#020202"/>
<path d="M43.3641 357.902C43.0701 357.902 42.832 357.66 42.832 357.363V349.086C42.832 323.154 63.8836 302.058 89.7593 302.058C90.0531 302.058 90.2911 302.299 90.2911 302.593C90.2911 302.89 90.0531 303.131 89.7593 303.131C64.4699 303.131 43.8957 323.745 43.8957 349.086V357.363C43.8957 357.66 43.6579 357.902 43.3641 357.902Z" fill="#020202"/>
<path d="M89.7593 357.901H43.3641C43.0701 357.901 42.832 357.66 42.832 357.363C42.832 357.066 43.0701 356.828 43.3641 356.828H89.2272V342.269C89.2272 341.972 89.4652 341.732 89.7593 341.732C90.0531 341.732 90.2911 341.972 90.2911 342.269V357.363C90.2911 357.66 90.0531 357.901 89.7593 357.901Z" fill="white"/>
<path d="M146.622 275.952C146.328 275.952 146.09 275.711 146.09 275.417V258.291C146.09 251.878 140.882 246.66 134.481 246.66C128.08 246.66 122.872 251.878 122.872 258.291V275.417C122.872 275.711 122.634 275.952 122.341 275.952C122.047 275.952 121.809 275.711 121.809 275.417V258.291C121.809 251.287 127.493 245.587 134.481 245.587C141.468 245.587 147.154 251.287 147.154 258.291V275.417C147.154 275.711 146.916 275.952 146.622 275.952Z" fill="#020202"/>
<path d="M153.038 277.729C153.038 282.596 150.444 286.54 147.244 286.54C144.044 286.54 141.451 282.596 141.451 277.729C141.451 272.863 144.044 268.918 147.244 268.918C150.444 268.918 153.038 272.863 153.038 277.729Z" fill="white"/>
<path d="M147.246 269.454C144.345 269.454 141.985 273.167 141.985 277.729C141.985 282.292 144.345 286.005 147.246 286.005C150.147 286.005 152.507 282.292 152.507 277.729C152.507 273.167 150.147 269.454 147.246 269.454ZM147.246 287.078C143.757 287.078 140.92 282.884 140.92 277.729C140.92 272.575 143.757 268.38 147.246 268.38C150.733 268.38 153.57 272.575 153.57 277.729C153.57 282.884 150.733 287.078 147.246 287.078Z" fill="black"/>
<path d="M124.684 302.593L139.983 315.851V283.283H124.684V302.593Z" fill="#DFE3E8"/>
<path d="M125.216 302.346L139.45 314.686V283.821H125.216V302.346ZM139.983 316.39C139.858 316.39 139.734 316.346 139.636 316.261L124.338 303.001C124.22 302.899 124.152 302.751 124.152 302.593V283.283C124.152 282.988 124.39 282.747 124.685 282.747H139.983C140.276 282.747 140.514 282.988 140.514 283.283V315.854C140.514 316.063 140.393 316.254 140.205 316.341C140.133 316.372 140.058 316.39 139.983 316.39Z" fill="black"/>
<path d="M141.126 265.242C137.524 268.865 137.535 274.728 141.15 278.339C144.766 281.949 150.617 281.936 154.22 278.315C157.822 274.692 157.811 268.829 154.197 265.218C150.581 261.607 144.729 261.619 141.126 265.242Z" fill="black"/>
<path d="M114.275 269.614C110.673 273.237 110.683 279.1 114.299 282.71C117.914 286.321 123.766 286.311 127.369 282.686C130.971 279.063 130.96 273.2 127.344 269.59C123.729 265.982 117.878 265.992 114.275 269.614Z" fill="black"/>
<path d="M115.214 257.699C111.612 261.322 111.623 267.187 115.238 270.798C118.854 274.407 124.705 274.396 128.307 270.774C131.91 267.151 131.9 261.286 128.284 257.677C124.669 254.066 118.817 254.076 115.214 257.699Z" fill="black"/>
<path d="M125.785 251.685C122.182 255.308 122.192 261.171 125.809 264.782C129.425 268.392 135.276 268.38 138.878 264.757C142.481 261.135 142.47 255.272 138.854 251.661C135.239 248.05 129.388 248.062 125.785 251.685Z" fill="black"/>
<path d="M134.906 255.499C131.304 259.122 131.314 264.984 134.929 268.594C138.545 272.205 144.397 272.193 148 268.57C151.602 264.947 151.591 259.085 147.976 255.474C144.36 251.864 138.509 251.876 134.906 255.499Z" fill="black"/>
<path d="M124.684 289.097V283.283H139.983V296.113C138.602 296.389 135.85 296.735 132.689 295.693C127.744 294.058 125.315 290.183 124.684 289.097Z" fill="black"/>
<path d="M122.34 279.074C122.34 286.499 127.776 292.52 134.481 292.52C141.186 292.52 146.621 286.499 146.621 279.074C146.621 271.648 141.186 265.626 134.481 265.626C127.776 265.626 122.34 271.648 122.34 279.074Z" fill="#D9D9D9"/>
<path d="M134.481 266.162C128.08 266.162 122.872 271.954 122.872 279.073C122.872 286.192 128.08 291.982 134.481 291.982C140.882 291.982 146.09 286.192 146.09 279.073C146.09 271.954 140.882 266.162 134.481 266.162ZM134.481 293.056C127.493 293.056 121.809 286.784 121.809 279.073C121.809 271.362 127.493 265.089 134.481 265.089C141.468 265.089 147.154 271.362 147.154 279.073C147.154 286.784 141.468 293.056 134.481 293.056Z" fill="black"/>
<path d="M134.48 293.056C130.561 293.056 127.986 292.415 124.789 288.907C124.59 288.688 124.603 288.349 124.82 288.148C125.036 287.948 125.373 287.962 125.571 288.179C128.52 291.413 130.792 291.982 134.48 291.982C140.881 291.982 146.089 286.192 146.089 279.073C146.089 271.954 140.881 266.162 134.48 266.162C130.373 266.162 126.654 268.502 124.529 272.422C124.389 272.682 124.065 272.778 123.808 272.634C123.55 272.493 123.456 272.166 123.596 271.906C125.874 267.701 130.045 265.089 134.48 265.089C141.468 265.089 147.153 271.362 147.153 279.073C147.153 286.784 141.468 293.056 134.48 293.056Z" fill="black"/>
<path d="M134.481 265.626C127.776 265.626 122.34 271.648 122.34 279.074C122.34 279.741 122.386 280.396 122.47 281.038L133.502 271.054L146.115 275.227C144.621 269.676 139.979 265.626 134.481 265.626Z" fill="black"/>
<path d="M129.045 282.687C129.269 284.026 129.902 285.309 130.955 286.322C133.304 288.579 136.898 288.72 139.41 286.806L129.045 282.687Z" fill="white"/>
<path d="M122.677 255.966C122.636 255.966 122.594 255.961 122.55 255.949C122.266 255.881 122.09 255.588 122.16 255.301C123.537 249.582 128.602 245.587 134.48 245.587C134.773 245.587 135.011 245.827 135.011 246.124C135.011 246.419 134.773 246.66 134.48 246.66C129.095 246.66 124.454 250.317 123.193 255.554C123.134 255.8 122.917 255.966 122.677 255.966Z" fill="black"/>
<path d="M122.341 275.953C122.047 275.953 121.809 275.711 121.809 275.417V258.291C121.809 257.281 121.927 256.275 122.161 255.301C122.231 255.014 122.516 254.837 122.804 254.907C123.089 254.978 123.264 255.268 123.195 255.555C122.981 256.446 122.872 257.366 122.872 258.291V275.417C122.872 275.711 122.634 275.953 122.341 275.953Z" fill="white"/>
<path d="M127.555 278.263C127.555 283.127 124.962 287.074 121.762 287.074C118.563 287.074 115.969 283.127 115.969 278.263C115.969 273.396 118.563 269.45 121.762 269.45C124.962 269.45 127.555 273.396 127.555 278.263Z" fill="white"/>
<path d="M121.76 269.987C118.86 269.987 116.499 273.7 116.499 278.263C116.499 282.825 118.86 286.536 121.76 286.536C124.662 286.536 127.022 282.825 127.022 278.263C127.022 273.7 124.662 269.987 121.76 269.987ZM121.76 287.61C118.273 287.61 115.436 283.417 115.436 278.263C115.436 273.106 118.273 268.914 121.76 268.914C125.248 268.914 128.086 273.106 128.086 278.263C128.086 283.417 125.248 287.61 121.76 287.61Z" fill="black"/>
<path d="M120.645 278.263C120.645 280.892 119.243 283.025 117.513 283.025C115.783 283.025 114.381 280.892 114.381 278.263C114.381 275.631 115.783 273.499 117.513 273.499C119.243 273.499 120.645 275.631 120.645 278.263Z" fill="white"/>
<path d="M117.514 274.033C116.104 274.033 114.913 275.969 114.913 278.262C114.913 280.553 116.104 282.489 117.514 282.489C118.923 282.489 120.114 280.553 120.114 278.262C120.114 275.969 118.923 274.033 117.514 274.033ZM117.514 283.563C115.459 283.563 113.85 281.232 113.85 278.262C113.85 275.289 115.459 272.96 117.514 272.96C119.568 272.96 121.178 275.289 121.178 278.262C121.178 281.232 119.568 283.563 117.514 283.563Z" fill="black"/>
<path d="M279.36 411.503H144.665C137.985 411.503 132.568 406.035 132.568 399.291V317.536C132.568 310.792 137.985 305.327 144.665 305.327H279.36C286.042 305.327 291.456 310.792 291.456 317.536V399.291C291.456 406.035 286.042 411.503 279.36 411.503Z" fill="white"/>
<path d="M144.665 305.863C138.287 305.863 133.099 311.1 133.099 317.537V399.292C133.099 405.729 138.287 410.966 144.665 410.966H279.359C285.737 410.966 290.924 405.729 290.924 399.292V317.537C290.924 311.1 285.737 305.863 279.359 305.863H144.665ZM279.359 412.04H144.665C137.701 412.04 132.035 406.321 132.035 399.292V317.537C132.035 310.509 137.701 304.79 144.665 304.79H279.359C286.322 304.79 291.988 310.509 291.988 317.537V399.292C291.988 406.321 286.322 412.04 279.359 412.04Z" fill="black"/>
<path d="M190.048 411.503H233.98L238.703 439.508H185.324L190.048 411.503Z" fill="white"/>
<path d="M185.955 438.971H238.074L233.532 412.039H190.496L185.955 438.971ZM238.703 440.045H185.325C185.167 440.045 185.019 439.975 184.918 439.855C184.817 439.734 184.774 439.573 184.801 439.417L189.523 411.411C189.566 411.155 189.788 410.965 190.048 410.965H233.98C234.238 410.965 234.46 411.155 234.504 411.411L239.227 439.417C239.253 439.573 239.209 439.734 239.108 439.855C239.007 439.975 238.86 440.045 238.703 440.045Z" fill="black"/>
<path d="M245.888 444.951H178.139C176.651 444.951 175.443 443.732 175.443 442.23C175.443 440.727 176.651 439.508 178.139 439.508H245.888C247.376 439.508 248.582 440.727 248.582 442.23C248.582 443.732 247.376 444.951 245.888 444.951Z" fill="white"/>
<path d="M178.14 440.045C176.947 440.045 175.976 441.024 175.976 442.23C175.976 443.435 176.947 444.413 178.14 444.413H245.888C247.079 444.413 248.051 443.435 248.051 442.23C248.051 441.024 247.079 440.045 245.888 440.045H178.14ZM245.888 445.487H178.14C176.36 445.487 174.912 444.026 174.912 442.23C174.912 440.432 176.36 438.972 178.14 438.972H245.888C247.668 438.972 249.115 440.432 249.115 442.23C249.115 444.026 247.668 445.487 245.888 445.487Z" fill="black"/>
<path d="M442.861 188.097C442.569 188.097 442.33 187.856 442.33 187.559V168.115C442.33 160.794 436.385 154.839 429.076 154.839C421.77 154.839 415.825 160.794 415.825 168.115V187.559C415.825 187.856 415.586 188.097 415.292 188.097C415 188.097 414.762 187.856 414.762 187.559V168.115C414.762 160.202 421.184 153.765 429.076 153.765C436.97 153.765 443.393 160.202 443.393 168.115V187.559C443.393 187.856 443.155 188.097 442.861 188.097Z" fill="black"/>
<path d="M408.006 190.185C408.006 195.713 410.951 200.19 414.583 200.19C418.218 200.19 421.163 195.713 421.163 190.185C421.163 184.662 418.218 180.181 414.583 180.181C410.951 180.181 408.006 184.662 408.006 190.185Z" fill="white"/>
<path d="M414.584 180.718C411.251 180.718 408.54 184.966 408.54 190.185C408.54 195.408 411.251 199.654 414.584 199.654C417.92 199.654 420.631 195.408 420.631 190.185C420.631 184.966 417.92 180.718 414.584 180.718ZM414.584 200.727C410.664 200.727 407.477 196 407.477 190.185C407.477 184.374 410.664 179.643 414.584 179.643C418.506 179.643 421.695 184.374 421.695 190.185C421.695 196 418.506 200.727 414.584 200.727Z" fill="black"/>
<path d="M433.042 169.376L472.651 189.714C491.942 199.615 485.182 229.895 463.679 229.895H411.426V184.455L433.042 169.376Z" fill="black"/>
<path d="M425.035 229.895H442.081V184.264H425.035V229.895Z" fill="#DFE3E8"/>
<path d="M442.081 184.198C442.081 193.321 435.392 200.715 427.139 200.715C418.887 200.715 412.199 193.321 412.199 184.198C412.199 175.075 418.887 167.679 427.139 167.679C435.392 167.679 442.081 175.075 442.081 184.198Z" fill="#DFE3E8"/>
<path d="M430.384 193.589C429.31 194.58 427.931 195.249 426.375 195.408C422.902 195.763 419.774 193.49 418.912 190.186L430.384 193.589Z" fill="white"/>
<path d="M426.117 160.269C426.117 166.416 431.052 171.397 437.143 171.397C443.23 171.397 448.165 166.416 448.165 160.269C448.165 154.123 443.23 149.142 437.143 149.142C431.052 149.142 426.117 154.123 426.117 160.269Z" fill="black"/>
<path d="M426.565 178.365L411.455 185.541C411.426 185.119 411.396 184.695 411.396 184.264C411.396 175.141 418.888 167.68 427.141 167.68C435.393 167.68 442.612 175.441 442.612 184.564C442.612 185.183 442.574 185.791 442.516 186.392L426.565 178.365Z" fill="black"/>
<path d="M427.141 201.253C418.607 201.253 411.666 193.601 411.666 184.199C411.666 174.794 418.607 167.144 427.141 167.144C435.112 167.144 441.731 173.727 442.534 182.46C442.56 182.755 442.345 183.016 442.054 183.045C441.741 183.069 441.502 182.852 441.473 182.557C440.722 174.382 434.56 168.217 427.141 168.217C419.193 168.217 412.73 175.385 412.73 184.199C412.73 193.009 419.193 200.18 427.141 200.18C428.595 200.18 430.032 199.939 431.412 199.466C431.689 199.371 431.991 199.52 432.085 199.8C432.181 200.08 432.032 200.387 431.755 200.482C430.266 200.993 428.714 201.253 427.141 201.253Z" fill="black"/>
<path d="M442.862 168.651C442.57 168.651 442.331 168.413 442.331 168.116C442.331 160.794 436.386 154.839 429.077 154.839C428.784 154.839 428.547 154.597 428.547 154.303C428.547 154.006 428.784 153.765 429.077 153.765C436.972 153.765 443.395 160.202 443.395 168.116C443.395 168.413 443.156 168.651 442.862 168.651Z" fill="white"/>
<path d="M442.862 175.535C442.57 175.535 442.332 175.295 442.332 174.998V168.115C442.332 167.818 442.57 167.577 442.862 167.577C443.157 167.577 443.396 167.818 443.396 168.115V174.998C443.396 175.295 443.157 175.535 442.862 175.535Z" fill="black"/>
<path d="M442.862 188.097C442.57 188.097 442.332 187.856 442.332 187.558V174.998C442.332 174.703 442.57 174.462 442.862 174.462C443.157 174.462 443.396 174.703 443.396 174.998V187.558C443.396 187.856 443.157 188.097 442.862 188.097Z" fill="white"/>
<path d="M436.939 190.789C436.939 196.316 439.884 200.796 443.517 200.796C447.148 200.796 450.094 196.316 450.094 190.789C450.094 185.265 447.148 180.785 443.517 180.785C439.884 180.785 436.939 185.265 436.939 190.789Z" fill="white"/>
<path d="M443.519 181.324C440.185 181.324 437.474 185.57 437.474 190.789C437.474 196.012 440.185 200.258 443.519 200.258C446.852 200.258 449.565 196.012 449.565 190.789C449.565 185.57 446.852 181.324 443.519 181.324ZM443.519 201.331C439.599 201.331 436.41 196.604 436.41 190.789C436.41 184.978 439.599 180.249 443.519 180.249C447.438 180.249 450.628 184.978 450.628 190.789C450.628 196.604 447.438 201.331 443.519 201.331Z" fill="black"/>
<path d="M444.783 190.789C444.783 193.777 446.375 196.199 448.341 196.199C450.304 196.199 451.896 193.777 451.896 190.789C451.896 187.802 450.304 185.382 448.341 185.382C446.375 185.382 444.783 187.802 444.783 190.789Z" fill="white"/>
<path d="M448.342 185.918C446.701 185.918 445.317 188.151 445.317 190.789C445.317 193.431 446.701 195.661 448.342 195.661C449.98 195.661 451.367 193.431 451.367 190.789C451.367 188.151 449.98 185.918 448.342 185.918ZM448.342 196.736C446.087 196.736 444.254 194.069 444.254 190.789C444.254 187.512 446.087 184.844 448.342 184.844C450.594 184.844 452.43 187.512 452.43 190.789C452.43 194.069 450.594 196.736 448.342 196.736Z" fill="black"/>
<path d="M476.302 318.102L470.549 306.658C466.302 298.207 464.55 288.7 465.508 279.27L470.112 233.946L455.778 216.679H420.98C411.258 216.679 403.146 224.062 402.035 233.574L401.661 235.497C400.776 240.065 397.922 244.057 393.798 246.134C388.933 248.586 385.605 253.667 385.641 259.528C385.665 263.236 387.032 266.614 389.278 269.203C392.353 272.75 393.477 277.613 392.578 282.238L391.695 318.321L476.302 318.102Z" fill="white"/>
<path d="M393.11 282.297L392.239 317.783L475.435 317.569L470.076 306.902C465.77 298.339 464.01 288.766 464.98 279.217L469.56 234.12L455.529 217.218L420.98 217.216C411.577 217.216 403.658 224.276 402.563 233.635L402.184 235.603C401.253 240.396 398.207 244.513 394.034 246.614C389.152 249.075 386.14 254.023 386.174 259.525C386.195 262.958 387.44 266.269 389.676 268.85C392.761 272.405 394.041 277.43 393.11 282.297ZM391.695 318.859C391.552 318.859 391.415 318.8 391.316 318.696C391.215 318.593 391.16 318.452 391.164 318.309L392.047 282.224C392.05 282.195 392.052 282.165 392.057 282.136C392.941 277.578 391.752 272.875 388.878 269.556C386.471 266.783 385.134 263.221 385.11 259.53C385.074 253.616 388.31 248.299 393.559 245.655C397.438 243.7 400.272 239.865 401.14 235.395L401.513 233.47C402.664 223.609 411.038 216.141 420.98 216.141L455.778 216.144C455.935 216.144 456.085 216.212 456.186 216.337L470.52 233.604C470.611 233.715 470.655 233.859 470.64 234.003L466.038 279.327C465.088 288.671 466.813 298.037 471.024 306.415L476.777 317.861C476.861 318.026 476.851 318.224 476.755 318.384C476.658 318.542 476.488 318.639 476.304 318.639L391.697 318.859H391.695Z" fill="black"/>
<path d="M387.821 308.981C387.79 308.981 387.758 308.979 387.725 308.972C387.436 308.92 387.245 308.64 387.298 308.348L392.057 282.141C392.941 277.578 391.752 272.875 388.878 269.556C386.471 266.783 385.134 263.221 385.11 259.53C385.074 253.724 388.226 248.45 393.337 245.77C397.433 243.622 400.262 239.917 401.099 235.604L401.513 233.47C402.664 223.609 411.038 216.142 420.98 216.142H424.731C425.026 216.142 425.262 216.382 425.262 216.68C425.262 216.974 425.026 217.216 424.731 217.216H420.98C411.577 217.216 403.658 224.276 402.563 233.635L402.143 235.811C401.243 240.445 398.212 244.423 393.827 246.721C389.073 249.217 386.14 254.123 386.174 259.525C386.195 262.958 387.44 266.27 389.676 268.851C392.768 272.417 394.049 277.462 393.101 282.341L388.345 308.541C388.296 308.801 388.074 308.981 387.821 308.981Z" fill="black"/>
<path d="M413.207 272.514C413.103 272.514 412.998 272.483 412.905 272.42C408.642 269.449 406.171 264.565 406.3 259.353C406.465 252.679 410.834 246.909 417.168 244.99C417.45 244.905 417.746 245.066 417.83 245.351C417.916 245.636 417.756 245.935 417.474 246.018C411.581 247.802 407.517 253.173 407.363 259.379C407.245 264.229 409.541 268.773 413.511 271.536C413.752 271.704 413.812 272.038 413.646 272.281C413.542 272.432 413.376 272.514 413.207 272.514Z" fill="black"/>
<path d="M351.344 316.914C351.344 316.914 394.962 317.274 410.661 317.03C417.337 316.926 428.533 312.899 432.438 306.07C432.648 305.705 433.512 304.781 433.512 304.781L351.344 308.046V316.914Z" fill="black"/>
<path d="M340.496 283.86C337.381 283.86 335.576 279.523 328.547 279.523H311.6C306.57 279.523 301.767 281.642 298.351 285.367L296.567 287.314C295.183 288.824 294.878 291.005 295.72 292.813L295.752 292.834L293.742 295.025C292.206 296.7 292.001 299.201 293.212 301.1L292.008 302.415C290.414 304.153 290.254 306.782 291.624 308.706L292.821 310.38C291.758 311.949 291.75 314.048 292.877 315.63C294.57 317.999 297.997 318.182 299.927 316.007L302.071 313.595C303.096 312.44 304.558 311.78 306.092 311.78H323.87H333.241H356.793V283.86H340.496Z" fill="#DFE3E8"/>
<path d="M293.212 301.638C293.039 301.638 292.867 301.551 292.766 301.392C291.418 299.276 291.656 296.509 293.352 294.663L296.507 291.22C299.143 288.347 302.879 286.698 306.758 286.698H315.443C315.738 286.698 315.976 286.937 315.976 287.234C315.976 287.531 315.738 287.773 315.443 287.773H306.758C303.174 287.773 299.722 289.294 297.288 291.95L294.131 295.39C292.769 296.878 292.573 299.106 293.661 300.811C293.817 301.059 293.748 301.392 293.499 301.553C293.412 301.608 293.311 301.638 293.212 301.638Z" fill="black"/>
<path d="M292.833 310.934C292.669 310.934 292.505 310.856 292.401 310.71L291.193 309.02C289.68 306.9 289.859 303.968 291.617 302.049L295.404 297.921C297.639 295.483 300.809 294.083 304.101 294.083H315.525C315.819 294.083 316.055 294.324 316.055 294.621C316.055 294.916 315.819 295.157 315.525 295.157H304.101C301.103 295.157 298.219 296.431 296.183 298.651L292.399 302.777C290.981 304.324 290.838 306.683 292.056 308.392L293.265 310.082C293.436 310.323 293.38 310.658 293.144 310.832C293.05 310.9 292.941 310.934 292.833 310.934Z" fill="black"/>
<path d="M357.324 312.319H323.87C323.576 312.319 323.338 312.079 323.338 311.782C323.338 311.485 323.576 311.245 323.87 311.245H356.261V284.398H340.496C339.093 284.398 337.973 283.65 336.678 282.784C334.865 281.571 332.607 280.06 328.547 280.06H311.601C306.733 280.06 302.047 282.129 298.743 285.732L296.958 287.681C295.733 289.015 295.436 290.941 296.203 292.584C296.326 292.851 296.213 293.173 295.948 293.297C295.682 293.424 295.363 293.309 295.239 293.041C294.288 290.998 294.657 288.608 296.177 286.95L297.961 285.004C301.466 281.18 306.439 278.986 311.601 278.986H328.547C332.927 278.986 335.333 280.595 337.267 281.888C338.465 282.691 339.413 283.325 340.496 283.325H357.324V312.319Z" fill="black"/>
<path d="M296.56 318.067C296.468 318.067 296.376 318.062 296.285 318.06C294.746 317.975 293.347 317.206 292.447 315.942C291.043 313.977 291.21 311.262 292.84 309.485L296.789 305.178C299.063 302.7 302.286 301.278 305.633 301.278H315.139C315.433 301.278 315.669 301.516 315.669 301.813C315.669 302.111 315.433 302.351 315.139 302.351H305.633C302.582 302.351 299.642 303.647 297.568 305.908L293.619 310.215C292.332 311.618 292.201 313.763 293.308 315.316C294.02 316.313 295.125 316.921 296.34 316.987C297.558 317.053 298.718 316.565 299.531 315.65L301.675 313.237C302.799 311.971 304.408 311.245 306.092 311.245H333.241C337.788 311.245 342.03 308.974 344.587 305.168C344.751 304.925 345.081 304.859 345.324 305.025C345.568 305.193 345.63 305.526 345.467 305.772C342.713 309.87 338.142 312.32 333.241 312.32H306.092C304.71 312.32 303.387 312.914 302.466 313.953L300.324 316.365C299.355 317.456 297.997 318.065 296.56 318.067Z" fill="black"/>
<path d="M351.344 279.68H408.77L444.846 216.679H455.777C468.961 216.679 477.207 231.08 470.625 242.614L440.62 295.196C433.522 307.637 420.378 315.306 406.155 315.306H351.344V279.68Z" fill="white"/>
<path d="M351.876 314.769H406.157C420.148 314.769 433.179 307.167 440.161 294.928L470.165 242.344C473.161 237.098 473.156 230.835 470.153 225.59C467.151 220.347 461.777 217.218 455.778 217.218H445.156L409.229 279.947C409.136 280.116 408.96 280.218 408.771 280.218H351.876V314.769ZM406.157 315.842H351.345C351.051 315.842 350.812 315.601 350.812 315.307V279.68C350.812 279.383 351.051 279.145 351.345 279.145H408.463L444.387 216.412C444.483 216.246 444.659 216.144 444.847 216.144H455.778C462.16 216.144 467.879 219.475 471.075 225.053C474.271 230.633 474.276 237.297 471.087 242.882L441.082 295.464C433.912 308.034 420.527 315.842 406.157 315.842Z" fill="black"/>
<path d="M425.608 292.956C430.7 292.956 435.381 294.706 439.108 297.638C431.749 308.633 419.426 315.306 406.158 315.306H403.626C403.626 315.252 403.621 315.201 403.621 315.15C403.621 302.892 413.467 292.956 425.608 292.956Z" fill="#B9FF66"/>
<path d="M406.157 315.842H350.812V279.145H408.463L429.037 243.218C429.184 242.96 429.51 242.872 429.763 243.02C430.019 243.169 430.105 243.498 429.958 243.753L409.078 280.218H351.876V314.769H406.157C420.148 314.769 433.179 307.167 440.161 294.928L470.165 242.344C473.161 237.098 473.156 230.835 470.153 225.59C467.151 220.347 461.777 217.218 455.778 217.218H443.313C443.019 217.218 442.78 216.977 442.78 216.68C442.78 216.383 443.019 216.144 443.313 216.144H455.778C462.16 216.144 467.879 219.475 471.075 225.053C474.271 230.633 474.276 237.297 471.087 242.882L441.082 295.464C433.912 308.034 420.527 315.842 406.157 315.842Z" fill="black"/>
<path d="M395.637 314.106H260.945C254.263 314.106 248.846 308.64 248.846 301.897V220.142C248.846 213.398 254.263 207.932 260.945 207.932H395.637C402.319 207.932 407.734 213.398 407.734 220.142V301.897C407.734 308.64 402.319 314.106 395.637 314.106Z" fill="white"/>
<path d="M260.946 208.468C254.568 208.468 249.378 213.705 249.378 220.142V301.896C249.378 308.334 254.568 313.571 260.946 313.571H395.639C402.016 313.571 407.204 308.334 407.204 301.896V220.142C407.204 213.705 402.016 208.468 395.639 208.468H260.946ZM395.639 314.644H260.946C253.98 314.644 248.314 308.925 248.314 301.896V220.142C248.314 213.113 253.98 207.394 260.946 207.394H395.639C402.602 207.394 408.268 213.113 408.268 220.142V301.896C408.268 308.925 402.602 314.644 395.639 314.644Z" fill="black"/>
<path d="M306.326 314.106H350.257L354.981 342.113H301.602L306.326 314.106Z" fill="white"/>
<path d="M302.233 341.577H354.35L349.809 314.644H306.774L302.233 341.577ZM354.98 342.651H301.604C301.444 342.651 301.298 342.58 301.196 342.458C301.095 342.339 301.052 342.179 301.078 342.022L305.8 314.016C305.843 313.76 306.065 313.571 306.326 313.571H350.258C350.516 313.571 350.738 313.76 350.781 314.016L355.503 342.022C355.53 342.179 355.486 342.339 355.385 342.458C355.286 342.58 355.137 342.651 354.98 342.651Z" fill="black"/>
<path d="M362.166 347.554H294.419C292.929 347.554 291.723 346.336 291.723 344.834C291.723 343.332 292.929 342.112 294.419 342.112H362.166C363.654 342.112 364.86 343.332 364.86 344.834C364.86 346.336 363.654 347.554 362.166 347.554Z" fill="white"/>
<path d="M294.418 342.651C293.224 342.651 292.253 343.629 292.253 344.834C292.253 346.039 293.224 347.019 294.418 347.019H362.165C363.358 347.019 364.329 346.039 364.329 344.834C364.329 343.629 363.358 342.651 362.165 342.651H294.418ZM362.165 348.092H294.418C292.639 348.092 291.189 346.631 291.189 344.834C291.189 343.038 292.639 341.577 294.418 341.577H362.165C363.943 341.577 365.393 343.038 365.393 344.834C365.393 346.631 363.943 348.092 362.165 348.092Z" fill="black"/>
<path d="M290.914 314.442C290.687 314.442 290.477 314.296 290.405 314.064C288.893 309.159 284.454 305.862 279.361 305.862H249.334C249.04 305.862 248.801 305.621 248.801 305.326C248.801 305.029 249.04 304.788 249.334 304.788H279.361C284.922 304.788 289.77 308.39 291.42 313.746C291.507 314.031 291.35 314.33 291.071 314.418C291.018 314.434 290.965 314.442 290.914 314.442Z" fill="black"/>
<path d="M265.972 81.1409C265.68 81.1409 265.441 80.8998 265.441 80.6053C265.441 80.3082 265.68 80.0672 265.972 80.0672C289.008 80.0672 307.752 61.1496 307.752 37.896V29.7519H272.334C272.04 29.7519 271.804 29.511 271.804 29.2138C271.804 28.9168 272.04 28.6782 272.334 28.6782H308.282C308.576 28.6782 308.815 28.9168 308.815 29.2138V37.896C308.815 61.7413 289.597 81.1409 265.972 81.1409Z" fill="black"/>
<path d="M150.042 81.1409C123.821 81.1409 102.488 59.6085 102.488 33.1386V29.2138C102.488 28.9168 102.726 28.6782 103.02 28.6782H143.701C143.995 28.6782 144.233 28.9168 144.233 29.2138C144.233 29.511 143.995 29.7519 143.701 29.7519H103.552V33.1386C103.552 59.0144 124.407 80.0672 150.042 80.0672C150.337 80.0672 150.575 80.3082 150.575 80.6053C150.575 80.8998 150.337 81.1409 150.042 81.1409Z" fill="black"/>
<path d="M217.51 221.172H198.527V140.347H217.51V221.172Z" fill="#B9FF66"/>
<path d="M217.51 221.172H208.02V140.347H217.51V221.172Z" fill="black"/>
<path d="M199.059 220.636H216.978V140.884H199.059V220.636ZM217.511 221.71H198.527C198.233 221.71 197.996 221.469 197.996 221.172V140.347C197.996 140.05 198.233 139.81 198.527 139.81H217.511C217.805 139.81 218.041 140.05 218.041 140.347V221.172C218.041 221.469 217.805 221.71 217.511 221.71Z" fill="black"/>
<path d="M150.811 244.917H265.222C256.727 230.577 241.694 221.71 225.77 221.71H190.263C174.34 221.71 159.306 230.577 150.811 244.917ZM266.151 245.991H149.883C149.694 245.991 149.518 245.888 149.423 245.723C149.328 245.558 149.327 245.353 149.422 245.188C158.016 230.044 173.664 220.636 190.263 220.636H225.77C242.37 220.636 258.018 230.044 266.612 245.188C266.705 245.353 266.705 245.558 266.612 245.723C266.516 245.888 266.342 245.991 266.151 245.991Z" fill="black"/>
<path d="M229.685 221.359H186.352V219.623C186.352 213.865 190.977 209.195 196.682 209.195H219.355C225.059 209.195 229.685 213.865 229.685 219.623V221.359Z" fill="#B9FF66"/>
<path d="M186.885 220.821H229.154V219.623C229.154 214.169 224.759 209.734 219.357 209.734H196.683C191.28 209.734 186.885 214.169 186.885 219.623V220.821ZM229.686 221.895H186.353C186.058 221.895 185.82 221.654 185.82 221.359V219.623C185.82 213.578 190.693 208.66 196.683 208.66H219.357C225.346 208.66 230.218 213.578 230.218 219.623V221.359C230.218 221.654 229.979 221.895 229.686 221.895Z" fill="black"/>
<path d="M216.911 140.883H199.129C193.318 140.883 188.548 136.762 187.788 131.081C187.749 130.786 187.953 130.517 188.244 130.477C188.537 130.439 188.803 130.643 188.843 130.937C189.531 136.08 193.856 139.81 199.129 139.81H216.911C222.099 139.81 226.534 135.902 227.226 130.721C227.265 130.428 227.53 130.222 227.825 130.261C228.116 130.302 228.319 130.572 228.281 130.867C227.515 136.576 222.629 140.883 216.911 140.883Z" fill="black"/>
<path d="M225.772 221.172H203.922C220.436 221.172 235.75 230.38 244.303 245.453H266.153C257.6 230.38 242.286 221.172 225.772 221.172Z" fill="black"/>
<path d="M216.908 132.067H199.131C174.74 132.067 154.166 113.734 151.141 89.3016L141.869 14.4009H274.167L264.896 89.3016C261.871 113.734 241.298 132.067 216.908 132.067Z" fill="#B9FF66"/>
<path d="M252.32 14.4009L243.046 89.3016C240.106 113.05 220.583 131.032 197.094 132.021C197.77 132.047 198.449 132.067 199.131 132.067H216.907C241.297 132.067 261.871 113.734 264.896 89.3016L274.167 14.4009H252.32Z" fill="black"/>
<path d="M275.05 15.8447H140.848C135.988 15.8447 132.047 11.8689 132.047 6.96061V-0.0610352H283.851V6.96061C283.851 11.8689 279.91 15.8447 275.05 15.8447Z" fill="black"/>
<path d="M248.813 246.66C248.519 246.66 248.283 246.419 248.283 246.125V227.58C248.283 227.285 248.519 227.044 248.813 227.044C249.108 227.044 249.347 227.285 249.347 227.58V246.125C249.347 246.419 249.108 246.66 248.813 246.66Z" fill="white"/>
<path d="M397.691 395.763L372.602 396.002C371.586 396.011 371.242 394.636 372.144 394.158L397.013 380.975C397.583 380.671 397.708 379.901 397.264 379.434L377.035 358.077C376.338 357.341 377.081 356.153 378.038 356.474L404.753 365.393C405.378 365.602 406.022 365.135 406.027 364.472L406.203 339.951C406.211 338.969 407.481 338.61 407.992 339.442L419.83 358.69C420.154 359.211 420.868 359.309 421.314 358.888L437.344 343.782C438.036 343.127 439.151 343.766 438.953 344.701L432.937 373.131C432.816 373.693 433.2 374.236 433.764 374.304L463.246 377.951C464.247 378.073 464.418 379.468 463.475 379.833L435.436 390.735C434.847 390.964 434.63 391.69 434.992 392.208L449.37 412.865C449.946 413.695 449.046 414.754 448.147 414.303L426.182 403.304C425.533 402.979 424.773 403.462 424.783 404.192L425.117 432.461C425.129 433.506 423.726 433.84 423.277 432.895L411.692 408.565C411.406 407.962 410.617 407.823 410.142 408.29L391.604 426.665C390.888 427.375 389.706 426.653 389.997 425.684L398.627 397.027C398.818 396.394 398.345 395.758 397.691 395.763Z" fill="#B9FF66"/>
<path d="M45.5071 193.55L31.3961 204.118C30.825 204.547 30.0688 203.911 30.385 203.267L39.093 185.465C39.2912 185.055 39.0486 184.568 38.6066 184.488L18.4418 180.817C17.7472 180.691 17.6834 179.71 18.3567 179.493L37.1223 173.429C37.5614 173.287 37.7355 172.755 37.4682 172.379L27.5684 158.431C27.1724 157.873 27.7453 157.141 28.3744 157.399L42.9274 163.367C43.3229 163.527 43.7669 163.286 43.8479 162.862L46.7663 147.649C46.8913 146.99 47.7825 146.887 48.0518 147.499L56.2381 166.086C56.3992 166.454 56.8378 166.602 57.1852 166.407L75.3679 156.209C75.9845 155.863 76.6504 156.58 76.2652 157.179L64.8321 175.009C64.5922 175.383 64.7651 175.883 65.1815 176.026L81.7466 181.734C82.4117 181.964 82.3341 182.938 81.6409 183.057L64.716 185.967C64.2166 186.055 63.9829 186.644 64.2862 187.052L76.0035 202.908C76.4362 203.494 75.7773 204.266 75.1379 203.918L58.6564 194.97C58.2476 194.748 57.7444 194.997 57.6659 195.459L54.6602 213.566C54.5444 214.266 53.5802 214.348 53.3504 213.678L46.5523 193.876C46.4021 193.438 45.8753 193.275 45.5071 193.55Z" fill="#B9FF66"/>
<path d="M263.179 386.97C262.885 386.97 262.646 386.728 262.646 386.434C262.646 384.267 263.557 383.137 264.361 382.141C265.152 381.163 265.837 380.316 265.837 378.531C265.837 376.747 265.152 375.899 264.361 374.918C263.557 373.925 262.646 372.794 262.646 370.628C262.646 368.463 263.557 367.336 264.361 366.34C265.152 365.361 265.837 364.515 265.837 362.732C265.837 360.948 265.152 360.1 264.361 359.121C263.557 358.126 262.646 356.998 262.646 354.831C262.646 352.667 263.557 351.54 264.361 350.544C265.152 349.565 265.837 348.718 265.837 346.936C265.837 346.639 266.076 346.397 266.371 346.397C266.662 346.397 266.901 346.639 266.901 346.936C266.901 349.1 265.989 350.227 265.185 351.224C264.395 352.202 263.71 353.049 263.71 354.831C263.71 356.616 264.395 357.464 265.185 358.442C265.989 359.438 266.901 360.566 266.901 362.732C266.901 364.897 265.989 366.024 265.185 367.02C264.395 367.999 263.71 368.846 263.71 370.628C263.71 372.412 264.395 373.26 265.185 374.241C265.989 375.236 266.901 376.364 266.901 378.531C266.901 380.698 265.989 381.825 265.185 382.821C264.395 383.802 263.71 384.649 263.71 386.434C263.71 386.728 263.471 386.97 263.179 386.97Z" fill="#020202"/>
<path d="M304.29 159.194L289.235 167.185L292.109 150.262L279.93 138.278L296.762 135.809L304.29 120.415L311.815 135.809L328.649 138.278L316.468 150.262L319.343 167.185L304.29 159.194Z" fill="#020202"/>
</g>
</svg>
