<?xml version="1.0" encoding="UTF-8"?>
<!DOCTYPE svg PUBLIC "-//W3C//DTD SVG 1.1//EN" "http://www.w3.org/Graphics/SVG/1.1/DTD/svg11.dtd">
<!-- Creator: CorelDRAW -->
<svg xmlns="http://www.w3.org/2000/svg" xml:space="preserve" width="883px" height="884px" version="1.1" style="shape-rendering:geometricPrecision; text-rendering:geometricPrecision; image-rendering:optimizeQuality; fill-rule:evenodd; clip-rule:evenodd"
viewBox="0 0 201.33 201.63"
 xmlns:xlink="http://www.w3.org/1999/xlink"
 xmlns:xodm="http://www.corel.com/coreldraw/odm/2003">
 <defs>
  <style type="text/css">
   <![CDATA[
    .str1 {stroke:#16161C;stroke-width:0.71;stroke-miterlimit:22.9256}
    .str2 {stroke:black;stroke-width:0.54;stroke-miterlimit:22.9256}
    .str0 {stroke:#16161C;stroke-width:0.54;stroke-miterlimit:22.9256}
    .str3 {stroke:#16161C;stroke-width:0.54;stroke-miterlimit:22.9256}
    .fil2 {fill:none}
    .fil1 {fill:#16161C}
    .fil4 {fill:#16161C}
    .fil0 {fill:white}
    .fil3 {fill:#16161C;fill-rule:nonzero}
   ]]>
  </style>
 </defs>
 <g id="Слой_x0020_1">
  <metadata id="CorelCorpID_0Corel-Layer"/>
  <g id="_3161311942656">
   <rect class="fil0 str0" x="36.29" y="31.63" width="135.12" height="135.92" rx="5.87" ry="5.87"/>
   <path class="fil1" d="M171.4 37.51l0 20.29 -135.11 0 0 -20.29c0,-3.24 2.64,-5.88 5.87,-5.88l123.37 0c3.23,0 5.87,2.64 5.87,5.88z"/>
   <g>
    <line class="fil2 str1" x1="165.97" y1="140.44" x2="191.64" y2= "140.44" />
    <line class="fil2 str1" x1="178.81" y1="127.61" x2="178.81" y2= "153.27" />
    <path class="fil2 str1" d="M178.81 153.27c0,0 4.27,-5.67 4.27,-12.83 0,-7.16 -4.27,-12.83 -4.27,-12.83"/>
    <path class="fil2 str1" d="M178.81 153.27c7.08,0 12.83,-5.74 12.83,-12.83 0,-7.09 -5.75,-12.83 -12.83,-12.83 -7.09,0 -12.84,5.74 -12.84,12.83 0,7.09 5.75,12.83 12.84,12.83z"/>
    <path class="fil2 str1" d="M178.81 153.27c0,0 8.55,-2.86 8.55,-12.83 0,-9.97 -8.55,-12.83 -8.55,-12.83"/>
    <path class="fil2 str1" d="M178.81 153.27c0,0 -4.28,-5.67 -4.28,-12.83 0,-7.16 4.28,-12.83 4.28,-12.83"/>
    <path class="fil2 str1" d="M178.81 153.27c0,0 -8.56,-2.86 -8.56,-12.83 0,-9.97 8.56,-12.83 8.56,-12.83"/>
    <path class="fil2 str1" d="M167.33 146.19c1.37,-0.59 5.04,-1.84 11.48,-1.84 6.43,0 10.1,1.25 11.47,1.84"/>
    <path class="fil2 str1" d="M170.36 150.1c1.33,-0.62 3.97,-1.47 8.45,-1.47 4.44,0 7.07,0.83 8.41,1.46"/>
    <path class="fil2 str1" d="M167.33 134.7c1.37,0.59 5.04,1.83 11.48,1.83 6.43,0 10.1,-1.24 11.47,-1.83"/>
    <path class="fil2 str1" d="M170.36 130.78c1.33,0.62 3.97,1.48 8.45,1.48 4.44,0 7.07,-0.84 8.41,-1.46"/>
    <line class="fil2 str1" x1="165.97" y1="140.44" x2="191.64" y2= "140.44" />
    <line class="fil2 str1" x1="178.81" y1="127.61" x2="178.81" y2= "153.27" />
    <path class="fil2 str1" d="M178.81 153.27c0,0 4.27,-5.67 4.27,-12.83 0,-7.16 -4.27,-12.83 -4.27,-12.83"/>
    <path class="fil2 str1" d="M178.81 153.27c7.08,0 12.83,-5.74 12.83,-12.83 0,-7.09 -5.75,-12.83 -12.83,-12.83 -7.09,0 -12.84,5.74 -12.84,12.83 0,7.09 5.75,12.83 12.84,12.83z"/>
    <path class="fil2 str1" d="M178.81 153.27c0,0 8.55,-2.86 8.55,-12.83 0,-9.97 -8.55,-12.83 -8.55,-12.83"/>
    <path class="fil2 str1" d="M178.81 153.27c0,0 -4.28,-5.67 -4.28,-12.83 0,-7.16 4.28,-12.83 4.28,-12.83"/>
    <path class="fil2 str1" d="M178.81 153.27c0,0 -8.56,-2.86 -8.56,-12.83 0,-9.97 8.56,-12.83 8.56,-12.83"/>
    <path class="fil2 str1" d="M167.33 146.19c1.37,-0.59 5.04,-1.84 11.48,-1.84 6.43,0 10.1,1.25 11.47,1.84"/>
    <path class="fil2 str1" d="M170.36 150.1c1.33,-0.62 3.97,-1.47 8.45,-1.47 4.44,0 7.07,0.83 8.41,1.46"/>
    <path class="fil2 str1" d="M167.33 134.7c1.37,0.59 5.04,1.83 11.48,1.83 6.43,0 10.1,-1.24 11.47,-1.83"/>
    <path class="fil2 str1" d="M170.36 130.78c1.33,0.62 3.97,1.48 8.45,1.48 4.44,0 7.07,-0.84 8.41,-1.46"/>
   </g>
   <g>
    <path class="fil2 str1" d="M104.04 140.51c15.67,0 28.37,-12.7 28.37,-28.37 0,-15.67 -12.7,-28.37 -28.37,-28.37 -15.67,0 -28.37,12.7 -28.37,28.37 0,15.67 12.7,28.37 28.37,28.37z"/>
    <path class="fil2 str1" d="M122.99 118.74c-2.74,7.84 -10.2,13.47 -18.95,13.47 -8.75,0 -16.21,-5.63 -18.95,-13.47"/>
    <path class="fil2 str1" d="M121.12 118.39c0,0 1.59,0.84 3.42,0.69"/>
    <path class="fil2 str1" d="M86.78 118.39c0,0 -1.58,0.84 -3.41,0.69"/>
    <path class="fil3" d="M111.13 113.8c2.51,0 4.55,-4.29 4.55,-9.59 0,-5.29 -2.04,-9.59 -4.55,-9.59 -2.52,0 -4.56,4.3 -4.56,9.59 0,5.3 2.04,9.59 4.56,9.59z"/>
    <path class="fil3" d="M96.95 113.8c2.51,0 4.55,-4.29 4.55,-9.59 0,-5.29 -2.04,-9.59 -4.55,-9.59 -2.51,0 -4.55,4.3 -4.55,9.59 0,5.3 2.04,9.59 4.55,9.59z"/>
   </g>
   <g>
    <polygon class="fil3" points="142.53,141.53 143.65,144.46 146.58,145.58 143.65,146.72 142.53,149.64 141.4,146.72 138.48,145.58 141.4,144.46 "/>
    <polygon class="fil3" points="28.02,193.52 29.14,196.45 32.07,197.57 29.14,198.7 28.02,201.63 26.89,198.7 23.97,197.57 26.9,196.45 "/>
    <polygon class="fil3" points="4.05,47.54 5.18,50.47 8.11,51.59 5.18,52.72 4.05,55.64 2.92,52.72 0,51.59 2.93,50.47 "/>
    <polygon class="fil3" points="52.02,0 53.14,2.93 56.07,4.05 53.14,5.18 52.02,8.11 50.89,5.18 47.97,4.05 50.9,2.93 "/>
    <polygon class="fil3" points="197.28,20.34 198.4,23.26 201.33,24.39 198.4,25.52 197.28,28.44 196.15,25.52 193.23,24.39 196.15,23.26 "/>
   </g>
   <g>
    <circle class="fil0" cx="51.35" cy="44.51" r="3.99"/>
    <circle class="fil0" cx="65.15" cy="44.51" r="3.99"/>
    <circle class="fil0" cx="79.08" cy="44.51" r="3.99"/>
   </g>
   <g>
    <path class="fil0 str0" d="M6.53 84.04l34.9 0c0.91,0 1.65,0.74 1.65,1.65l0 28.53c0,0.91 -0.74,1.65 -1.65,1.65l-13.19 0 -4.19 3.58 -4.18 -3.58 -13.34 0c-0.9,0 -1.65,-0.74 -1.65,-1.65l0 -28.53c0,-0.91 0.75,-1.65 1.65,-1.65z"/>
    <path class="fil3" d="M23.98 95.06c1.27,-2.24 2.54,-3.36 5.07,-3.36 2.8,0 5.07,2.01 5.07,4.48 0,4.48 -5.07,8.96 -10.14,13.44 -5.07,-4.48 -10.14,-8.96 -10.14,-13.44 0,-2.47 2.27,-4.48 5.07,-4.48 2.54,0 3.81,1.12 5.07,3.36z"/>
   </g>
   <g>
    <path class="fil0 str0" d="M160.56 63.08l34.9 0c0.9,0 1.65,0.74 1.65,1.65l0 28.53c0,0.91 -0.75,1.65 -1.65,1.65l-13.19 0 -4.19 3.59 -4.19 -3.59 -13.33 0c-0.91,0 -1.65,-0.74 -1.65,-1.65l0 -28.53c0,-0.91 0.74,-1.65 1.65,-1.65z"/>
    <path class="fil3" d="M178.01 74.1c1.26,-2.24 2.53,-3.36 5.07,-3.36 2.79,0 5.07,2.01 5.07,4.48 0,4.48 -5.07,8.96 -10.14,13.44 -5.07,-4.48 -10.14,-8.96 -10.14,-13.44 0,-2.47 2.27,-4.48 5.07,-4.48 2.53,0 3.8,1.12 5.07,3.36z"/>
   </g>
   <path class="fil0 str0" d="M110.82 7.91l34.89 0c0.91,0 1.66,0.74 1.66,1.65l0 28.53c0,0.91 -0.75,1.65 -1.66,1.65l-13.19 0 -4.18 3.59 -4.19 -3.59 -13.33 0c-0.91,0 -1.65,-0.74 -1.65,-1.65l0 -28.53c0,-0.91 0.74,-1.65 1.65,-1.65z"/>
   <path class="fil3" d="M128.27 18.93c1.26,-2.24 2.53,-3.36 5.07,-3.36 2.79,0 5.06,2.01 5.06,4.48 0,4.48 -5.06,8.96 -10.13,13.44 -5.07,-4.48 -10.14,-8.96 -10.14,-13.44 0,-2.47 2.27,-4.48 5.07,-4.48 2.53,0 3.8,1.12 5.07,3.36z"/>
   <path class="fil0 str2" d="M85.58 174.17l46.02 0 4.12 -3.32 4.12 3.32 45.31 0c1.48,0 2.69,1.21 2.69,2.69l0 18.27c0,1.48 -1.21,2.7 -2.69,2.7l-99.57 0c-1.48,0 -2.69,-1.22 -2.69,-2.7l0 -18.27c0,-1.48 1.21,-2.69 2.69,-2.69z"/>
   <g>
    <polygon class="fil4" points="98.02,179.42 100.21,183.67 104.93,184.43 101.56,187.82 102.29,192.54 98.02,190.38 93.75,192.54 94.49,187.82 91.11,184.43 95.84,183.67 "/>
    <polygon class="fil4" points="116.73,179.42 118.92,183.67 123.64,184.43 120.27,187.82 121,192.54 116.73,190.38 112.46,192.54 113.2,187.82 109.82,184.43 114.55,183.67 "/>
    <polygon class="fil4" points="135.65,179.42 137.83,183.67 142.56,184.43 139.18,187.82 139.92,192.54 135.65,190.38 131.38,192.54 132.12,187.82 128.74,184.43 133.47,183.67 "/>
    <polygon class="fil4" points="154.57,179.42 156.75,183.67 161.48,184.43 158.1,187.82 158.84,192.54 154.57,190.38 150.3,192.54 151.03,187.82 147.66,184.43 152.38,183.67 "/>
    <polygon class="fil4" points="173.36,179.42 175.54,183.67 180.27,184.43 176.89,187.82 177.63,192.54 173.36,190.38 169.09,192.54 169.83,187.82 166.45,184.43 171.18,183.67 "/>
   </g>
   <path class="fil2 str3" d="M147.37 23.83c25.91,-3.49 46.98,6.74 35.21,39.25"/>
   <path class="fil2 str3" d="M11.64 115.87c-9.66,22.11 -15.64,45.17 13.25,49.9"/>
   <polygon class="fil4" points="37.81,152.96 40.08,157.41 44.28,154.68 43.99,159.65 49.01,159.37 46.25,163.53 50.74,165.77 46.25,168.01 49.01,172.18 43.99,171.9 44.28,176.87 40.08,174.14 37.81,178.58 35.55,174.14 31.35,176.87 31.64,171.9 26.62,172.18 29.38,168.01 24.89,165.77 29.38,163.53 26.62,159.37 31.64,159.65 31.35,154.68 35.55,157.41 "/>
  </g>
 </g>
</svg>
