<?xml version="1.0" encoding="UTF-8"?>
<!DOCTYPE svg PUBLIC "-//W3C//DTD SVG 1.1//EN" "http://www.w3.org/Graphics/SVG/1.1/DTD/svg11.dtd">
<!-- Creator: CorelDRAW -->
<svg xmlns="http://www.w3.org/2000/svg" xml:space="preserve" width="870px" height="801px" version="1.1" style="shape-rendering:geometricPrecision; text-rendering:geometricPrecision; image-rendering:optimizeQuality; fill-rule:evenodd; clip-rule:evenodd"
viewBox="0 0 608.61 560.34"
 xmlns:xlink="http://www.w3.org/1999/xlink"
 xmlns:xodm="http://www.corel.com/coreldraw/odm/2003">
 <defs>
  <style type="text/css">
   <![CDATA[
    .str0 {stroke:#16161C;stroke-width:1.65;stroke-miterlimit:22.9256}
    .fil2 {fill:none}
    .fil1 {fill:#16161C}
    .fil5 {fill:black;fill-rule:nonzero}
    .fil0 {fill:#16161C;fill-rule:nonzero}
    .fil4 {fill:#16161C;fill-rule:nonzero}
    .fil3 {fill:white;fill-rule:nonzero}
   ]]>
  </style>
 </defs>
 <g id="Слой_x0020_1">
  <metadata id="CorelCorpID_0Corel-Layer"/>
  <g id="_3164059495376">
   <g>
    <polygon class="fil0" points="508.91,0 510.41,9.51 518.48,14.75 508.97,16.28 503.73,24.32 502.2,14.83 494.16,9.57 503.67,8.07 "/>
    <polygon class="fil0" points="599.04,187.42 600.54,196.92 608.61,202.17 599.09,203.69 593.86,211.74 592.33,202.25 584.29,196.99 593.79,195.49 "/>
    <polygon class="fil0" points="8.64,371.85 14.37,379.58 23.96,380.5 16.23,386.25 15.31,395.81 9.56,388.11 0,387.16 7.73,381.43 "/>
    <polygon class="fil0" points="152.08,527.59 157.05,534.3 165.37,535.09 158.66,540.08 157.86,548.38 152.87,541.69 144.57,540.88 151.29,535.9 "/>
   </g>
   <g>
    <ellipse class="fil1" transform="matrix(0.300165 -1.1584 1.19948 0.346335 546.677 110.84)" rx="78.06" ry="46.45"/>
    <ellipse class="fil1" transform="matrix(-0.250612 -1.17012 1.22753 -0.227739 79.5298 468.383)" rx="78.06" ry="46.45"/>
   </g>
   <g>
    <path class="fil2 str0" d="M19.47 440.89c61.05,6 83.18,-0.05 131.5,-40.38 62.1,-51.82 103.68,-141.71 151.7,-208.17 18.29,-25.32 36.96,-48.57 56.94,-67.54"/>
    <path class="fil2 str0" d="M603.41 118.04c-59.47,-15.1 -96.44,-17.53 -153.04,11.61 -75.01,38.63 -118.15,125.98 -173.38,205.75"/>
    <g>
     <path class="fil2 str0" d="M26.46 408.49c107.39,-7.9 172.65,-145.24 231.7,-234.53"/>
     <g>
      <path class="fil0" d="M222.8 186.73c-0.45,0.06 -0.86,-0.27 -0.91,-0.73 -0.06,-0.45 0.27,-0.86 0.73,-0.91l0.18 1.64zm37.17 -14.02l-1.63 -0.29 1.24 0.85 -1.63 0.98 -1.53 0.91 -1.44 0.86 -1.35 0.81 -1.28 0.76 -1.2 0.71 -1.14 0.67 -1.08 0.62 -1.03 0.58 -0.98 0.54 -0.95 0.5 -0.92 0.47 -0.9 0.43 -0.88 0.41 -0.87 0.37 -0.87 0.35 -0.87 0.32 -0.88 0.3 -0.89 0.27 -0.92 0.26 -0.95 0.24 -0.98 0.22 -1.03 0.21 -1.07 0.2 -1.13 0.19 -1.18 0.19 -1.26 0.18 -1.34 0.18 -1.41 0.18 -1.51 0.18 -1.6 0.18 -1.71 0.19 -0.18 -1.64 1.7 -0.19 1.6 -0.18 1.5 -0.19 1.4 -0.17 1.32 -0.18 1.24 -0.18 1.17 -0.18 1.1 -0.18 1.05 -0.2 0.99 -0.2 0.94 -0.22 0.91 -0.23 0.88 -0.24 0.85 -0.27 0.84 -0.28 0.83 -0.31 0.83 -0.33 0.83 -0.36 0.85 -0.38 0.86 -0.42 0.89 -0.46 0.93 -0.49 0.97 -0.53 1.01 -0.57 1.07 -0.61 1.13 -0.66 1.2 -0.71 1.27 -0.76 1.35 -0.8 1.44 -0.87 1.53 -0.91 1.64 -0.98 1.23 0.86zm-1.23 -0.86l1.55 -0.92 -0.32 1.78 -1.23 -0.86zm2.17 39.48l-1.6 0.41 -0.48 -1.88 -0.45 -1.76 -0.41 -1.64 -0.38 -1.54 -0.35 -1.43 -0.31 -1.35 -0.28 -1.26 -0.25 -1.18 -0.22 -1.12 -0.19 -1.07 -0.16 -1.01 -0.13 -0.97 -0.1 -0.94 -0.08 -0.92 -0.04 -0.9 -0.02 -0.89 0.01 -0.88 0.03 -0.9 0.06 -0.9 0.09 -0.93 0.11 -0.96 0.13 -0.99 0.16 -1.04 0.17 -1.1 0.2 -1.16 0.22 -1.23 0.24 -1.31 0.25 -1.4 0.28 -1.5 0.29 -1.6 0.32 -1.72 0.32 -1.84 1.63 0.29 -0.33 1.84 -0.31 1.73 -0.29 1.6 -0.28 1.5 -0.26 1.4 -0.23 1.3 -0.22 1.22 -0.2 1.15 -0.17 1.08 -0.15 1.02 -0.13 0.96 -0.1 0.93 -0.09 0.89 -0.05 0.86 -0.04 0.85 -0.01 0.84 0.02 0.84 0.04 0.84 0.07 0.87 0.1 0.9 0.12 0.93 0.16 0.98 0.18 1.03 0.22 1.1 0.24 1.16 0.28 1.24 0.31 1.33 0.34 1.43 0.38 1.53 0.41 1.63 0.45 1.76 0.48 1.88zm0 0c0.11,0.45 -0.15,0.9 -0.6,1.01 -0.44,0.11 -0.89,-0.15 -1,-0.6l1.6 -0.41z"/>
     </g>
    </g>
    <path class="fil2 str0" d="M572.46 182.31c-97.53,11.54 -161.11,142.23 -218.61,223.59"/>
    <path class="fil2 str0" d="M25.08 491.7c143.24,76.32 221.61,-9.76 298.7,-133.89 20.93,-33.7 44.56,-68.19 68.52,-103.18"/>
   </g>
   <path class="fil3" d="M19.55 440.07c24.09,2.37 42.1,2.85 58.03,0.08 15.89,-2.76 29.74,-8.77 45.57,-19.4l0.92 1.37c-16.03,10.77 -30.07,16.86 -46.2,19.66 -16.09,2.8 -34.23,2.31 -58.48,-0.08l0.16 -1.63z"/>
   <path class="fil3" d="M26.4 407.67c12.06,-0.89 23.58,-3.42 34.61,-7.34 11.05,-3.92 21.61,-9.24 31.75,-15.68l0.89 1.39c-10.24,6.51 -20.92,11.88 -32.08,15.84 -11.18,3.97 -22.84,6.54 -35.04,7.44l-0.13 -1.65z"/>
   <path class="fil3" d="M603.2 118.84c-22.76,-5.78 -42.22,-9.7 -60.71,-10.7 -18.46,-0.99 -36,0.94 -54.98,6.84l-0.49 -1.58c19.17,-5.96 36.9,-7.9 55.56,-6.9 18.64,1 38.19,4.94 61.03,10.74l-0.41 1.6z"/>
   <path class="fil3" d="M572.55 183.13c-9.13,1.08 -17.96,3.21 -26.52,6.26 -8.56,3.05 -16.85,7.01 -24.89,11.74l-0.84 -1.42c8.12,-4.78 16.51,-8.79 25.17,-11.87 8.68,-3.09 17.63,-5.25 26.89,-6.35l0.19 1.64z"/>
   <g>
    <path class="fil0" d="M387.62 394.69c0.46,-0.04 0.86,0.31 0.89,0.76 0.03,0.46 -0.31,0.85 -0.76,0.89l-0.13 -1.65zm-35.52 12.42l1.64 0.24 -1.23 -0.83 1.54 -0.9 1.46 -0.84 1.36 -0.79 1.28 -0.74 1.21 -0.7 1.14 -0.65 1.08 -0.61 1.03 -0.57 0.97 -0.53 0.94 -0.49 0.9 -0.46 0.88 -0.42 0.85 -0.4 0.84 -0.36 0.83 -0.34 0.83 -0.3 0.83 -0.29 0.85 -0.26 0.86 -0.24 0.88 -0.21 0.9 -0.2 0.94 -0.19 0.99 -0.16 1.03 -0.16 1.08 -0.14 1.14 -0.14 1.21 -0.13 1.28 -0.12 1.36 -0.13 1.44 -0.12 1.54 -0.12 1.64 -0.12 0.13 1.65 -1.64 0.12 -1.53 0.12 -1.44 0.12 -1.35 0.12 -1.27 0.12 -1.19 0.13 -1.11 0.14 -1.06 0.14 -1 0.15 -0.95 0.16 -0.9 0.18 -0.87 0.19 -0.84 0.2 -0.81 0.23 -0.79 0.24 -0.79 0.27 -0.79 0.3 -0.79 0.31 -0.8 0.35 -0.82 0.38 -0.85 0.41 -0.88 0.45 -0.92 0.48 -0.96 0.52 -1.01 0.57 -1.07 0.6 -1.14 0.65 -1.2 0.69 -1.28 0.74 -1.37 0.79 -1.45 0.84 -1.55 0.9 -1.23 -0.84zm1.23 0.84l-1.48 0.85 0.25 -1.69 1.23 0.84zm-3.11 -38.77l1.59 -0.44 0.52 1.87 0.47 1.74 0.44 1.63 0.4 1.52 0.37 1.42 0.34 1.33 0.3 1.25 0.27 1.17 0.24 1.11 0.21 1.05 0.18 0.99 0.15 0.96 0.12 0.93 0.1 0.9 0.06 0.88 0.04 0.88 0.02 0.87 -0.02 0.87 -0.03 0.89 -0.06 0.91 -0.08 0.93 -0.1 0.97 -0.13 1.02 -0.14 1.07 -0.16 1.13 -0.18 1.2 -0.19 1.27 -0.22 1.37 -0.22 1.45 -0.25 1.57 -0.25 1.67 -0.27 1.79 -1.64 -0.24 0.27 -1.8 0.26 -1.68 0.24 -1.56 0.23 -1.46 0.21 -1.36 0.2 -1.27 0.17 -1.19 0.16 -1.12 0.14 -1.05 0.12 -0.99 0.1 -0.95 0.08 -0.9 0.06 -0.87 0.03 -0.84 0.01 -0.83 -0.01 -0.82 -0.04 -0.83 -0.06 -0.83 -0.09 -0.86 -0.12 -0.88 -0.14 -0.92 -0.17 -0.97 -0.21 -1.02 -0.23 -1.08 -0.27 -1.15 -0.3 -1.23 -0.33 -1.32 -0.37 -1.41 -0.4 -1.51 -0.44 -1.62 -0.47 -1.74 -0.51 -1.87zm0 0c-0.12,-0.44 0.14,-0.89 0.58,-1.01 0.44,-0.13 0.89,0.13 1.01,0.57l-1.59 0.44z"/>
   </g>
   <g>
    <g>
     <polygon class="fil4" points="150.21,423.15 237.51,320.29 302.8,371.49 214.96,474.99 149.67,423.79 "/>
     <polygon class="fil3" points="237.72,322.59 152.06,423.52 214.74,472.68 300.41,371.75 "/>
     <path class="fil4" d="M237.61 322.4l2.59 86.19c-30.19,5.07 -60.38,10.15 -90.56,15.24l87.91 -103.58 0.06 2.15zm0.86 84.83l-2.48 -82.59 -82.19 96.83 84.67 -14.24z"/>
     <path class="fil4" d="M213.36 473.29l4.51 -62.6 20.6 -3.46 -0.61 -20.09c21.34,-5.73 42.69,-11.42 64.03,-17.12l-0.2 2.78 -85.62 100.88 -2.79 0.74 0.08 -1.13zm6.1 -61.21l-4.33 60.14 84.89 -100.01 -60.43 16.15 0.61 20.23 -20.74 3.49z"/>
    </g>
    <g>
     <path class="fil4" d="M381.22 229.99c7.98,-9.21 15.45,-18.84 23.38,-28.1 7.91,-9.26 16.28,-18.15 24.11,-27.48 6.38,5 12.86,9.89 19.13,15.02 6.27,5.13 12.14,10.71 18.3,15.95 -8.62,9.01 -17.61,17.68 -25.89,26.96 -8.28,9.27 -16.31,18.78 -24.23,28.36 -5.98,-4.92 -11.8,-10.02 -17.54,-15.2 -5.75,-5.18 -11.58,-10.27 -17.57,-15.17 0.11,-0.11 0.21,-0.22 0.31,-0.34z"/>
     <path class="fil3" d="M428.91 175.72c-7.73,9.12 -15.96,17.84 -23.73,26.93 -7.77,9.08 -15.11,18.53 -22.92,27.58 5.73,4.72 11.31,9.6 16.82,14.57 5.51,4.96 11.07,9.86 16.79,14.59 7.76,-9.32 15.58,-18.59 23.65,-27.63 8.07,-9.06 16.82,-17.53 25.25,-26.3 -5.88,-5.07 -11.51,-10.41 -17.52,-15.33 -6.01,-4.93 -12.22,-9.61 -18.34,-14.41z"/>
     <path class="fil4" d="M428.84 175.61c0.59,8.08 1.01,16.03 1.15,23.91 0.13,7.88 0.08,15.89 0.1,24.06 -8.19,1.06 -16.4,2.17 -24.54,3.33 -8.11,1.15 -16.28,2.31 -24.66,3.44 8.07,-9.26 15.58,-18.96 23.56,-28.29 7.97,-9.33 16.39,-18.28 24.28,-27.68 0.04,0.42 0.07,0.83 0.11,1.23zm0.32 47.14c-0.03,-7.83 0,-15.48 -0.13,-23.03 -0.14,-7.54 -0.51,-15.15 -1.02,-22.86 -7.48,8.71 -15.37,17.07 -22.83,25.79 -7.45,8.71 -14.49,17.78 -21.94,26.5 7.76,-1.09 15.38,-2.19 22.96,-3.27 7.63,-1.09 15.31,-2.13 22.96,-3.13z"/>
     <path class="fil4" d="M415.12 259.74c0.33,-5.87 0.79,-11.77 1.31,-17.66 0.53,-5.93 1.07,-11.9 1.54,-17.86 3.74,-0.5 7.47,-0.98 11.19,-1.47 -0.02,-3.83 -0.02,-7.62 -0.03,-11.38 6.05,-1.21 12.12,-2.34 18.2,-3.41 6.07,-1.07 12.17,-2.18 18.28,-3.43 -0.04,0.53 -0.07,1.04 -0.1,1.55 -8.43,8.75 -17.19,17.21 -25.26,26.26 -8.07,9.04 -15.9,18.3 -23.65,27.62 -0.5,0.13 -1,0.27 -1.51,0.41 0.02,-0.2 0.03,-0.42 0.03,-0.63zm3.72 -34.7c-0.48,5.74 -1,11.47 -1.51,17.16 -0.51,5.66 -0.93,11.31 -1.26,16.94 7.7,-9.23 15.46,-18.42 23.45,-27.38 7.99,-8.97 16.67,-17.38 25.03,-26.06 -5.8,1.16 -11.56,2.21 -17.31,3.22 -5.74,1.01 -11.46,2.06 -17.16,3.2 -0.01,3.78 -0.01,7.61 0.01,11.46 -3.75,0.49 -7.5,0.98 -11.25,1.46z"/>
    </g>
    <g>
     <polygon class="fil5" points="354.23,85.04 438.18,38.02 467.61,90.56 383.13,137.88 353.7,85.34 "/>
     <polygon class="fil3" points="437.72,39.65 355.34,85.8 383.59,136.25 465.98,90.1 "/>
     <path class="fil4" d="M437.7 39.49l-20.75 59.7c-21.09,-4.62 -42.18,-9.23 -63.28,-13.84l84.54 -47.35 -0.51 1.49zm-21.53 58.3l19.88 -57.2 -79.04 44.27 59.16 12.93z"/>
     <path class="fil4" d="M382.53 136.3l19.25 -41.65 14.39 3.14 4.84 -13.91c15.46,1.79 30.93,3.62 46.39,5.44l-0.86 1.84 -82.34 46.12 -2.02 -0.23 0.35 -0.75zm19.94 -40.28l-18.5 40.02 81.64 -45.73 -43.79 -5.13 -4.87 14.01 -14.48 -3.17z"/>
    </g>
   </g>
   <path class="fil3" d="M26.35 491.43c20.64,10.92 39.94,18.45 58.06,22.97 18.1,4.51 35.03,6.01 51,4.88l0.11 1.64c-16.13,1.14 -33.24,-0.37 -51.51,-4.92 -18.25,-4.55 -37.66,-12.13 -58.43,-23.12l0.77 -1.45z"/>
  </g>
 </g>
</svg>
