<?xml version="1.0" encoding="UTF-8"?>
<!DOCTYPE svg PUBLIC "-//W3C//DTD SVG 1.1//EN" "http://www.w3.org/Graphics/SVG/1.1/DTD/svg11.dtd">
<!-- Creator: CorelDRAW -->
<svg xmlns="http://www.w3.org/2000/svg" xml:space="preserve" width="867px" height="808px" version="1.1" style="shape-rendering:geometricPrecision; text-rendering:geometricPrecision; image-rendering:optimizeQuality; fill-rule:evenodd; clip-rule:evenodd"
viewBox="0 0 259.2 241.57"
 xmlns:xlink="http://www.w3.org/1999/xlink"
 xmlns:xodm="http://www.corel.com/coreldraw/odm/2003">
 <defs>
  <style type="text/css">
   <![CDATA[
    .str0 {stroke:#16161C;stroke-width:0.93;stroke-miterlimit:22.9256}
    .str2 {stroke:black;stroke-width:0.71;stroke-miterlimit:22.9256}
    .str1 {stroke:#16161C;stroke-width:0.71;stroke-miterlimit:22.9256}
    .fil0 {fill:none}
    .fil3 {fill:black}
    .fil4 {fill:#16161C}
    .fil2 {fill:white}
    .fil1 {fill:#16161C;fill-rule:nonzero}
   ]]>
  </style>
 </defs>
 <g id="Слой_x0020_1">
  <metadata id="CorelCorpID_0Corel-Layer"/>
  <g id="_3164952086176">
   <g>
    <line class="fil0 str0" x1="170.22" y1="93.21" x2="198.42" y2= "121.42" />
    <line class="fil0 str0" x1="198.44" y1="93.2" x2="170.2" y2= "121.43" />
    <path class="fil0 str0" d="M170.2 121.43c0,0 10.94,-1.54 18.82,-9.41 7.88,-7.88 9.42,-18.82 9.42,-18.82"/>
    <path class="fil0 str0" d="M170.2 121.43c7.79,7.79 20.43,7.78 28.22,-0.01 7.8,-7.8 7.81,-20.43 0.02,-28.22 -7.79,-7.79 -20.43,-7.79 -28.22,0.01 -7.8,7.8 -7.8,20.43 -0.02,28.22z"/>
    <path class="fil0 str0" d="M170.2 121.43c0,0 12.55,6.26 23.52,-4.71 10.97,-10.97 4.72,-23.52 4.72,-23.52"/>
    <path class="fil0 str0" d="M170.2 121.43c0,0 1.54,-10.94 9.42,-18.82 7.88,-7.88 18.82,-9.41 18.82,-9.41"/>
    <path class="fil0 str0" d="M170.2 121.43c0,0 -6.25,-12.55 4.72,-23.52 10.97,-10.97 23.52,-4.71 23.52,-4.71"/>
    <path class="fil0 str0" d="M165.39 101.02c2.15,0.86 7.56,3.52 14.63,10.59 7.08,7.07 9.74,12.48 10.59,14.63"/>
    <path class="fil0 str0" d="M164.41 108.66c2.16,0.78 5.99,2.73 10.91,7.66 4.89,4.88 6.85,8.69 7.64,10.85"/>
    <path class="fil0 str0" d="M178.03 88.38c0.85,2.15 3.51,7.56 10.59,14.64 7.07,7.07 12.48,9.73 14.63,10.58"/>
    <path class="fil0 str0" d="M185.67 87.41c0.77,2.15 2.73,5.98 7.65,10.9 4.89,4.89 8.69,6.85 10.85,7.64"/>
    <line class="fil0 str0" x1="170.22" y1="93.21" x2="198.42" y2= "121.42" />
    <line class="fil0 str0" x1="198.44" y1="93.2" x2="170.2" y2= "121.43" />
    <path class="fil0 str0" d="M170.2 121.43c0,0 10.94,-1.54 18.82,-9.41 7.88,-7.88 9.42,-18.82 9.42,-18.82"/>
    <path class="fil0 str0" d="M170.2 121.43c7.79,7.79 20.43,7.78 28.22,-0.01 7.8,-7.8 7.81,-20.43 0.02,-28.22 -7.79,-7.79 -20.43,-7.79 -28.22,0.01 -7.8,7.8 -7.8,20.43 -0.02,28.22z"/>
    <path class="fil0 str0" d="M170.2 121.43c0,0 12.55,6.26 23.52,-4.71 10.97,-10.97 4.72,-23.52 4.72,-23.52"/>
    <path class="fil0 str0" d="M170.2 121.43c0,0 1.54,-10.94 9.42,-18.82 7.88,-7.88 18.82,-9.41 18.82,-9.41"/>
    <path class="fil0 str0" d="M170.2 121.43c0,0 -6.25,-12.55 4.72,-23.52 10.97,-10.97 23.52,-4.71 23.52,-4.71"/>
    <path class="fil0 str0" d="M165.39 101.02c2.15,0.86 7.56,3.52 14.63,10.59 7.08,7.07 9.74,12.48 10.59,14.63"/>
    <path class="fil0 str0" d="M164.41 108.66c2.16,0.78 5.99,2.73 10.91,7.66 4.89,4.88 6.85,8.69 7.64,10.85"/>
    <path class="fil0 str0" d="M178.03 88.38c0.85,2.15 3.51,7.56 10.59,14.64 7.07,7.07 12.48,9.73 14.63,10.58"/>
    <path class="fil0 str0" d="M185.67 87.41c0.77,2.15 2.73,5.98 7.65,10.9 4.89,4.89 8.69,6.85 10.85,7.64"/>
   </g>
   <g>
    <path class="fil1" d="M203.98 24.46l0 11.6 0.64 0 0 -11.6c-0.11,0.01 -0.22,0.02 -0.32,0.02 -0.11,-0.01 -0.21,-0.01 -0.32,-0.02z"/>
    <path class="fil1" d="M204.62 19.47l0 -11.61 -0.64 0 0 11.6c0.11,-0.02 0.21,-0.03 0.32,-0.03 0.1,0.01 0.21,0.01 0.32,0.04z"/>
    <path class="fil1" d="M206.8 22.28l11.59 0 0 -0.64 -11.59 0c0.01,0.11 0.02,0.21 0.02,0.32 -0.01,0.1 -0.01,0.21 -0.02,0.32z"/>
    <path class="fil1" d="M201.8 21.64l-11.59 0 0 0.64 11.59 0c-0.01,-0.11 -0.02,-0.22 -0.02,-0.32 0.01,-0.11 0.01,-0.21 0.02,-0.32z"/>
    <path class="fil1" d="M202.75 19.96l-8.19 -8.2 -0.45 0.45 8.2 8.2c0.13,-0.16 0.28,-0.3 0.44,-0.45z"/>
    <path class="fil1" d="M205.84 23.95l8.2 8.2 0.44 -0.44 -8.19 -8.21c-0.13,0.17 -0.28,0.32 -0.45,0.45z"/>
    <path class="fil1" d="M206.29 20.42l8.19 -8.2 -0.44 -0.45 -8.2 8.21c0.17,0.13 0.32,0.27 0.45,0.44z"/>
    <path class="fil1" d="M202.31 23.5l-8.2 8.21 0.45 0.44 8.19 -8.2c-0.16,-0.13 -0.31,-0.28 -0.44,-0.45z"/>
   </g>
   <g>
    <polygon class="fil1" points="56.43,131.36 55.64,131.36 55.64,166.32 56.43,166.32 "/>
    <polygon class="fil1" points="73.51,149.25 73.51,148.46 38.57,148.46 38.57,149.25 "/>
    <polygon class="fil1" points="43.96,136.2 43.4,136.76 68.1,161.48 68.66,160.93 "/>
    <polygon class="fil1" points="68.67,136.76 68.11,136.2 43.41,160.93 43.97,161.48 "/>
    <path class="fil1" d="M56.03 151.97c1.73,0 3.12,-1.4 3.12,-3.12 0,-1.73 -1.39,-3.13 -3.12,-3.13 -1.73,0 -3.12,1.4 -3.12,3.13 0,1.72 1.39,3.12 3.12,3.12z"/>
   </g>
   <g>
    <g>
     <rect class="fil2 str1" transform="matrix(1.12458 -0.000775429 0.000950174 1.37801 2.62747 71.9089)" width="153.47" height="38.62" rx="4.98" ry="4.98"/>
     <g>
      <ellipse class="fil3" transform="matrix(0.206275 -0.000142232 0.000235181 0.341076 15.5377 82.2693)" rx="16.62" ry="10.05"/>
      <ellipse class="fil3" transform="matrix(0.206275 -0.000142232 0.000235181 0.341076 25.4978 82.2624)" rx="16.62" ry="10.05"/>
      <ellipse class="fil3" transform="matrix(0.206275 -0.000142232 0.000235181 0.341076 35.7692 82.2553)" rx="16.62" ry="10.05"/>
     </g>
     <path class="fil0 str1" d="M175.24 91.98l-172.6 0.12 -0.01 -13.33c0,-3.78 3.08,-6.86 6.85,-6.87l158.88 -0.11c3.78,0 6.86,3.09 6.87,6.86l0.01 13.33z"/>
     <rect class="fil4" transform="matrix(0.378198 -0.000260778 0.000275763 0.39993 59.8646 102.921)" width="153.47" height="38.62" rx="19.31" ry="19.31"/>
    </g>
    <g>
     <rect class="fil2 str1" transform="matrix(0.994438 -0.10532 0.10532 0.994438 23.4656 16.0208)" width="153.47" height="38.62" rx="4.98" ry="4.98"/>
     <path class="fil2 str1" d="M146.3 41.84l-4.06 -38.4 28.9 -3.06c2.72,-0.29 5.18,1.7 5.47,4.43l3.02 28.5c0.29,2.72 -1.7,5.19 -4.43,5.47l-28.9 3.06z"/>
     <g>
      <ellipse class="fil4" transform="matrix(0.205128 -0.0217249 0.0359222 0.339179 35 24.2206)" rx="16.62" ry="10.05"/>
      <ellipse class="fil4" transform="matrix(0.205128 -0.0217249 0.0359222 0.339179 44.9047 23.1716)" rx="16.62" ry="10.05"/>
      <ellipse class="fil4" transform="matrix(0.205128 -0.0217249 0.0359222 0.339179 55.1189 22.0898)" rx="16.62" ry="10.05"/>
     </g>
    </g>
    <rect class="fil2 str1" transform="matrix(0.99371 0.111981 -0.111981 0.99371 106.437 32.6553)" width="153.47" height="38.62" rx="4.98" ry="4.98"/>
    <path class="fil4" d="M220.8 84.4l4.32 -38.37 28.88 3.25c2.72,0.31 4.7,2.79 4.39,5.51l-3.21 28.48c-0.31,2.72 -2.78,4.7 -5.5,4.39l-28.88 -3.26z"/>
    <g>
     <ellipse class="fil2 str1" transform="matrix(0.204978 0.0230989 -0.0381939 0.338931 115.928 43.1531)" rx="16.62" ry="10.05"/>
     <ellipse class="fil2 str1" transform="matrix(0.204978 0.0230989 -0.0381939 0.338931 125.825 44.2685)" rx="16.62" ry="10.05"/>
     <ellipse class="fil2 str1" transform="matrix(0.204978 0.0230989 -0.0381939 0.338931 136.032 45.4187)" rx="16.62" ry="10.05"/>
    </g>
    <g>
     <rect class="fil2 str1" transform="matrix(0.999736 -0.0229937 0.0376348 1.63631 101.116 113.52)" width="153.47" height="38.62" rx="3.04" ry="3.04"/>
     <path class="fil2 str1" d="M106.09 113.41l143.49 -3.3c2.73,-0.07 5.02,2.12 5.08,4.86l0.3 13.01 -153.43 3.53 -0.3 -13.02c-0.06,-2.73 2.13,-5.02 4.86,-5.08z"/>
     <g>
      <ellipse class="fil2 str1" transform="matrix(0.206221 -0.00474303 0.0078426 0.340986 111.936 122.643)" rx="16.62" ry="10.05"/>
      <ellipse class="fil2 str1" transform="matrix(0.206221 -0.00474303 0.0078426 0.340986 121.893 122.414)" rx="16.62" ry="10.05"/>
      <ellipse class="fil2 str1" transform="matrix(0.206221 -0.00474303 0.0078426 0.340986 132.162 122.177)" rx="16.62" ry="10.05"/>
     </g>
     <rect class="fil0 str1" transform="matrix(0.325603 -0.0074888 0.0087496 0.380421 125.707 147.064)" width="153.47" height="38.62" rx="6.49" ry="6.49"/>
     <rect class="fil4" transform="matrix(0.325603 -0.0074888 0.0087496 0.380421 179.668 145.823)" width="153.47" height="38.62" rx="6.49" ry="6.49"/>
    </g>
    <g>
     <rect class="fil2 str1" transform="matrix(0.995068 0.099196 -0.099196 0.995068 3.71463 157.328)" width="153.47" height="38.62" rx="4.98" ry="4.98"/>
     <path class="fil2 str1" d="M118.73 207.6l3.83 -38.42 28.92 2.88c2.72,0.27 4.73,2.72 4.46,5.44l-2.84 28.53c-0.28,2.72 -2.73,4.73 -5.45,4.46l-28.92 -2.89z"/>
     <g>
      <ellipse class="fil4" transform="matrix(0.205258 0.0204617 -0.0338334 0.339394 13.3396 167.703)" rx="16.62" ry="10.05"/>
      <ellipse class="fil4" transform="matrix(0.205258 0.0204617 -0.0338334 0.339394 23.2506 168.691)" rx="16.62" ry="10.05"/>
      <ellipse class="fil4" transform="matrix(0.205258 0.0204617 -0.0338334 0.339394 33.4713 169.709)" rx="16.62" ry="10.05"/>
     </g>
    </g>
    <g>
     <rect class="fil2 str1" transform="matrix(0.998161 -0.0606191 0.0606191 0.998161 103.603 202.966)" width="153.47" height="38.62" rx="4.98" ry="4.98"/>
     <path class="fil4" d="M225.16 234.27l-2.34 -38.54 29.01 -1.77c2.73,-0.16 5.1,1.94 5.27,4.67l1.73 28.61c0.17,2.73 -1.93,5.1 -4.66,5.27l-29.01 1.76z"/>
     <g>
      <ellipse class="fil2 str1" transform="matrix(0.205896 -0.0125042 0.0206757 0.340449 114.758 211.675)" rx="16.62" ry="10.05"/>
      <ellipse class="fil2 str1" transform="matrix(0.205896 -0.0125042 0.0206757 0.340449 124.7 211.071)" rx="16.62" ry="10.05"/>
      <ellipse class="fil2 str1" transform="matrix(0.205896 -0.0125042 0.0206757 0.340449 134.953 210.448)" rx="16.62" ry="10.05"/>
     </g>
    </g>
    <g>
     <ellipse class="fil2 str2" transform="matrix(1.02267 -0.0621076 0.0579274 0.953839 80.7336 208.513)" rx="10.34" ry="11.08"/>
     <ellipse class="fil3" transform="matrix(0.21609 -0.0131233 0.0122401 0.201546 80.7336 208.513)" rx="10.34" ry="11.08"/>
     <g>
      <path class="fil0 str2" d="M75.85 217.91c4.17,-2.76 5.35,-3.27 4.87,-9.52 -0.48,-6.15 0.65,-6.74 4.67,-9.39"/>
      <path class="fil0 str2" d="M86.53 217.38c-0.31,-5 -0.15,-6.28 -5.81,-8.99 -5.57,-2.66 -5.51,-3.94 -5.8,-8.73"/>
      <path class="fil0 str2" d="M91.3 207.8c-4.4,-2.19 -5.45,-2.93 -10.58,0.59 -5.13,3.51 -6.19,2.79 -10.56,0.61"/>
     </g>
    </g>
   </g>
  </g>
 </g>
</svg>
