<?xml version="1.0" encoding="UTF-8"?>
<!DOCTYPE svg PUBLIC "-//W3C//DTD SVG 1.1//EN" "http://www.w3.org/Graphics/SVG/1.1/DTD/svg11.dtd">
<!-- Creator: CorelDRAW -->
<svg xmlns="http://www.w3.org/2000/svg" xml:space="preserve" width="870px" height="711px" version="1.1" style="shape-rendering:geometricPrecision; text-rendering:geometricPrecision; image-rendering:optimizeQuality; fill-rule:evenodd; clip-rule:evenodd"
viewBox="0 0 871.78 712.32"
 xmlns:xlink="http://www.w3.org/1999/xlink"
 xmlns:xodm="http://www.corel.com/coreldraw/odm/2003">
 <defs>
  <style type="text/css">
   <![CDATA[
    .fil1 {fill:#151516;fill-rule:nonzero}
    .fil2 {fill:#16161C;fill-rule:nonzero}
    .fil0 {fill:white;fill-rule:nonzero}
    .fil3 {fill:white;fill-rule:nonzero}
   ]]>
  </style>
 </defs>
 <g id="Слой_x0020_1">
  <metadata id="CorelCorpID_0Corel-Layer"/>
  <g id="_3164064071568">
   <polygon class="fil0" points="407.42,3.13 413.93,29.17 432.6,9.88 425.22,35.68 451.03,28.31 431.74,46.97 457.78,53.49 431.74,60.01 451.03,78.68 425.22,71.3 432.6,97.11 413.93,77.82 407.42,103.86 400.9,77.82 382.23,97.11 389.61,71.3 363.8,78.68 383.09,60.01 357.05,53.49 383.09,46.97 363.8,28.31 389.61,35.69 382.23,9.88 400.9,29.17 "/>
   <path class="fil1" d="M410.47 2.42l5.13 20.54 14.75 -15.25c1.19,-1.24 3.17,-1.28 4.41,-0.09 0.86,0.83 1.15,2.04 0.84,3.11l-5.82 20.4 20.4 -5.83c1.66,-0.47 3.39,0.49 3.86,2.15 0.35,1.22 -0.08,2.48 -0.99,3.25l-15.1 14.61 20.59 5.15c1.67,0.42 2.69,2.12 2.27,3.79 -0.29,1.18 -1.22,2.03 -2.32,2.29l-20.55 5.14 15.26 14.76c1.23,1.19 1.27,3.17 0.07,4.4 -0.82,0.85 -2.02,1.14 -3.09,0.83l0 0.02 -20.4 -5.83 5.83 20.4c0.47,1.66 -0.5,3.39 -2.16,3.86 -1.22,0.35 -2.48,-0.08 -3.25,-0.99l-14.6 -15.09 -5.15 20.58c-0.42,1.67 -2.11,2.69 -3.79,2.27 -1.17,-0.29 -2.03,-1.22 -2.29,-2.32l-5.14 -20.54 -14.76 15.26c-1.2,1.24 -3.18,1.26 -4.41,0.06 -0.85,-0.83 -1.13,-2.02 -0.83,-3.09l5.83 -20.4 -20.41 5.83c-1.66,0.47 -3.39,-0.49 -3.86,-2.16 -0.35,-1.22 0.08,-2.47 0.99,-3.24l15.1 -14.61 -20.59 -5.16c-1.67,-0.41 -2.69,-2.11 -2.27,-3.79 0.29,-1.17 1.22,-2.03 2.32,-2.28l20.54 -5.14 -15.25 -14.75c-1.24,-1.19 -1.28,-3.17 -0.08,-4.41 0.82,-0.86 2.03,-1.14 3.1,-0.84l20.41 5.82 -5.84 -20.4c-0.47,-1.66 0.5,-3.39 2.16,-3.86 1.22,-0.35 2.47,0.08 3.24,0.99l14.61 15.1 5.16 -20.59c0.42,-1.68 2.11,-2.69 3.79,-2.28 1.18,0.3 2.03,1.23 2.29,2.33zm0.43 27.51l-3.48 -13.92 -3.49 13.92c-0.14,0.55 -0.43,1.07 -0.87,1.49 -1.24,1.2 -3.22,1.16 -4.41,-0.08l-9.98 -10.32 3.95 13.81c0.15,0.54 0.17,1.13 0,1.71 -0.47,1.66 -2.2,2.63 -3.87,2.16l-13.8 -3.95 10.21 9.88c0.46,0.4 0.81,0.95 0.97,1.59 0.42,1.67 -0.6,3.37 -2.28,3.79l-13.93 3.48 13.93 3.49c0.55,0.14 1.07,0.43 1.49,0.87 1.2,1.24 1.16,3.22 -0.08,4.41l-10.31 9.98 13.8 -3.95c0.55,-0.15 1.14,-0.16 1.72,0 1.66,0.47 2.62,2.21 2.15,3.87l-3.95 13.81 9.88 -10.21c0.4,-0.46 0.95,-0.81 1.59,-0.97 1.67,-0.42 3.37,0.6 3.79,2.27l3.49 13.92 3.48 -13.92c0.14,-0.54 0.42,-1.06 0.85,-1.48 1.24,-1.2 3.22,-1.17 4.42,0.06l9.99 10.33 -3.95 -13.81c-0.15,-0.55 -0.16,-1.14 0,-1.72 0.47,-1.66 2.21,-2.62 3.87,-2.15l13.83 3.95 -10.13 -9.79c-0.51,-0.42 -0.9,-0.99 -1.07,-1.68 -0.42,-1.67 0.6,-3.37 2.27,-3.79l13.93 -3.49 -13.93 -3.49c-0.55,-0.14 -1.07,-0.42 -1.49,-0.86 -1.2,-1.25 -1.16,-3.22 0.09,-4.42l10.31 -9.97 -13.81 3.94c-0.54,0.16 -1.14,0.17 -1.72,0 -1.66,-0.47 -2.62,-2.2 -2.15,-3.86l3.95 -13.81 -9.88 10.22c-0.41,0.46 -0.95,0.8 -1.59,0.96 -1.67,0.42 -3.37,-0.6 -3.79,-2.27z"/>
   <path class="fil1" d="M282.39 607.73l34.09 34.09 34.09 -34.09 2.22 2.21 3.09 0.44c-0.01,0.08 -3.81,27.16 -22.92,47.92l22.04 22.04 -4.43 4.43 -22.04 -22.05c-20.77,19.12 -47.83,22.91 -47.91,22.93l-0.44 -3.1 -2.22 -2.21 34.09 -34.09 -34.09 -34.09 4.43 -4.43zm38.52 38.52l7.62 7.62c10.45,-11.43 15.95,-24.86 18.69,-33.93l-26.31 26.31zm3.2 12.05l-7.63 -7.62 -26.31 26.31c9.07,-2.74 22.52,-8.23 33.94,-18.69z"/>
   <path class="fil1" d="M316.49 694.46c13.31,0 25.36,-5.4 34.08,-14.12 8.73,-8.73 14.12,-20.78 14.12,-34.09 0,-13.31 -5.39,-25.37 -14.12,-34.09 -8.72,-8.72 -20.77,-14.12 -34.08,-14.12 -13.32,0 -25.37,5.4 -34.09,14.12 -8.73,8.72 -14.12,20.78 -14.12,34.09 0,13.31 5.4,25.37 14.12,34.09 8.72,8.72 20.78,14.12 34.09,14.12zm38.51 -9.69c-9.85,9.85 -23.47,15.95 -38.51,15.95 -15.04,0 -28.66,-6.1 -38.52,-15.96 -9.86,-9.85 -15.95,-23.47 -15.95,-38.51 0,-15.04 6.09,-28.66 15.95,-38.52 9.86,-9.85 23.48,-15.95 38.52,-15.95 15.04,0 28.66,6.1 38.51,15.95 9.86,9.86 15.96,23.48 15.96,38.52 0,15.04 -6.1,28.66 -15.96,38.52z"/>
   <path class="fil1" d="M281.52 679.74c0.09,0.04 30.33,15.12 56.95,-11.5 26.63,-26.63 11.54,-56.86 11.5,-56.95l5.63 -2.69c0.05,0.1 17.09,34.28 -12.7,64.07 -29.79,29.78 -63.97,12.74 -64.07,12.69l2.69 -5.62z"/>
   <path class="fil1" d="M277.08 682.11c0.02,-0.08 4.09,-29.17 25.1,-50.17 20.98,-21 50.08,-25.08 50.17,-25.09l0.88 6.19c-0.08,0.01 -27.11,3.8 -46.63,23.32l-0.02 0c-19.51,19.51 -23.3,46.55 -23.31,46.63l-6.19 -0.88z"/>
   <path class="fil1" d="M277.37 683.9c-0.04,-0.1 -17.07,-34.27 12.7,-64.06l0 -0.01c29.79,-29.79 63.97,-12.75 64.07,-12.7l-2.69 5.63c-0.09,-0.05 -30.33,-15.13 -56.95,11.5 -26.62,26.62 -11.54,56.86 -11.5,56.95l-5.63 2.69z"/>
   <path class="fil1" d="M268.91 627.14c2.91,1.16 8.01,3.53 14.66,7.93 6.61,4.37 14.82,10.76 24.08,20.02 7.34,7.34 12.89,14.03 17.05,19.77 6.35,8.79 9.5,15.46 10.89,18.96l-5.79 2.3c-1.27,-3.18 -4.17,-9.29 -10.17,-17.59 -3.97,-5.49 -9.3,-11.91 -16.41,-19.01 -8.95,-8.95 -16.81,-15.08 -23.1,-19.24 -6.24,-4.13 -10.88,-6.29 -13.51,-7.34l2.3 -5.8zm-2.59 19.61c2.96,1.07 7.04,2.93 12,6.17 4.9,3.2 10.71,7.76 17.22,14.28 6.46,6.44 11.01,12.22 14.2,17.09 3.24,4.94 5.12,9.02 6.2,11.99l-5.87 2.13c-0.95,-2.59 -2.62,-6.2 -5.56,-10.69 -2.98,-4.55 -7.26,-9.97 -13.39,-16.1l0 -0.01c-6.16,-6.17 -11.62,-10.47 -16.2,-13.46 -4.5,-2.94 -8.12,-4.6 -10.71,-5.53l2.11 -5.87zm36.86 -50.39c1.05,2.64 3.22,7.29 7.34,13.52 4.17,6.31 10.3,14.18 19.23,23.1 7.11,7.11 13.53,12.44 19.02,16.41 8.29,6 14.41,8.9 17.59,10.17l-2.3 5.79c-3.5,-1.39 -10.17,-4.54 -18.96,-10.9 -5.75,-4.16 -12.43,-9.7 -19.77,-17.04l0 -0.02c-9.28,-9.27 -15.67,-17.47 -20.02,-24.06 -4.41,-6.67 -6.77,-11.75 -7.93,-14.65l5.8 -2.32zm19.69 -2.39c0.93,2.59 2.59,6.2 5.53,10.71 2.98,4.56 7.27,10.01 13.46,16.2 5.19,5.2 9.89,9.07 13.98,11.95 5.47,3.85 9.81,5.91 12.82,7l-2.13 5.87c-3.41,-1.24 -8.28,-3.54 -14.28,-7.76 -4.35,-3.06 -9.32,-7.15 -14.8,-12.63l-0.01 0c-6.49,-6.49 -11.06,-12.3 -14.27,-17.23 -3.25,-4.96 -5.11,-9.05 -6.17,-12l5.87 -2.11z"/>
   <path class="fil0" d="M38.36 170.15l479.34 -76.77 32.69 204.11c0.12,0.79 0.19,1.61 0.19,2.41 0,7.5 -5.44,13.89 -12.85,15.07l-449.2 71.95c-0.79,0.13 -1.6,0.2 -2.41,0.2 -7.49,0 -13.88,-5.45 -15.07,-12.85l-32.69 -204.12 0 0z"/>
   <path class="fil1" d="M40.95 166.58l479.33 -76.78 33.19 207.2c0.09,0.56 0.15,1.05 0.18,1.45l0 0.01c0.04,0.5 0.06,0.99 0.06,1.44 0,4.51 -1.64,8.69 -4.41,11.93 -2.74,3.23 -6.61,5.51 -11.08,6.23l-449.2 71.95c-0.54,0.08 -1.02,0.14 -1.44,0.18 -0.5,0.04 -0.99,0.06 -1.46,0.06 -4.5,0 -8.69,-1.65 -11.93,-4.41 -3.22,-2.75 -5.5,-6.62 -6.22,-11.08l-32.2 -201.03 -6.45 1.03 11.15 -11.15 0.48 2.97zm474.16 -69.63l-473.18 75.79 32.2 201.04c0.48,2.94 1.99,5.5 4.12,7.32 2.13,1.81 4.89,2.89 7.87,2.89 0.34,0 0.66,-0.02 0.97,-0.04 0.38,-0.03 0.7,-0.07 0.96,-0.11l449.2 -71.95c2.93,-0.47 5.49,-1.98 7.31,-4.12 1.81,-2.12 2.89,-4.88 2.89,-7.87 0,-0.34 -0.01,-0.66 -0.04,-0.96l-0.1 -0.96 -32.2 -201.03z"/>
   <path class="fil0" d="M44.23 110.3l449.2 -71.96c0.79,-0.12 1.6,-0.19 2.41,-0.19 7.49,0 13.88,5.45 15.07,12.85l6.79 42.38 -479.34 76.77 -6.79 -42.37c-0.12,-0.8 -0.19,-1.61 -0.19,-2.41 0,-7.5 5.45,-13.89 12.85,-15.07z"/>
   <path class="fil1" d="M43.74 107.21l449.2 -71.95c0.54,-0.09 1.02,-0.15 1.44,-0.18 0.5,-0.04 0.99,-0.06 1.46,-0.06 4.51,0 8.69,1.65 11.93,4.41 3.23,2.75 5.51,6.62 6.22,11.08l7.28 45.45c-161.84,25.88 -323.67,51.82 -485.5,77.77l-7.28 -45.46c-0.08,-0.54 -0.14,-1.03 -0.18,-1.45l0 -0.01c-0.04,-0.5 -0.06,-0.99 -0.06,-1.44 0,-4.51 1.65,-8.7 4.41,-11.93 2.75,-3.23 6.62,-5.51 11.08,-6.23zm450.18 -65.78l-449.2 71.95c-2.94,0.47 -5.49,1.98 -7.32,4.12 -1.81,2.12 -2.88,4.88 -2.88,7.87 0,0.34 0.01,0.67 0.03,0.96 0.03,0.39 0.07,0.71 0.11,0.96l6.29 39.29 473.17 -75.79 -6.29 -39.31c-0.47,-2.93 -1.98,-5.49 -4.12,-7.31 -2.13,-1.81 -4.88,-2.89 -7.87,-2.89 -0.34,0 -0.66,0.02 -0.97,0.04 -0.38,0.03 -0.7,0.07 -0.95,0.11z"/>
   <path class="fil1" d="M68.3 145.16c0,0 0,0 0,0 5.08,0 9.19,-4.12 9.19,-9.19 0,-5.08 -4.11,-9.2 -9.19,-9.2 0,0 0,0 0,0 -5.08,0 -9.19,4.12 -9.19,9.2 0,5.07 4.11,9.19 9.19,9.19l0 0zm31.37 -5.02c0,0 0,0 0,0 5.08,0 9.19,-4.12 9.19,-9.2 0,-5.07 -4.11,-9.19 -9.19,-9.19 0,0 0,0 0,0 -5.08,0 -9.19,4.12 -9.19,9.19 0,5.08 4.11,9.2 9.19,9.2l0 0zm31.36 -5.02c5.08,0 9.19,-4.12 9.19,-9.19 0,-5.08 -4.11,-9.2 -9.19,-9.2 -5.08,0 -9.19,4.12 -9.19,9.2 0,5.07 4.11,9.19 9.19,9.19l0 0z"/>
   <polygon class="fil0" points="491.71,146.04 79.48,212.07 80.88,220.81 493.11,154.78 491.71,146.04 "/>
   <path class="fil1" d="M489.12 149.62l-406.06 65.04 0.41 2.57 406.06 -65.04 -0.41 -2.57zm-410.13 59.37l415.85 -66.61 0 3.48 1.84 11.51c-139.47,22.3 -278.93,44.66 -418.39,67.01l-2.38 -14.9 3.08 -0.49z"/>
   <polygon class="fil1" points="470.98,158.32 80.88,220.8 82.28,229.54 472.38,167.05 "/>
   <polygon class="fil0" points="457.76,188.11 85.2,247.78 86.6,256.52 459.16,196.84 "/>
   <path class="fil1" d="M455.17 191.68l-366.4 58.69 0.42 2.57 366.39 -58.69 -0.41 -2.57zm-370.46 53.02l375.64 -60.17 2.38 14.9c-126.24,20.19 -252.48,40.42 -378.72,60.66l-2.39 -14.9 3.09 -0.49z"/>
   <polygon class="fil1" points="428.37,201.78 86.6,256.52 88,265.25 429.77,210.51 "/>
   <polygon class="fil0" points="425.25,229.94 90.92,283.49 92.32,292.23 426.65,238.68 "/>
   <path class="fil1" d="M422.66 233.51l-328.16 52.57 0.41 2.57 328.16 -52.56 -0.41 -2.58zm-332.22 46.9l337.4 -54.05 2.38 14.9c-113.5,18.15 -226.99,36.35 -340.49,54.54l-2.38 -14.9 3.09 -0.49z"/>
   <polygon class="fil1" points="361.52,249.11 92.32,292.23 93.72,300.96 362.92,257.84 361.52,249.1 "/>
   <polygon class="fil0" points="454.99,261.81 96.65,319.21 98.05,327.94 456.38,270.54 454.99,261.81 "/>
   <path class="fil1" d="M452.4 265.38l-352.18 56.41 0.41 2.58 352.18 -56.41 -0.41 -2.58zm-356.24 50.74l367.86 -58.92 -5.7 5.7 1.64 10.23c-121.51,19.43 -243,38.91 -364.5,58.39l-2.39 -14.9 3.09 -0.5z"/>
   <polygon class="fil1" points="447.93,271.89 98.03,327.94 99.43,336.67 449.32,280.63 "/>
   <polygon class="fil1" points="79.77,194.21 105.31,353.7 99.14,354.67 73.61,195.19 "/>
   <path class="fil0" d="M518.51 144.14l348.01 17.1 -9.21 187.31c-0.31,6.42 -4.58,11.98 -10.7,13.96 -1.77,0.57 -3.64,0.82 -5.51,0.73l-317.1 -15.58c-6.42,-0.32 -11.98,-4.58 -13.96,-10.7 -0.57,-1.78 -0.82,-3.64 -0.73,-5.51l9.2 -187.31 0 0z"/>
   <path class="fil1" d="M520.49 141.11l349.3 17.17 -9.36 190.42c-0.19,3.86 -1.56,7.47 -3.81,10.39 -2.24,2.93 -5.37,5.2 -9.05,6.39 -1.06,0.34 -2.16,0.59 -3.28,0.74 -1.11,0.14 -2.23,0.19 -3.33,0.14l-317.11 -15.58c-3.86,-0.19 -7.47,-1.57 -10.39,-3.81 -2.94,-2.25 -5.2,-5.38 -6.39,-9.06 -0.34,-1.06 -0.59,-2.15 -0.74,-3.27 -0.14,-1.11 -0.19,-2.23 -0.14,-3.33l9.79 -199.21 4.51 9.01zm342.75 23.1l-341.76 -16.79 -9.05 184.18c-0.04,0.75 0,1.51 0.09,2.24 0.1,0.72 0.26,1.45 0.49,2.17 0.79,2.43 2.29,4.5 4.24,5.99 1.95,1.5 4.34,2.42 6.9,2.54l317.1 15.58c0.75,0.04 1.5,0.01 2.24,-0.09 0.72,-0.1 1.45,-0.26 2.17,-0.49 2.43,-0.79 4.51,-2.29 6,-4.24 1.49,-1.95 2.41,-4.34 2.53,-6.9l9.05 -184.19z"/>
   <path class="fil0" d="M536.85 86.01l317.11 15.57c6.42,0.32 11.98,4.59 13.95,10.71 0.58,1.77 0.82,3.64 0.73,5.5l-2.13 43.45 -348 -17.1 2.13 -43.44c0.32,-6.42 4.58,-11.99 10.71,-13.96 1.77,-0.58 3.64,-0.82 5.5,-0.73l0 0z"/>
   <path class="fil1" d="M537 82.89l317.1 15.58c3.87,0.19 7.47,1.56 10.4,3.81 2.93,2.25 5.2,5.37 6.39,9.05 0.34,1.06 0.58,2.16 0.73,3.27 0.15,1.11 0.2,2.23 0.14,3.34l-2.28 46.57c-118.08,-5.83 -236.16,-11.63 -354.24,-17.4l2.28 -46.56c0.2,-3.86 1.57,-7.47 3.82,-10.4 2.24,-2.93 5.37,-5.2 9.05,-6.39 1.06,-0.34 2.16,-0.58 3.27,-0.73l0.06 -0.01 0 -0.29 3.28 0.16zm316.81 21.81l-317.1 -15.57c-0.76,-0.04 -1.51,-0.01 -2.24,0.09 -0.73,0.09 -1.46,0.26 -2.17,0.49 -2.44,0.78 -4.51,2.29 -6,4.23 -1.49,1.96 -2.41,4.35 -2.54,6.91l-1.98 40.33 341.77 16.79 1.97 -40.32c0.04,-0.76 0.01,-1.51 -0.09,-2.24 -0.09,-0.73 -0.26,-1.45 -0.49,-2.17 -0.78,-2.44 -2.29,-4.51 -4.23,-6 -1.95,-1.49 -4.34,-2.41 -6.9,-2.54z"/>
   <path class="fil1" d="M555.5 125.83c0.98,0 1.95,-0.15 2.88,-0.45 4.89,-1.58 7.58,-6.83 6,-11.73 -1.28,-3.95 -5.01,-6.58 -9.16,-6.45 -0.87,0.03 -1.74,0.18 -2.57,0.45 -4.89,1.58 -7.58,6.83 -6,11.73 1.24,3.84 4.82,6.44 8.85,6.45l0 0zm32.15 1.58c0.97,0 1.95,-0.15 2.87,-0.45 4.9,-1.58 7.59,-6.83 6.01,-11.73 -1.28,-3.94 -5.01,-6.58 -9.16,-6.44 -0.87,0.02 -1.74,0.17 -2.57,0.44 -4.89,1.58 -7.58,6.83 -6,11.73 1.24,3.84 4.81,6.45 8.85,6.45l0 0zm32.15 1.59c0.97,0 1.94,-0.15 2.87,-0.45 4.9,-1.58 7.59,-6.83 6.01,-11.73 -1.28,-3.95 -5.02,-6.58 -9.17,-6.45 -0.9,0.02 -1.8,0.17 -2.66,0.45 -4.9,1.58 -7.59,6.83 -6.01,11.73 1.25,3.88 4.88,6.49 8.96,6.45l0 0z"/>
   <polygon class="fil1" points="824.56,332.1 543.51,318.27 543.8,312.04 824.85,325.86 "/>
   <path class="fil1" d="M832.25 189.67c1.38,0.38 2.37,1.67 2.3,3.16 -0.09,1.72 -1.55,3.05 -3.27,2.97l-13.52 -0.66c-14.91,8.06 -25.88,22.21 -35.45,37.54l47.03 2.32c1.72,0.08 3.06,1.54 2.97,3.26 -0.08,1.72 -1.54,3.06 -3.26,2.97l-50.43 -2.48c-2.36,3.96 -4.64,7.94 -6.89,11.88 -5.34,9.32 -10.54,18.4 -16.16,26.27l71.54 3.52c1.72,0.08 3.05,1.54 2.97,3.27 -0.08,1.72 -1.54,3.05 -3.26,2.97l-75.85 -3.73c-9.93,12.07 -21.49,20 -37.4,19.21 -18.71,-0.92 -30.31,-10.33 -39.29,-22.98l-128.52 -6.32c-1.72,-0.08 -3.05,-1.55 -2.97,-3.27 0.08,-1.72 1.55,-3.05 3.27,-2.97l123.99 6.1c-3.55,-5.84 -6.75,-12.12 -9.97,-18.42 -3.86,-7.56 -7.73,-15.16 -12.28,-21.96l-86.11 -4.24c-3.55,4.51 -6.45,9.27 -9.15,13.69l-0.91 1.49c-0.9,1.47 -2.82,1.94 -4.29,1.04 -1.48,-0.9 -1.94,-2.82 -1.04,-4.29l0.91 -1.49c2.13,-3.49 4.37,-7.18 6.93,-10.81l-6.15 -0.3c-1.72,-0.08 -3.05,-1.55 -2.97,-3.27 0.08,-1.72 1.54,-3.05 3.27,-2.97l10.47 0.51c9.83,-11.66 24.24,-21.29 50.19,-20.01 20.41,1 32.84,11.16 42.33,24.57l123.89 6.09c8.78,-14.44 18.64,-28.23 31.69,-37.73l-256.64 -12.62c-1.72,-0.08 -3.05,-1.54 -2.97,-3.26 0.08,-1.73 1.54,-3.06 3.27,-2.98l265.79 13.07c4.53,-2.28 9.42,-4.07 14.72,-5.26 1.68,-0.38 3.35,0.67 3.73,2.36 0.38,1.68 -0.68,3.35 -2.36,3.73l-0.15 0.03zm-60.7 48.74l-116.04 -5.71c3.64,5.98 6.9,12.37 10.15,18.75 3.84,7.51 7.65,15 12.09,21.62l70.26 3.46c6.43,-8.29 12.26,-18.48 18.28,-29 1.74,-3.03 3.48,-6.08 5.26,-9.12zm-204.53 -16.32l76 3.74c-8.21,-10 -18.74,-17.16 -34.36,-17.93 -20.27,-0.99 -32.81,5.49 -41.64,14.19zm175.89 60.44l-60.34 -2.97c7.64,9.19 17.28,15.66 31.29,16.35 11.71,0.57 20.95,-4.77 29.05,-13.38z"/>
   <path class="fil1" d="M547.74 271.82c-1.72,-0.08 -3.05,-1.55 -2.97,-3.27 0.08,-1.72 1.54,-3.05 3.26,-2.97 28.23,1.38 40.42,-22.64 52.23,-45.9 11.96,-23.58 23.56,-46.43 50.56,-45.1 26.6,1.3 35.68,17.54 44.99,34.18 8.91,15.94 18.06,32.3 45.25,33.64 14.76,0.73 30.5,-4.01 45.59,-11.28 15.29,-7.38 29.89,-17.35 42.17,-26.95 1.35,-1.06 3.32,-0.81 4.38,0.54 1.06,1.36 0.81,3.32 -0.54,4.38 -12.59,9.84 -27.56,20.06 -43.29,27.65 -15.94,7.69 -32.68,12.68 -48.61,11.9 -30.65,-1.51 -40.66,-19.4 -50.41,-36.84 -8.44,-15.11 -16.68,-29.85 -39.82,-30.99 -22.97,-1.13 -33.66,19.94 -44.7,41.68 -12.7,25.04 -25.83,50.91 -58.09,49.33z"/>
   <path class="fil0" d="M569.72 396.33l244.97 -15.59 17.47 274.71c0.02,0.33 0.03,0.68 0.03,1.02 0,8.51 -6.61,15.55 -15.1,16.1l-212.77 13.53c-0.34,0.02 -0.68,0.04 -1.02,0.04 -8.51,0 -15.56,-6.62 -16.1,-15.11l-17.48 -274.7z"/>
   <path class="fil1" d="M569.53 393.21l248.08 -15.78c3.83,60.13 6.35,232.44 17.72,279.04 0,5.07 -1.98,9.71 -5.23,13.17 -3.24,3.46 -7.75,5.72 -12.82,6.05 -46.11,2.93 -178.19,4.85 -213.98,13.58 -5.08,0 -9.72,-1.98 -13.18,-5.23 -3.45,-3.24 -5.72,-7.75 -6.04,-12.82l-17.68 -277.81 3.13 -0.2zm242.24 -9.15l-238.73 15.19 17.28 271.58c0.21,3.43 1.74,6.47 4.08,8.66 2.33,2.19 5.46,3.52 8.9,3.52l0.37 0 213.22 -13.56c3.43,-0.22 6.47,-1.75 8.66,-4.09 2.18,-2.32 3.51,-5.46 3.51,-8.89l0.01 -0.36 -17.3 -272.05z"/>
   <path class="fil0" d="M581.91 333.94l212.77 -13.54c0.34,-0.02 0.68,-0.03 1.02,-0.03 8.51,0 15.56,6.61 16.1,15.11l2.88 45.27 -244.96 15.58 -2.88 -45.27c-0.02,-0.34 -0.04,-0.68 -0.04,-1.02 0,-8.51 6.62,-15.56 15.11,-16.1z"/>
   <path class="fil1" d="M581.72 330.82c46.11,-2.93 178.19,-4.85 213.98,-13.58 5.07,0 9.72,1.98 13.18,5.23 3.45,3.23 5.72,7.74 6.04,12.81l3.08 48.39c-83.74,5.3 -167.47,10.64 -251.2,15.98 -0.76,-12.02 -0.79,-40.02 -3.13,-49.61 0,-5.07 1.98,-9.72 5.23,-13.18 3.24,-3.45 7.75,-5.72 12.82,-6.04zm213.16 -7.3l-212.77 13.54c-3.43,0.22 -6.47,1.75 -8.66,4.08 -2.18,2.33 -3.51,5.47 -3.51,8.9l-0.01 0.36 2.71 42.62 238.73 -15.19 -2.68 -42.16c-0.22,-3.42 -1.76,-6.47 -4.09,-8.66 -2.33,-2.18 -5.46,-3.51 -8.9,-3.51l-0.36 0 -0.46 0.02z"/>
   <path class="fil1" d="M604.64 373.07c5.37,0 9.72,-4.35 9.72,-9.72 0,-5.36 -4.35,-9.71 -9.72,-9.71 -5.36,0 -9.71,4.35 -9.71,9.71 0,5.37 4.35,9.72 9.71,9.72l0 0zm33.51 -2.13c5.37,0 9.72,-4.35 9.72,-9.71 0,-5.37 -4.35,-9.72 -9.72,-9.72 -5.36,0 -9.71,4.35 -9.71,9.72 0,5.36 4.35,9.71 9.71,9.71l0 0zm33.49 -2.13c5.37,0 9.72,-4.35 9.72,-9.71 0,-5.37 -4.35,-9.72 -9.72,-9.72 -5.36,0 -9.71,4.35 -9.71,9.72 0,5.36 4.35,9.71 9.71,9.71l0 0zm-35.18 181.4l-14 0.89 6.26 98.43 14 -0.89 -6.26 -98.43zm17.6 -51.25l-14 0.89 9.43 148.36 14 -0.89 -9.43 -148.36zm17.07 -60.04l-14 0.89 13.17 207.08 14 -0.89 -13.17 -207.08 0 0zm22.95 32.73l-14 0.9 11.01 173.01 14 -0.89 -11.01 -173.01 0 -0.01zm23.21 36.84l-14 0.89 8.58 134.87 14 -0.9 -8.58 -134.86zm18.8 -32.75l-14 0.9 10.58 166.28 14 -0.89 -10.58 -166.29zm18.9 -31.13l-14 0.89 12.48 196.1 14 -0.89 -12.48 -196.1 0 0zm23.14 35.69l-14 0.89 10.12 159.09 14 -0.89 -10.12 -159.09z"/>
   <polygon class="fil1" points="796.25,642.08 621.04,653.22 620.65,646.98 795.86,635.84 "/>
   <polygon class="fil1" points="646.75,420.98 649.74,428.77 657.53,431.76 649.74,434.76 646.75,442.55 643.75,434.76 635.96,431.77 643.75,428.77 646.75,420.98 "/>
   <path class="fil0" d="M266.82 316.16l343.23 31.29 -25.69 281.76c-0.69,7.54 -6.79,13.45 -14.35,13.89 -0.76,0.04 -1.52,0.03 -2.28,-0.04l-312.75 -28.51c-7.53,-0.69 -13.44,-6.79 -13.88,-14.35 -0.04,-0.76 -0.03,-1.52 0.04,-2.28l25.68 -281.76 0 0zm20.54 -56.7l312.75 28.51c7.54,0.69 13.44,6.79 13.88,14.35 0.05,0.76 0.03,1.52 -0.04,2.28l-3.9 42.84 -343.22 -31.28 3.9 -42.85c0.7,-7.54 6.79,-13.45 14.35,-13.89 0.76,-0.04 1.52,-0.03 2.28,0.04l0 0z"/>
   <path class="fil1" d="M606.66 350.28l-337.01 -30.73 -25.41 278.66c-0.02,0.29 -0.04,0.59 -0.04,0.89l0.02 0.93c0.17,3 1.44,5.72 3.41,7.75 1.97,2.04 4.65,3.39 7.64,3.66l312.74 28.52c0.3,0.02 0.6,0.04 0.89,0.04l0.93 -0.02c3.01,-0.18 5.72,-1.44 7.75,-3.4 2.04,-1.98 3.4,-4.65 3.67,-7.65l25.41 -278.65zm6.21 0.55l-25.41 278.67c-0.41,4.54 -2.45,8.58 -5.52,11.55 -3.08,2.99 -7.2,4.9 -11.75,5.17 -0.41,0.02 -0.87,0.03 -1.36,0.02 -0.46,-0.01 -0.92,-0.03 -1.38,-0.07l-312.75 -28.52c-4.54,-0.41 -8.59,-2.45 -11.56,-5.52l-0.01 -0.02c-2.97,-3.07 -4.88,-7.19 -5.15,-11.74 -0.02,-0.4 -0.03,-0.85 -0.02,-1.34 0.01,-0.46 0.03,-0.93 0.07,-1.39l25.4 -278.66 -3.54 -0.32 3.94 -3.93 3.8 -41.71c0.42,-4.54 2.46,-8.59 5.53,-11.56 3.08,-2.98 7.2,-4.89 11.75,-5.16 0.41,-0.02 0.86,-0.03 1.34,-0.02 100.68,4.53 212.54,19.32 314.14,28.59 4.54,0.41 8.59,2.45 11.56,5.52 2.98,3.09 4.9,7.2 5.16,11.76 0.02,0.4 0.03,0.85 0.02,1.34 0,0.46 -0.03,0.93 -0.07,1.39l-4.19 45.95zm-13.04 -59.75l-312.75 -28.52c-0.3,-0.02 -0.6,-0.04 -0.9,-0.04l-0.93 0.02c-3,0.18 -5.71,1.44 -7.74,3.4 -2.04,1.97 -3.4,4.65 -3.67,7.65l-3.62 39.74 337 30.73 3.63 -39.75c0.02,-0.29 0.04,-0.59 0.05,-0.89l-0.03 -0.93c-0.17,-3 -1.43,-5.71 -3.4,-7.74 -1.97,-2.04 -4.65,-3.4 -7.64,-3.67z"/>
   <path class="fil1" d="M304.13 299.57c0.27,0.01 0.54,0.01 0.82,-0.01 5.07,-0.3 8.95,-4.66 8.66,-9.74 -0.28,-4.79 -4.19,-8.56 -8.99,-8.67 -0.25,-0.01 -0.5,0 -0.75,0.01 -5.08,0.3 -8.96,4.66 -8.66,9.74 0.28,4.76 4.15,8.53 8.92,8.67l0 0zm31.71 2.9c0.27,0 0.55,0 0.82,-0.02 5.08,-0.29 8.96,-4.65 8.66,-9.73 -0.28,-4.79 -4.19,-8.57 -8.99,-8.68 -0.25,0 -0.5,0 -0.75,0.02 -5.08,0.29 -8.96,4.65 -8.66,9.73 0.28,4.77 4.15,8.53 8.92,8.68l0 0zm31.71 2.89c0.26,0 0.52,0 0.78,-0.02 5.08,-0.29 8.96,-4.65 8.66,-9.73 -0.28,-4.78 -4.17,-8.55 -8.95,-8.68 -0.26,-0.01 -0.53,0 -0.78,0.01 -5.08,0.3 -8.96,4.66 -8.67,9.74 0.28,4.78 4.18,8.55 8.96,8.68l0 0z"/>
   <path class="fil1" d="M419.15 487.3l41.65 75.41c9.54,-5.7 17.82,-13.03 24.58,-21.51 11.76,-14.77 18.89,-33.04 19.89,-52.34l-86.12 -1.56zm36.18 78.43l-44.16 -79.95c-0.41,-0.63 -0.59,-1.41 -0.46,-2.21l15.03 -90.3c-11.07,-1.46 -22.59,-0.9 -34.08,1.96 -24.54,6.11 -44.27,21.58 -56.34,41.66 -12.08,20.09 -16.5,44.79 -10.39,69.33 6.11,24.54 21.58,44.27 41.66,56.35 20.09,12.07 44.79,16.49 69.34,10.38 6.86,-1.71 13.35,-4.15 19.4,-7.22zm5.78 4l-0.02 0.01c-7.29,4.02 -15.21,7.17 -23.67,9.28 -26.21,6.52 -52.58,1.8 -74.03,-11.1 -21.46,-12.9 -38,-33.99 -44.52,-60.21 -6.53,-26.2 -1.81,-52.57 11.09,-74.02 12.9,-21.46 33.99,-38 60.21,-44.53 13.35,-3.32 26.75,-3.72 39.52,-1.61l0.33 0.05c7.21,1.22 14.23,3.24 20.91,5.99 19,7.82 35.38,21.53 46.34,39.47l0.53 0.86c0.88,1.49 0.4,3.41 -1.08,4.29l-71.94 42.96c14.32,0.25 74.61,-0.72 83.76,1.51 1.73,0.02 3.1,1.44 3.07,3.17 -0.37,21.85 -8.11,42.63 -21.34,59.24 -7.89,9.91 -17.74,18.34 -29.16,24.64zm-43.13 -91.78l72.82 -43.48c-10.24,-15.88 -25.09,-28.05 -42.24,-35.11 -5.35,-2.2 -10.93,-3.9 -16.66,-5.06l-13.92 83.65z"/>
   <path class="fil1" d="M541.02 423.39l-81.21 48.49 94.71 1.71c0.14,-8.1 -0.77,-16.36 -2.82,-24.59 -2.22,-9.02 -5.82,-17.7 -10.57,-25.68l-0.11 0.07 0 0zm-194.3 -6.17c-22.61,22.72 -33.13,56.37 -24.82,89.75l91.89 -22.88 -67.07 -66.86 0 -0.01 0 0z"/>
   <path class="fil1" d="M540.01 427.63l-69.21 41.33 80.6 1.45c-0.05,-2.91 -0.25,-5.86 -0.59,-8.83 -0.45,-3.95 -1.16,-7.9 -2.14,-11.83 -1.07,-4.36 -2.47,-8.62 -4.17,-12.75 -1.33,-3.21 -2.83,-6.34 -4.49,-9.37zm-81.8 41.57c26.93,-16.08 54.82,-31.96 81.33,-48.56 1.48,-0.88 3.39,-0.39 4.27,1.09 2.47,4.15 4.63,8.47 6.46,12.9 1.82,4.43 3.32,8.99 4.47,13.63 1.05,4.21 1.81,8.43 2.28,12.61 0.49,4.24 0.69,8.51 0.62,12.77 -0.03,1.72 -1.45,3.09 -3.17,3.07l-94.6 -1.71c-1.08,0.02 -2.14,-0.53 -2.73,-1.52 -0.89,-1.48 -0.41,-3.4 1.07,-4.28zm-111.45 -47.52c-10.01,10.77 -17.34,23.86 -21.27,38.08 -3.8,13.75 -4.43,28.57 -1.26,43.41l83.44 -20.77 -60.91 -60.72zm-27.29 36.42c4.48,-16.19 13.07,-30.99 24.86,-42.91 0.58,-0.67 1.43,-1.1 2.39,-1.1 0.96,0 1.81,0.43 2.39,1.11l66.82 66.62c0.43,0.4 0.74,0.92 0.89,1.53 0.41,1.67 -0.61,3.36 -2.28,3.78l-91.89 22.87c-1.68,0.41 -3.37,-0.61 -3.78,-2.29 -4.22,-16.92 -3.74,-33.91 0.6,-49.61z"/>
   <path class="fil0" d="M46.54 420.46l241.69 -9.62 10.79 271.02c0.3,7.69 -4.94,14.49 -12.45,16.15 -0.92,0.21 -1.86,0.33 -2.8,0.37l-209.93 8.35c-7.68,0.31 -14.49,-4.93 -16.15,-12.45 -0.2,-0.92 -0.32,-1.85 -0.36,-2.79l-10.79 -271.03 0 0zm13.46 -61.18l209.93 -8.36c7.68,-0.3 14.49,4.94 16.15,12.46 0.2,0.91 0.32,1.85 0.36,2.79l1.78 44.66 -241.69 9.63 -1.78 -44.67c-0.3,-7.68 4.95,-14.49 12.46,-16.15 0.92,-0.2 1.85,-0.32 2.79,-0.36l0 0z"/>
   <path class="fil1" d="M285.23 414.08l-235.45 9.38 10.67 267.91c0.02,0.39 0.05,0.78 0.1,1.14 0.03,0.3 0.1,0.67 0.2,1.11 0.66,3.01 2.36,5.57 4.67,7.35 2.3,1.78 5.21,2.77 8.3,2.64l209.93 -8.35c0.38,-0.02 0.77,-0.05 1.14,-0.1 0.37,-0.05 0.74,-0.11 1.11,-0.19 3.01,-0.67 5.58,-2.37 7.35,-4.68 1.78,-2.3 2.77,-5.22 2.65,-8.3l-10.67 -267.91zm5.98 -6.48l10.93 274.14c0.18,4.6 -1.3,8.93 -3.95,12.36 -2.64,3.43 -6.45,5.97 -10.95,6.96 -0.54,0.12 -1.09,0.22 -1.64,0.29 -0.57,0.07 -1.15,0.12 -1.71,0.14l-209.92 8.36c-4.6,0.19 -8.93,-1.29 -12.37,-3.94 -3.43,-2.64 -5.96,-6.46 -6.95,-10.95l-0.01 -0.02c-0.11,-0.47 -0.2,-1.02 -0.28,-1.65 -0.08,-0.57 -0.12,-1.13 -0.15,-1.68l-10.66 -267.9 -0.14 0 0 -3.25 -1.78 -44.54c-0.18,-4.6 1.3,-8.94 3.95,-12.37 2.64,-3.43 6.46,-5.96 10.96,-6.95 0.54,-0.12 1.09,-0.22 1.64,-0.29 0.57,-0.07 1.14,-0.12 1.7,-0.15l209.93 -8.36c4.59,-0.18 8.93,1.3 12.36,3.95 3.43,2.64 5.96,6.46 6.96,10.96 0.11,0.45 0.2,1 0.28,1.65 0.08,0.56 0.13,1.13 0.15,1.69l1.65 41.55zm-21.16 -53.56l-210.05 8.37c-0.34,0.01 -0.68,0.04 -1.01,0.09 -0.38,0.04 -0.74,0.11 -1.11,0.19 -3.02,0.67 -5.58,2.37 -7.36,4.68 -1.78,2.3 -2.77,5.21 -2.65,8.3l1.66 41.55 235.45 -9.38 -1.66 -41.55c-0.01,-0.38 -0.05,-0.76 -0.09,-1.13 -0.04,-0.29 -0.11,-0.66 -0.21,-1.11l0.01 0c-0.66,-3.02 -2.37,-5.58 -4.67,-7.36 -2.31,-1.78 -5.22,-2.77 -8.31,-2.65z"/>
   <path class="fil1" d="M81.49 398.35c0.77,0.01 1.55,-0.06 2.3,-0.23 5.16,-1.14 8.42,-6.25 7.28,-11.41 -0.95,-4.3 -4.72,-7.4 -9.12,-7.51 -0.77,-0.01 -1.55,0.06 -2.3,0.23 -5.16,1.14 -8.42,6.25 -7.28,11.41 0.95,4.3 4.72,7.4 9.12,7.51l0 0zm33.05 -1.32c0.8,0.03 1.6,-0.04 2.38,-0.22 5.16,-1.14 8.42,-6.25 7.28,-11.41 -0.96,-4.34 -4.77,-7.44 -9.21,-7.51 -0.74,-0.01 -1.48,0.07 -2.2,0.23 -5.16,1.14 -8.42,6.25 -7.28,11.41 0.94,4.27 4.66,7.36 9.03,7.5l0 0zm33.06 -1.31c0.8,0.02 1.6,-0.05 2.38,-0.22 5.16,-1.15 8.42,-6.26 7.28,-11.42 -0.96,-4.33 -4.77,-7.44 -9.21,-7.5 -0.74,-0.01 -1.48,0.06 -2.2,0.22 -5.16,1.14 -8.42,6.26 -7.28,11.42 0.94,4.26 4.66,7.35 9.03,7.5z"/>
   <polygon class="fil1" points="90.99,532.73 85.49,532.95 87.33,579.11 92.83,578.9 "/>
   <polygon class="fil1" points="85.37,529.83 93.98,529.48 96.07,581.89 84.33,582.36 82.24,529.96 "/>
   <polygon class="fil1" points="83.53,483.67 92.14,483.32 94.23,535.72 82.49,536.2 80.41,483.79 "/>
   <polygon class="fil1" points="103.87,555.68 98.37,555.9 100.21,602.07 105.71,601.85 "/>
   <polygon class="fil1" points="98.25,552.78 106.86,552.44 108.95,604.84 97.21,605.32 95.13,552.9 "/>
   <polygon class="fil1" points="96.4,506.61 98.77,506.52 98.77,506.38 102.02,506.38 102.08,509.51 105.14,509.39 107.1,558.67 95.36,559.14 93.27,506.74 "/>
   <polygon class="fil1" points="116.69,576.64 111.19,576.86 113.02,623.03 118.53,622.81 "/>
   <polygon class="fil1" points="111.07,573.74 119.68,573.4 121.77,625.8 110.03,626.27 107.94,573.87 "/>
   <polygon class="fil1" points="109.22,527.57 117.84,527.22 119.93,579.63 108.19,580.1 106.1,527.69 "/>
   <polygon class="fil1" points="127.42,545.71 121.92,545.93 123.76,592.1 129.26,591.88 "/>
   <polygon class="fil1" points="121.8,542.81 130.42,542.47 132.5,594.88 120.77,595.35 118.68,542.94 "/>
   <polygon class="fil0" points="125.58,499.54 120.08,499.76 121.92,545.93 127.42,545.71 "/>
   <polygon class="fil1" points="140.48,572.97 134.98,573.19 136.82,619.36 142.32,619.14 "/>
   <polygon class="fil1" points="134.86,570.07 143.48,569.73 145.56,622.14 133.83,622.6 131.74,570.2 "/>
   <polygon class="fil0" points="138.64,526.8 133.14,527.02 134.98,573.19 140.48,572.97 "/>
   <polygon class="fil1" points="153.15,590.41 147.66,590.62 149.49,636.79 154.99,636.57 "/>
   <polygon class="fil1" points="147.53,587.51 156.15,587.16 158.23,639.57 146.5,640.04 144.41,587.63 "/>
   <polygon class="fil1" points="145.68,541.34 154.3,541 156.39,593.41 144.65,593.87 142.56,541.47 "/>
   <polygon class="fil1" points="165.79,607.2 160.29,607.42 162.13,653.59 167.63,653.37 "/>
   <polygon class="fil1" points="160.17,604.3 168.79,603.95 170.87,656.36 159.14,656.83 157.05,604.42 "/>
   <polygon class="fil1" points="158.33,558.13 166.95,557.79 169.03,610.19 157.3,610.66 155.21,558.25 "/>
   <polygon class="fil1" points="178.14,616.69 172.64,616.91 174.48,663.07 179.98,662.86 178.14,616.69 "/>
   <polygon class="fil1" points="172.52,613.79 181.13,613.44 183.22,665.86 171.48,666.32 169.4,613.92 "/>
   <polygon class="fil1" points="170.68,567.62 190.67,566.82 179.5,572.4 181.38,619.68 169.64,620.15 167.56,567.74 "/>
   <polygon class="fil1" points="189.14,592.01 183.63,592.22 185.47,638.39 190.97,638.17 "/>
   <polygon class="fil1" points="183.51,589.1 192.13,588.76 194.21,641.16 182.48,641.64 180.39,589.23 "/>
   <polygon class="fil1" points="181.67,542.93 190.29,542.59 192.37,595 180.64,595.47 178.55,543.06 "/>
   <polygon class="fil1" points="201.54,602.82 196.04,603.03 197.87,649.2 203.37,648.98 "/>
   <polygon class="fil1" points="195.92,599.91 204.53,599.58 206.62,651.98 194.88,652.45 192.79,600.04 "/>
   <path class="fil1" d="M194.07 553.75c2.94,-0.12 5.7,-0.23 8.62,-0.23l2.09 52.29 -11.74 0.47 -2.09 -52.4 3.12 -0.13z"/>
   <polygon class="fil1" points="212.17,569.06 206.67,569.28 208.51,615.45 214.01,615.23 "/>
   <polygon class="fil1" points="206.55,566.16 215.17,565.82 217.25,618.23 205.51,618.69 203.43,566.29 "/>
   <polygon class="fil1" points="204.71,519.99 213.32,519.65 215.41,572.06 203.68,572.53 201.59,520.12 "/>
   <polygon class="fil1" points="223.46,551.93 217.96,552.15 219.8,598.31 225.3,598.1 "/>
   <polygon class="fil1" points="217.84,549.03 226.46,548.68 228.54,601.09 216.81,601.56 214.72,549.16 "/>
   <polygon class="fil1" points="216,502.86 224.62,502.52 226.7,554.92 214.97,555.39 212.88,502.98 "/>
   <polygon class="fil1" points="234.99,540.7 229.49,540.92 231.33,587.09 236.83,586.87 "/>
   <polygon class="fil1" points="229.37,537.8 237.99,537.46 240.07,589.87 228.33,590.33 226.25,537.93 "/>
   <polygon class="fil1" points="227.53,491.64 236.15,491.29 238.23,543.7 226.5,544.17 224.41,491.76 "/>
   <polygon class="fil1" points="247.51,554.75 242.01,554.96 243.85,601.13 249.35,600.91 "/>
   <polygon class="fil1" points="241.89,551.85 250.51,551.5 252.59,603.91 240.85,604.38 238.77,551.97 "/>
   <polygon class="fil1" points="240.05,505.68 248.66,505.34 250.75,557.74 239.01,558.21 236.93,505.81 "/>
   <polygon class="fil1" points="257.79,511.75 252.29,511.98 254.13,558.14 259.63,557.92 "/>
   <polygon class="fil1" points="252.17,508.86 260.78,508.51 262.87,560.92 251.13,561.39 249.05,508.98 "/>
   <polygon class="fil1" points="250.33,462.68 258.94,462.34 261.03,514.75 249.29,515.22 247.21,462.81 "/>
   <polygon class="fil2" points="472.32,690.69 475.35,698.49 483.18,701.46 475.38,704.51 472.41,712.32 469.36,704.53 461.55,701.55 469.36,698.52 "/>
   <polygon class="fil2" points="856.72,428.91 859.75,436.71 867.58,439.68 859.77,442.73 856.81,450.54 853.76,442.76 845.95,439.77 853.75,436.74 "/>
   <polygon class="fil2" points="656.94,33.49 659.97,41.29 667.8,44.26 660,47.31 657.03,55.12 653.98,47.34 646.17,44.35 653.98,41.32 "/>
   <polygon class="fil2" points="136.14,51.4 139.17,59.2 147,62.17 139.2,65.22 136.24,73.03 133.18,65.25 125.38,62.26 133.18,59.23 "/>
   <polygon class="fil2" points="10.77,332.47 13.8,340.27 21.62,343.23 13.82,346.29 10.86,354.09 7.81,346.31 0,343.33 7.8,340.3 "/>
   <polygon class="fil3" points="89.15,486.56 83.65,486.79 85.49,532.95 90.99,532.73 "/>
   <polygon class="fil3" points="102.02,509.51 96.52,509.73 98.36,555.9 103.86,555.68 102.02,509.51 "/>
   <polygon class="fil3" points="114.85,530.47 109.34,530.68 111.18,576.85 116.68,576.63 "/>
   <polygon class="fil3" points="119.96,496.64 128.58,496.3 130.66,548.71 118.92,549.17 116.84,496.77 "/>
   <polygon class="fil3" points="133.02,523.9 141.63,523.56 143.72,575.96 131.98,576.44 129.9,524.03 "/>
   <polygon class="fil3" points="151.3,544.24 145.8,544.46 147.64,590.63 153.14,590.41 151.3,544.24 "/>
   <polygon class="fil3" points="163.95,561.03 158.45,561.25 160.29,607.42 165.79,607.2 "/>
   <polygon class="fil3" points="176.3,570.52 170.8,570.74 172.64,616.9 178.14,616.69 176.3,570.52 "/>
   <polygon class="fil3" points="187.29,545.83 181.79,546.05 183.63,592.22 189.13,592 "/>
   <polygon class="fil3" points="199.69,556.65 194.2,556.87 196.03,603.03 201.53,602.82 199.69,556.65 "/>
   <polygon class="fil3" points="210.33,522.89 204.83,523.11 206.67,569.28 212.17,569.06 "/>
   <polygon class="fil3" points="221.62,505.76 216.12,505.98 217.96,552.15 223.46,551.93 "/>
   <polygon class="fil3" points="233.15,494.53 227.65,494.75 229.49,540.93 234.99,540.7 "/>
   <polygon class="fil3" points="245.67,508.58 240.17,508.8 242.01,554.97 247.51,554.75 "/>
   <polygon class="fil3" points="255.95,465.59 250.45,465.8 252.29,511.97 257.79,511.75 "/>
  </g>
 </g>
</svg>
