<svg width="525" height="447" viewBox="0 0 525 447" fill="none" xmlns="http://www.w3.org/2000/svg">
<mask id="mask0_477_1911" style="mask-type:luminance" maskUnits="userSpaceOnUse" x="40" y="0" width="445" height="447">
<path d="M485 0H40V447H485V0Z" fill="white"/>
</mask>
<g mask="url(#mask0_477_1911)">
<path d="M327.172 0.542481L458.781 0.56935C471.139 0.56935 481.155 10.589 481.153 22.9413L481.094 320.34C481.092 332.695 471.071 342.708 458.715 342.705L327.107 342.678C314.748 342.676 304.732 332.659 304.734 320.306L304.793 22.9071C304.793 10.5523 314.816 0.540038 327.172 0.542481Z" fill="black"/>
<path d="M484.997 38.9673H473.98V68.1322H484.997V38.9673Z" fill="black"/>
<path d="M479.268 39.5024H473.98V67.6024H479.268V39.5024Z" fill="white"/>
<path d="M479.262 68.1445H473.975C473.677 68.1445 473.436 67.9002 473.436 67.6022L473.44 39.5023C473.44 39.3582 473.497 39.2214 473.599 39.1188C473.702 39.0162 473.838 38.96 473.982 38.96H479.27C479.414 38.96 479.55 39.0187 479.653 39.1188C479.755 39.219 479.811 39.3582 479.811 39.5023L479.806 67.6022C479.806 67.9002 479.565 68.1421 479.267 68.1421L479.262 68.1445ZM474.516 67.0624H478.723L478.728 40.0446H474.521L474.516 67.0624Z" fill="black"/>
<path d="M315.421 0.54004L447.029 0.566907C459.387 0.56935 469.403 10.5865 469.401 22.9389L469.342 320.338C469.342 332.693 459.319 342.705 446.963 342.703L315.355 342.676C302.996 342.673 292.98 332.656 292.982 320.304L293.041 22.9047C293.043 10.5499 303.064 0.537597 315.421 0.54004Z" fill="#DFE3E8"/>
<path d="M469.427 46.1758H293.27V292.165H469.427V46.1758Z" fill="white"/>
<path d="M469.402 292.722L293.245 292.688C293.101 292.688 292.964 292.631 292.862 292.529C292.759 292.426 292.703 292.289 292.703 292.145L292.752 46.156C292.752 46.0119 292.808 45.8751 292.911 45.7725C293.013 45.6699 293.15 45.6138 293.294 45.6138L469.451 45.648C469.749 45.648 469.99 45.8898 469.99 46.1878L469.941 292.177C469.941 292.475 469.7 292.717 469.402 292.717V292.722ZM293.784 291.608L468.86 291.642L468.909 46.7349L293.833 46.7007L293.784 291.608Z" fill="black"/>
<path d="M447.186 343.245H447.182L315.203 343.218C302.244 343.215 292.474 332.763 292.477 318.909L292.535 21.1385C292.538 9.87797 303.159 0 315.266 0H315.271L447.25 0.0268689C453.233 0.0268689 458.937 2.31805 463.31 6.47784C467.546 10.5057 469.976 15.8624 469.973 21.1727L469.915 318.943C469.915 325.694 467.553 331.887 463.263 336.383C459.045 340.807 453.335 343.242 447.184 343.242L447.186 343.245ZM315.266 1.08208C303.735 1.08208 293.618 10.4544 293.616 21.1385L293.557 318.909C293.555 332.148 302.861 342.133 315.203 342.136L447.182 342.163H447.186C453.04 342.163 458.471 339.845 462.483 335.638C466.579 331.344 468.834 325.416 468.836 318.943L468.895 21.1727C468.895 16.158 466.589 11.0871 462.566 7.26192C458.393 3.2951 452.955 1.10895 447.247 1.10895L315.268 1.08208H315.264H315.266Z" fill="black"/>
<path d="M387.179 11.6977L349.418 11.6904C349.12 11.6904 348.879 11.4486 348.879 11.1506C348.879 10.8526 349.12 10.6108 349.418 10.6108L387.179 10.6181C387.477 10.6181 387.719 10.8599 387.719 11.1579C387.719 11.4559 387.477 11.6977 387.179 11.6977Z" fill="black"/>
<path d="M393.859 14.4774C392.029 14.4774 390.541 12.9874 390.541 11.1603C390.541 9.33082 392.029 7.84326 393.859 7.84326C394.745 7.84326 395.58 8.18767 396.204 8.81543C396.831 9.44318 397.175 10.2761 397.175 11.1628C397.175 12.0495 396.829 12.8824 396.202 13.5077C395.575 14.133 394.743 14.4799 393.857 14.4799L393.859 14.4774ZM393.857 8.9229C392.622 8.9229 391.619 9.92682 391.619 11.1579C391.619 12.3914 392.622 13.3953 393.857 13.3953C394.455 13.3953 395.016 13.1633 395.438 12.7407C395.86 12.3181 396.092 11.7563 396.092 11.1603C396.092 10.5643 395.86 10.0001 395.438 9.57997C395.016 9.15739 394.452 8.92534 393.855 8.92534L393.857 8.9229Z" fill="black"/>
<mask id="mask1_477_1911" style="mask-type:luminance" maskUnits="userSpaceOnUse" x="293" y="46" width="177" height="247">
<path d="M469.427 46.1753H293.27V292.165H469.427V46.1753Z" fill="white"/>
</mask>
<g mask="url(#mask1_477_1911)">
<path d="M414.425 261.263L378.976 237.359L349.816 320.321C346.83 328.821 347.63 338.193 352.017 346.061L386.714 408.279L378.898 423.534L417.55 398.998L381.777 326.813L414.427 261.263H414.425Z" fill="black"/>
<path d="M396.477 247.443L377.43 214.738L304.67 264.028C297.215 269.077 292.287 277.089 291.135 286.024L280.533 416.567L310.643 376.989L326.493 288.288L396.477 247.44V247.443Z" fill="black"/>
<path d="M310.386 152.253L316.888 133.062L377.485 153.633L363.629 180.07L315.985 163.607C311.308 162.019 308.802 156.936 310.388 152.253H310.386Z" fill="white"/>
<path d="M368.108 181.846C368.049 181.846 367.991 181.836 367.934 181.816C367.651 181.721 367.5 181.413 367.595 181.13L376.796 153.973L317.224 133.748L310.897 152.427C309.409 156.819 311.768 161.606 316.155 163.094L353.551 175.788C353.834 175.883 353.985 176.191 353.89 176.474C353.795 176.758 353.487 176.909 353.204 176.814L315.809 164.12C310.858 162.437 308.194 157.036 309.875 152.08L316.377 132.888C316.473 132.607 316.78 132.454 317.063 132.549L377.66 153.121C377.943 153.216 378.095 153.524 377.999 153.807L368.625 181.477C368.549 181.702 368.339 181.843 368.113 181.843L368.108 181.846Z" fill="black"/>
<path d="M360.036 57.9876L359.626 57.8166C358.433 57.3183 357.054 57.7751 356.395 58.8889L355.749 59.9784C356.535 58.5226 355.903 56.6881 354.358 56.0433C353.065 55.5035 351.569 55.9993 350.854 57.206L344.964 67.1401C344.159 68.4982 343.642 70.0053 343.442 71.5711L343.137 73.8305L343.1 73.8109L343.403 71.4343C343.607 69.8295 344.144 68.2833 344.979 66.8959L348.453 61.1655C349.31 59.7536 348.709 57.9119 347.187 57.2768L346.967 57.1864C345.73 56.671 344.3 57.1425 343.615 58.2978L339.379 65.4254C338.688 66.5905 338.21 67.868 337.961 69.1993C337.988 68.6399 338.054 68.0805 338.164 67.5261L339.477 60.9505C339.801 59.3311 338.608 57.8044 336.961 57.7287L336.724 57.7165C335.385 57.653 334.204 58.5861 333.952 59.9051L332.401 68.0537C332.108 69.6047 332.135 71.1973 332.479 72.7386L335.895 87.9635L331.949 100.971L343.739 108.799L354.861 99.3412C356.583 97.8757 358.055 96.1389 359.216 94.1995L365.826 83.154C366.687 81.7128 366.221 79.8442 364.782 78.982L364.545 78.8403C363.105 77.978 361.239 78.4446 360.378 79.8857L353.955 90.6162L353.282 89.3753C352.987 88.8331 352.833 88.2297 352.821 87.6166L354.378 75.3938C354.614 73.53 355.239 71.7371 356.208 70.1275L361.261 61.7322C362.078 60.3741 361.5 58.6032 360.036 57.9925V57.9876ZM355.173 60.9481L350.405 68.9868C350.051 69.5828 349.756 70.2105 349.517 70.8578C349.783 70.0762 350.132 69.3214 350.559 68.6106L355.171 60.9481H355.173Z" fill="#B9FF66"/>
<path d="M353.901 91.1025C353.711 91.1025 353.523 90.9999 353.425 90.8191L353.291 90.57C352.554 89.2119 352.269 87.6803 352.464 86.1464L353.845 75.3158C354.094 73.3641 354.733 71.5224 355.748 69.8394L360.802 61.4441C361.109 60.9312 361.18 60.3108 360.994 59.7416C360.809 59.1725 360.384 58.7133 359.833 58.4837L359.423 58.3127C358.486 57.9219 357.383 58.2858 356.863 59.1627L350.876 69.2605C350.105 70.56 349.617 71.9817 349.424 73.4839L348.55 80.3036C348.514 80.5992 348.245 80.8068 347.945 80.7726C347.65 80.7335 347.44 80.4648 347.477 80.1668L348.35 73.347C348.563 71.6983 349.099 70.1374 349.946 68.7109L355.934 58.6131C356.727 57.277 358.405 56.7201 359.838 57.3185L360.248 57.4895C361.089 57.8413 361.736 58.5399 362.022 59.4094C362.307 60.279 362.2 61.2243 361.729 62.0084L356.676 70.4037C355.741 71.9572 355.151 73.6573 354.919 75.4599L353.538 86.2881C353.372 87.5973 353.616 88.9017 354.243 90.0595L354.377 90.3086C354.519 90.57 354.423 90.8997 354.16 91.0414C354.077 91.0854 353.989 91.1074 353.904 91.1074L353.901 91.1025Z" fill="black"/>
<path d="M342.691 77.9488C342.669 77.9488 342.645 77.9488 342.623 77.9439C342.328 77.9048 342.118 77.6361 342.155 77.3381L342.901 71.4978C343.111 69.849 343.648 68.2906 344.497 66.8617L350.387 56.9276C351.236 55.4986 353.032 54.9026 354.562 55.5426C355.435 55.9065 356.119 56.6271 356.433 57.5211C356.748 58.4151 356.672 59.4044 356.224 60.2373C356.082 60.4987 355.755 60.5964 355.492 60.4571C355.228 60.3155 355.13 59.9857 355.272 59.7244C355.577 59.1601 355.628 58.4908 355.413 57.8826C355.196 57.2671 354.745 56.7908 354.145 56.5416C353.105 56.1093 351.888 56.5099 351.314 57.482L345.424 67.4162C344.653 68.7181 344.163 70.1373 343.972 71.6395L343.226 77.4798C343.192 77.7534 342.957 77.9512 342.691 77.9512V77.9488Z" fill="black"/>
<path d="M343.739 109.334C343.634 109.334 343.531 109.305 343.441 109.244L331.651 101.415C331.456 101.286 331.366 101.041 331.432 100.814L335.248 87.536L331.954 72.8485C331.59 71.2266 331.563 69.5779 331.871 67.9438L333.423 59.7952C333.723 58.2221 335.162 57.1058 336.751 57.1669L336.987 57.1791C337.929 57.2231 338.803 57.675 339.383 58.42C339.964 59.165 340.191 60.1225 340.008 61.0482L338.612 68.7254C338.559 69.0209 338.278 69.2188 337.985 69.1602C337.693 69.1064 337.497 68.8255 337.551 68.5324L338.947 60.8455C339.071 60.2202 338.92 59.5802 338.534 59.0868C338.146 58.5909 337.566 58.2905 336.939 58.2612L336.702 58.249C335.648 58.2026 334.686 58.9525 334.486 59.9979L332.935 68.1441C332.654 69.6292 332.678 71.1314 333.01 72.6092L336.336 87.431C336.355 87.5189 336.353 87.6118 336.329 87.6997L332.583 100.729L343.705 108.113L354.516 98.9187C356.197 97.4897 357.625 95.8043 358.757 93.9113L365.367 82.8657C365.708 82.2917 365.808 81.62 365.647 80.9727C365.486 80.3254 365.081 79.7783 364.508 79.4363L364.269 79.2922C363.088 78.5838 361.551 78.9698 360.843 80.152L352.581 93.9577C352.43 94.2142 352.098 94.2972 351.84 94.1433C351.583 93.9894 351.5 93.6572 351.654 93.4008L359.916 79.5951C360.929 77.8999 363.129 77.3479 364.825 78.3615L365.062 78.5057C365.882 78.9966 366.46 79.7783 366.692 80.7065C366.924 81.6347 366.782 82.5971 366.289 83.4178L359.679 94.4633C358.486 96.4589 356.983 98.2323 355.212 99.7394L344.09 109.197C343.99 109.283 343.866 109.327 343.741 109.327L343.739 109.334Z" fill="black"/>
<path d="M337.331 75.4941C337.311 75.4941 337.294 75.4941 337.275 75.4917C336.977 75.4599 336.762 75.1961 336.792 74.8981L337.316 69.7931C337.529 68.1321 338.065 66.5737 338.912 65.1423L343.15 58.0123C343.968 56.6371 345.698 56.0655 347.174 56.6811L347.393 56.7714C348.265 57.1354 348.931 57.8584 349.223 58.7573C349.516 59.6562 349.402 60.6332 348.914 61.4393L348.65 61.8765C348.494 62.133 348.162 62.2136 347.908 62.0597C347.652 61.9034 347.572 61.5712 347.725 61.3171L347.989 60.8799C348.316 60.3425 348.391 59.6904 348.196 59.0919C348.001 58.4935 347.557 58.0123 346.979 57.7705L346.759 57.6801C345.773 57.2722 344.624 57.6508 344.08 58.5668L339.844 65.6968C339.073 66.9987 338.585 68.4179 338.392 69.9176L337.87 75.0105C337.841 75.289 337.607 75.4966 337.333 75.4966L337.331 75.4941Z" fill="black"/>
<path d="M319.149 164.677L310.068 161.65C300.164 158.35 295.811 146.758 301.091 137.744L326.338 94.6416L351.516 109.42L319.152 164.677H319.149Z" fill="white"/>
<path d="M319.149 165.216C319.093 165.216 319.035 165.207 318.979 165.19L309.897 162.163C305.022 160.539 301.189 156.846 299.381 152.029C297.573 147.214 298.026 141.907 300.625 137.468L325.872 94.3658C326.02 94.1094 326.352 94.0214 326.611 94.1729L351.789 108.951C351.914 109.024 352.001 109.141 352.038 109.28C352.075 109.42 352.053 109.566 351.982 109.691L328.848 149.188C328.697 149.444 328.368 149.532 328.109 149.381C327.853 149.23 327.765 148.9 327.916 148.641L350.776 109.608L326.53 95.3771L301.557 138.013C299.124 142.168 298.7 147.136 300.391 151.645C302.084 156.154 305.673 159.611 310.236 161.132L319.318 164.159C319.601 164.254 319.754 164.559 319.659 164.843C319.584 165.07 319.374 165.214 319.147 165.214L319.149 165.216Z" fill="black"/>
<path d="M376.456 152.402L408.239 149.921L411.46 152.361L423.511 293.396L312.799 258.434L363.282 206.8L357.939 189.75L376.456 152.402Z" fill="white"/>
<path d="M423.511 293.935C423.457 293.935 423.401 293.928 423.347 293.911L312.635 258.95C312.457 258.893 312.321 258.747 312.274 258.566C312.228 258.383 312.282 258.19 312.411 258.056L362.667 206.656L357.419 189.914C357.329 189.628 357.487 189.325 357.773 189.235C358.058 189.144 358.361 189.306 358.451 189.589L363.797 206.638C363.856 206.829 363.807 207.037 363.668 207.178L313.799 258.183L422.903 292.636L410.94 152.647L408.073 150.475L376.495 152.94C376.202 152.962 375.938 152.74 375.914 152.444C375.89 152.146 376.114 151.887 376.409 151.863L408.193 149.381C408.329 149.374 408.456 149.408 408.561 149.488L411.782 151.929C411.904 152.021 411.982 152.161 411.994 152.315L424.045 293.349C424.06 293.53 423.987 293.703 423.845 293.818C423.748 293.896 423.628 293.938 423.508 293.938L423.511 293.935Z" fill="black"/>
<path d="M453.533 196.299L432.356 216.404L388.324 169.928L409.584 150.402L453.533 196.299Z" fill="white"/>
<path d="M432.355 216.946C432.211 216.946 432.07 216.89 431.962 216.778L403.305 186.528C403.1 186.311 403.11 185.969 403.324 185.764C403.541 185.559 403.883 185.568 404.088 185.783L432.372 215.639L452.766 196.279L411.564 152.788C410.115 151.259 408.082 150.478 405.981 150.639L382.418 152.478C382.126 152.5 381.862 152.278 381.838 151.982C381.813 151.684 382.038 151.423 382.333 151.401L405.896 149.562C408.321 149.374 410.674 150.277 412.347 152.043L453.922 195.927C454.02 196.033 454.074 196.172 454.071 196.313C454.066 196.458 454.008 196.592 453.903 196.692L432.726 216.797C432.621 216.897 432.487 216.946 432.355 216.946Z" fill="black"/>
<path d="M357.746 189.366C354.406 188.682 351.783 185.854 351.505 182.283C351.329 180.021 352.127 177.908 353.549 176.359L357.746 189.366Z" fill="white"/>
<path d="M357.745 189.909C357.709 189.909 357.672 189.904 357.636 189.897C353.998 189.152 351.253 186.037 350.965 182.327C350.784 180.014 351.58 177.706 353.148 175.996C353.351 175.776 353.693 175.761 353.912 175.964C354.132 176.167 354.146 176.509 353.944 176.728C352.578 178.218 351.885 180.229 352.041 182.244C352.292 185.478 354.683 188.189 357.853 188.839C358.146 188.898 358.333 189.186 358.272 189.477C358.221 189.733 357.994 189.909 357.743 189.909H357.745Z" fill="black"/>
<path d="M385.009 192.943C383.75 192.943 382.506 192.659 381.371 192.112C381.103 191.983 380.991 191.66 381.12 191.389C381.249 191.12 381.574 191.008 381.842 191.138C382.999 191.697 384.29 191.939 385.58 191.839C388.513 191.609 391.012 189.657 391.944 186.863C392.039 186.58 392.344 186.426 392.627 186.521C392.91 186.616 393.064 186.922 392.969 187.205C391.9 190.412 389.033 192.654 385.666 192.918C385.449 192.935 385.229 192.943 385.012 192.943H385.009Z" fill="black"/>
<path d="M418.079 224.228C418.026 224.228 417.972 224.22 417.921 224.203L363.123 207.317C362.858 207.234 362.699 206.968 362.753 206.697C362.806 206.426 363.062 206.238 363.331 206.262L416.576 211.15C416.828 211.174 417.03 211.367 417.064 211.619L418.616 223.617C418.64 223.8 418.57 223.981 418.428 224.101C418.331 224.184 418.206 224.228 418.079 224.228ZM368.406 207.813L417.435 222.921L416.047 212.186L368.404 207.813H368.406Z" fill="black"/>
<path d="M445.088 164.579L394.439 116.254C391.387 113.201 387.073 111.447 382.434 111.809C374.014 112.466 367.719 119.833 368.375 128.265C368.873 134.642 373.289 140.876 379.013 142.725L408.122 180.351L445.086 164.579H445.088Z" fill="black"/>
<path d="M385.812 151.672L375.144 169.863L372.219 132.315L384.231 131.377L385.812 151.672Z" fill="#B9FF66"/>
<path d="M375.144 170.402C375.105 170.402 375.064 170.398 375.022 170.388C374.793 170.334 374.625 170.139 374.605 169.904L371.68 132.356C371.667 132.212 371.714 132.07 371.809 131.963C371.902 131.853 372.036 131.787 372.177 131.775L384.189 130.837C384.485 130.812 384.746 131.037 384.77 131.333L386.351 151.626C386.359 151.736 386.334 151.846 386.278 151.941L375.61 170.131C375.513 170.3 375.332 170.398 375.144 170.398V170.402ZM372.8 132.813L375.549 168.104L385.261 151.543L383.736 131.958L372.8 132.81V132.813Z" fill="black"/>
<path d="M384.587 135.937L384.231 131.377L372.219 132.314L373.002 142.378C374.102 142.51 376.284 142.613 378.702 141.601C382.486 140.016 384.155 136.828 384.585 135.937H384.587Z" fill="black"/>
<path d="M377.154 139.107C382.491 138.69 386.444 133.566 385.984 127.662C385.524 121.758 380.825 117.309 375.488 117.726C370.152 118.142 366.199 123.267 366.659 129.171C367.119 135.075 371.818 139.524 377.154 139.107Z" fill="#B9FF66"/>
<path d="M376.458 139.679C373.986 139.679 371.614 138.709 369.709 136.907C367.63 134.938 366.356 132.207 366.122 129.217C365.639 123.025 369.823 117.632 375.448 117.192C378.18 116.982 380.842 117.954 382.936 119.935C385.015 121.904 386.288 124.635 386.523 127.625C387.006 133.817 382.821 139.21 377.197 139.65C376.951 139.669 376.702 139.679 376.455 139.679H376.458ZM376.184 118.245C375.967 118.245 375.75 118.252 375.531 118.269C370.499 118.663 366.761 123.536 367.198 129.132C367.41 131.853 368.564 134.335 370.451 136.12C372.32 137.891 374.689 138.758 377.112 138.57C382.143 138.177 385.881 133.304 385.444 127.708C385.232 124.987 384.078 122.505 382.192 120.719C380.491 119.11 378.378 118.243 376.182 118.243L376.184 118.245Z" fill="black"/>
<path d="M380.886 132.788C380.019 133.716 378.86 134.391 377.516 134.635C374.515 135.18 371.636 133.426 370.662 130.629L380.886 132.788Z" fill="white"/>
<path d="M360.313 194.894C360.217 194.894 360.12 194.87 360.032 194.816C359.778 194.66 359.698 194.328 359.851 194.074L385.891 151.347C386.047 151.091 386.379 151.013 386.633 151.167C386.886 151.323 386.967 151.655 386.813 151.909L360.774 194.636C360.671 194.804 360.493 194.894 360.313 194.894Z" fill="black"/>
<path d="M427.966 153.565L426.838 147.529C426.838 147.529 421.219 146.577 420.38 140.382C420.184 138.946 420.043 135.959 419.953 133.436C419.85 130.565 419.367 127.725 418.523 124.979L417.554 121.836C417.066 120.255 417.91 118.572 419.467 118.018L419.799 117.9C421.378 117.339 423.112 118.142 423.71 119.708L427.556 129.801L431.613 126.489C433.692 124.791 435.259 122.546 436.135 120.008L439.878 109.825C440.5 108.132 442.274 107.16 444.033 107.544L444.333 107.61L445.799 101.953C446.285 100.301 447.981 99.3242 449.652 99.7346C451.292 100.135 452.343 101.74 452.056 103.406L444.997 144.413L446.143 151.487L427.966 153.565Z" fill="#B9FF66"/>
<path d="M427.965 154.105C427.709 154.105 427.482 153.922 427.436 153.663L426.374 147.972C425.042 147.613 420.599 146.005 419.845 140.453C419.642 138.958 419.498 135.822 419.415 133.453C419.313 130.636 418.842 127.837 418.007 125.138L417.039 121.994C416.463 120.131 417.451 118.159 419.288 117.507L419.62 117.39C421.46 116.735 423.522 117.688 424.217 119.515L427.797 128.909L431.274 126.071C433.277 124.435 434.782 122.278 435.627 119.833L439.374 109.64C440.063 107.771 442 106.655 443.945 106.977L445.282 101.816C445.855 99.8666 447.827 98.7259 449.786 99.2071C451.694 99.6737 452.926 101.559 452.594 103.496L445.55 144.415L446.682 151.399C446.707 151.545 446.668 151.694 446.58 151.811C446.489 151.929 446.358 152.007 446.211 152.022L428.033 154.1C428.014 154.103 427.992 154.105 427.972 154.105H427.965ZM420.818 118.264C420.54 118.264 420.257 118.311 419.979 118.409L419.647 118.526C418.359 118.983 417.666 120.365 418.068 121.674L419.037 124.818C419.898 127.61 420.386 130.502 420.491 133.414C420.611 136.775 420.757 139.159 420.913 140.307C421.692 146.04 426.874 146.985 426.928 146.992C427.15 147.031 427.328 147.202 427.37 147.427L428.404 152.967L445.518 151.008L444.462 144.496C444.452 144.437 444.452 144.376 444.462 144.317L451.521 103.311C451.757 101.931 450.879 100.587 449.52 100.255C448.124 99.913 446.719 100.724 446.314 102.102L444.852 107.742C444.779 108.023 444.496 108.196 444.215 108.135L443.915 108.069C442.424 107.742 440.907 108.577 440.38 110.008L436.637 120.192C435.729 122.818 434.109 125.14 431.95 126.904L427.892 130.216C427.758 130.326 427.58 130.365 427.411 130.319C427.243 130.275 427.106 130.15 427.045 129.989L423.2 119.896C422.817 118.89 421.841 118.26 420.813 118.26L420.818 118.264Z" fill="black"/>
<path d="M439.197 133.372L439.541 130.258C439.761 128.277 439.4 126.276 438.504 124.498L433.602 114.755C432.897 113.352 433.446 111.645 434.837 110.92C436.159 110.228 437.792 110.668 438.587 111.931L445.104 122.258C445.631 123.094 445.985 124.024 446.146 124.999L446.676 129.337L439.197 133.372Z" fill="#B9FF66"/>
<path d="M439.827 125.099L440.681 122.085C441.225 120.167 441.199 118.135 440.611 116.232L437.385 105.812C436.921 104.315 437.746 102.72 439.234 102.234C440.652 101.772 442.189 102.475 442.767 103.853L447.489 115.118C447.87 116.03 448.065 117.007 448.062 117.993L448.05 123.311L439.825 125.101L439.827 125.099Z" fill="#B9FF66"/>
<path d="M448.065 118.531C447.768 118.531 447.526 118.286 447.526 117.988C447.529 117.07 447.35 116.174 446.994 115.324L442.273 104.058C441.809 102.949 440.548 102.37 439.406 102.746C438.203 103.137 437.529 104.442 437.903 105.651L440.414 113.641C440.504 113.926 440.345 114.229 440.06 114.32C439.774 114.41 439.472 114.249 439.381 113.965L436.871 105.973C436.322 104.2 437.307 102.292 439.069 101.718C440.741 101.173 442.585 102.016 443.266 103.64L447.987 114.906C448.4 115.89 448.607 116.928 448.605 117.991C448.605 118.289 448.363 118.531 448.065 118.531Z" fill="black"/>
<path d="M438.357 137.114C438.325 137.114 438.291 137.112 438.257 137.104C437.964 137.051 437.772 136.767 437.825 136.474L439.009 130.158C439.211 128.316 438.872 126.43 438.02 124.74L433.118 114.996C432.286 113.34 432.943 111.296 434.585 110.438C436.147 109.625 438.103 110.153 439.043 111.64L444.962 120.47C446.311 122.483 446.653 124.654 447.017 126.955L447.039 127.102C447.085 127.397 446.885 127.673 446.59 127.72C446.294 127.771 446.019 127.566 445.972 127.27L445.948 127.124C445.604 124.945 445.279 122.886 444.064 121.073L438.135 112.229C437.486 111.198 436.149 110.836 435.083 111.396C433.963 111.982 433.511 113.379 434.08 114.51L438.982 124.251C439.926 126.13 440.304 128.225 440.072 130.314L438.884 136.67C438.835 136.929 438.608 137.112 438.355 137.112L438.357 137.114Z" fill="black"/>
<path d="M429.215 134.794C428.995 134.794 428.79 134.659 428.71 134.442L427.048 129.989C426.943 129.708 427.085 129.398 427.365 129.293C427.646 129.188 427.956 129.33 428.061 129.611L429.723 134.063C429.827 134.344 429.686 134.655 429.405 134.76C429.342 134.784 429.278 134.794 429.217 134.794H429.215Z" fill="black"/>
<path d="M432.188 216.311L427.213 152.449L456.31 150.177L460.465 203.512C461.666 218.923 442.951 227.394 432.188 216.311Z" fill="white"/>
<path d="M443.863 221.927C439.427 221.927 435.145 220.132 431.8 216.69C431.593 216.475 431.598 216.133 431.81 215.926C432.025 215.718 432.366 215.723 432.574 215.935C438.332 221.864 445.654 221.59 450.59 219.355C455.524 217.122 460.568 211.797 459.926 203.556L455.812 150.761L427.791 152.95L431.3 197.977C431.324 198.275 431.1 198.534 430.805 198.558C430.512 198.58 430.248 198.361 430.224 198.063L426.674 152.495C426.649 152.197 426.874 151.939 427.169 151.914L456.268 149.643C456.417 149.633 456.554 149.677 456.661 149.772C456.771 149.865 456.837 149.999 456.849 150.141L461.004 203.475C461.578 210.838 457.759 217.303 451.037 220.344C448.685 221.409 446.252 221.929 443.863 221.929V221.927Z" fill="black"/>
</g>
<path d="M40.2129 181.455V319.097C40.2129 387.525 95.6372 442.994 164.006 442.994H238.386C280.937 442.994 315.431 408.47 315.431 365.883V364.874C315.431 324.029 282.347 290.916 241.536 290.916H198.397C168.578 290.916 139.857 279.668 117.958 259.414C84.0229 228.031 40.2129 181.455 40.2129 181.455Z" fill="#B9FF66"/>
<path d="M223.995 409.833L222.651 431.912C221.555 431.912 220.975 432.33 220.975 433.426L220.133 440.92C220.133 442.017 221.021 442.909 222.119 442.909H294.601C296.324 442.909 297.722 441.511 297.722 439.784V434.675C297.722 432.95 296.324 431.55 294.601 431.55V426.626C294.601 422.53 291.588 419.059 287.535 418.487L276.209 416.89C274.41 416.636 272.705 415.932 271.248 414.845L263.965 409.833H223.998H223.995Z" fill="white"/>
<path d="M221.987 431.548C220.977 431.548 220.16 432.366 220.155 433.375L220.133 440.918C220.133 442.015 221.021 442.906 222.119 442.906H294.601C296.324 442.906 297.722 441.509 297.722 439.782V434.672C297.722 432.948 296.324 431.548 294.601 431.548H221.99H221.987Z" fill="black"/>
<path d="M294.618 432.088C294.618 432.088 294.596 432.088 294.586 432.088C294.289 432.071 294.062 431.814 294.079 431.516L294.311 427.498C294.545 423.451 291.7 419.941 287.696 419.332L274.09 417.266C274.015 417.259 273.939 417.29 273.895 417.354L266.88 428.033C266.717 428.282 266.383 428.353 266.131 428.187C265.882 428.023 265.814 427.686 265.978 427.437L272.995 416.758C273.268 416.343 273.766 416.123 274.254 416.196L287.862 418.263C292.42 418.954 295.658 422.95 295.392 427.559L295.16 431.577C295.143 431.865 294.906 432.088 294.621 432.088H294.618Z" fill="black"/>
<path d="M261.374 418.827C261.189 418.827 261.008 418.731 260.908 418.558C260.757 418.299 260.845 417.969 261.103 417.818L268.535 413.48C268.794 413.331 269.124 413.416 269.275 413.675C269.424 413.934 269.338 414.264 269.08 414.415L261.647 418.753C261.562 418.802 261.469 418.827 261.377 418.827H261.374Z" fill="black"/>
<path d="M236.054 431.912C233.695 422.371 226.907 418.331 223.393 416.838L222.071 431.584C221.668 431.584 236.054 431.912 236.054 431.912Z" fill="#020202"/>
<path d="M183.465 432.899H160.102C156.269 432.899 152.616 431.277 150.042 428.434L121.468 396.856L121.063 396.411C120.182 395.495 118.749 395.397 117.752 396.184L114.116 399.396C112.984 400.29 112.854 401.958 113.835 403.016L144.867 436.521C148.578 440.527 153.79 442.806 159.248 442.806H183.465C184.78 442.806 185.847 441.739 185.847 440.422V435.28C185.847 433.964 184.78 432.896 183.465 432.896V432.899Z" fill="white"/>
<path d="M137.099 385.068L121.471 396.856L150.045 428.434C152.617 431.277 156.272 432.899 160.105 432.899H183.468C183.468 420.407 174.98 417.725 170.58 417.173C168.775 416.946 167.108 416.094 165.864 414.765L137.099 385.07V385.068Z" fill="white"/>
<path d="M183.465 433.439C183.167 433.439 182.925 433.197 182.925 432.899C182.925 424.245 178.58 419.125 170.36 418.092C169.725 418.011 169.1 417.86 168.5 417.638C168.22 417.532 168.078 417.222 168.183 416.944C168.286 416.663 168.598 416.521 168.878 416.624C169.398 416.817 169.942 416.951 170.496 417.02C176.66 417.791 184.009 421.174 184.009 432.899C184.009 433.197 183.767 433.439 183.47 433.439H183.465Z" fill="black"/>
<path d="M183.465 432.899H160.102C156.269 432.899 152.616 431.277 150.042 428.434L121.468 396.856L121.063 396.411C120.182 395.495 118.749 395.397 117.752 396.184L114.116 399.396C112.984 400.29 112.854 401.958 113.835 403.016L144.867 436.521C148.578 440.527 153.79 442.806 159.248 442.806H183.465C184.78 442.806 185.847 441.739 185.847 440.422V435.28C185.847 433.964 184.78 432.896 183.465 432.896V432.899Z" fill="#020202"/>
<path d="M129.689 405.937C132.482 402.994 134.2 399.017 134.2 394.635C134.2 392.364 133.739 390.199 132.905 388.231L121.471 396.855L129.689 405.937Z" fill="#020202"/>
<path d="M157.218 426.47C157.057 426.47 156.896 426.397 156.789 426.257C156.608 426.02 156.652 425.681 156.889 425.5L168.315 416.734C168.552 416.553 168.891 416.597 169.072 416.834C169.252 417.071 169.208 417.41 168.972 417.591L157.545 426.358C157.448 426.433 157.33 426.47 157.216 426.47H157.218Z" fill="black"/>
<path d="M154.239 418.925C154.029 418.925 153.826 418.8 153.741 418.593C153.626 418.317 153.756 417.999 154.029 417.884L160.873 415.004C161.149 414.89 161.466 415.019 161.581 415.293C161.695 415.569 161.566 415.886 161.293 416.001L154.449 418.881C154.38 418.91 154.31 418.922 154.239 418.922V418.925Z" fill="black"/>
<path d="M203.382 325.135L137.098 385.067L165.863 414.765L238.567 345.624L223.39 329.757L203.382 325.135Z" fill="black"/>
<path d="M134.381 287.7L134.452 303.43C134.52 318.298 146.581 330.314 161.436 330.314H220.42V410.122H268.91L268.759 314.664C268.734 299.766 256.661 287.7 241.775 287.7H134.379H134.381Z" fill="black"/>
<path d="M220.423 330.959C220.255 330.959 220.091 330.88 219.986 330.736C219.811 330.494 219.864 330.157 220.106 329.981L233.384 320.345C233.626 320.169 233.962 320.223 234.138 320.465C234.314 320.707 234.26 321.044 234.019 321.22L220.74 330.856C220.645 330.927 220.533 330.959 220.423 330.959Z" fill="white"/>
<path d="M268.913 410.661H220.423C220.125 410.661 219.884 410.419 219.884 410.121V330.853H161.439C146.33 330.853 133.984 318.552 133.915 303.433L133.859 287.338C133.859 287.04 134.098 286.796 134.399 286.796C134.696 286.796 134.938 287.038 134.938 287.336L134.994 303.43C135.06 317.956 146.923 329.774 161.439 329.774H220.423C220.72 329.774 220.962 330.016 220.962 330.314V409.582H268.371C268.27 346.305 268.22 314.664 268.22 314.664C268.21 308.611 266.231 302.751 262.649 298.166C258.994 293.486 253.311 290.15 246.648 288.77C242.961 288.005 239.096 287.89 235.8 287.878C235.502 287.878 235.26 287.634 235.26 287.336C235.26 287.038 235.502 286.796 235.8 286.796C239.147 286.808 243.081 286.925 246.863 287.709C253.775 289.141 259.682 292.619 263.496 297.499C267.224 302.275 269.284 308.369 269.293 314.664C269.293 314.708 269.445 410.121 269.445 410.121C269.445 410.266 269.388 410.402 269.286 410.505C269.186 410.608 269.047 410.664 268.903 410.664L268.913 410.661Z" fill="white"/>
<path d="M222.896 201.033V219.672H243.863V211.143L244.988 209.548C246.047 208.046 246.613 206.253 246.613 204.416V201.033H222.896Z" fill="#B9FF66"/>
<path d="M204.321 170.087L204.921 174.169C205.273 176.562 206.158 178.844 207.513 180.847L209.323 183.526C210.668 185.517 211.668 187.715 212.273 190.041C212.842 192.232 214.096 195.292 217.026 198.07L225.408 206.011L221.821 181.609L216.238 175.817C214.586 174.105 213.513 171.917 213.169 169.562L213.056 168.8C212.715 166.474 210.553 164.867 208.23 165.209L207.91 165.255C205.587 165.597 203.98 167.759 204.321 170.087Z" fill="#B9FF66"/>
<path d="M218.131 199.66C217.997 199.66 217.865 199.611 217.76 199.511L216.653 198.463C214.23 196.167 212.58 193.38 211.748 190.178C211.16 187.918 210.194 185.784 208.874 183.829L207.063 181.15C205.673 179.091 204.745 176.704 204.384 174.247L203.784 170.165C203.599 168.898 203.916 167.632 204.68 166.604C205.443 165.576 206.561 164.906 207.827 164.721L208.147 164.674C210.762 164.288 213.2 166.106 213.586 168.722L213.698 169.484C213.761 169.921 213.854 170.358 213.971 170.786C214.049 171.074 213.881 171.372 213.593 171.45C213.305 171.528 213.007 171.36 212.929 171.072C212.8 170.603 212.7 170.119 212.629 169.64L212.517 168.878C212.373 167.896 211.856 167.029 211.058 166.438C210.262 165.844 209.284 165.6 208.303 165.744L207.983 165.791C207.002 165.935 206.136 166.453 205.546 167.251C204.955 168.048 204.709 169.027 204.853 170.009L205.453 174.091C205.79 176.389 206.656 178.622 207.959 180.547L209.769 183.226C211.158 185.28 212.175 187.53 212.795 189.909C213.576 192.914 215.123 195.527 217.397 197.682L218.505 198.729C218.722 198.935 218.731 199.277 218.526 199.494C218.419 199.606 218.278 199.662 218.134 199.662L218.131 199.66Z" fill="black"/>
<path d="M243.863 214.821L222.896 216.832V219.672H243.863V214.821Z" fill="black"/>
<path d="M239.499 207.313H219.501L210.588 154.012H248.413L239.499 207.313Z" fill="white"/>
<path d="M239.5 207.853H219.502C219.238 207.853 219.011 207.662 218.97 207.401L210.057 154.1C210.03 153.944 210.074 153.783 210.176 153.661C210.279 153.538 210.43 153.47 210.588 153.47H248.413C248.572 153.47 248.723 153.541 248.825 153.661C248.928 153.783 248.972 153.941 248.945 154.1L246.473 168.885C246.425 169.181 246.146 169.381 245.851 169.33C245.556 169.281 245.358 169.003 245.407 168.707L247.774 154.552H211.223L219.956 206.771H239.039L239.468 204.206C239.517 203.91 239.795 203.71 240.09 203.761C240.386 203.81 240.583 204.089 240.534 204.384L240.029 207.401C239.985 207.662 239.761 207.853 239.497 207.853H239.5Z" fill="black"/>
<path d="M249.96 161.99L251.4 153.377H207.6L209.042 161.99H249.96Z" fill="#DFE3E8"/>
<path d="M249.96 162.532H209.042C208.778 162.532 208.551 162.342 208.51 162.08L207.07 153.468C207.043 153.311 207.087 153.15 207.19 153.028C207.292 152.906 207.444 152.837 207.602 152.837H251.402C251.561 152.837 251.712 152.908 251.815 153.028C251.917 153.15 251.961 153.309 251.934 153.468L250.495 162.08C250.451 162.342 250.226 162.532 249.963 162.532H249.96ZM209.498 161.45H249.502L250.761 153.919H208.237L209.496 161.45H209.498Z" fill="black"/>
<path d="M233.678 163.526H237.177C239.36 163.526 241.456 164.396 243.003 165.942L248.178 171.123C249.103 172.049 249.623 173.304 249.623 174.613V174.96C249.623 176.27 249.103 177.525 248.178 178.451L247.127 179.504L241.029 173.399C239.477 171.848 237.377 170.976 235.183 170.976H233.68C231.733 170.976 230.154 169.396 230.154 167.447V167.054C230.154 165.104 231.733 163.524 233.68 163.524L233.678 163.526Z" fill="#B9FF66"/>
<path d="M247.128 180.046C246.984 180.046 246.847 179.989 246.744 179.887L240.647 173.783C239.188 172.322 237.246 171.518 235.181 171.518H233.678C231.436 171.518 229.613 169.694 229.613 167.449V167.056C229.613 164.811 231.438 162.986 233.678 162.986H237.177C239.522 162.986 241.728 163.9 243.385 165.561L248.56 170.742C249.594 171.777 250.163 173.153 250.163 174.616V174.963C250.163 176.426 249.594 177.801 248.56 178.837L247.508 179.889C247.406 179.992 247.269 180.048 247.125 180.048L247.128 180.046ZM233.678 164.068C232.031 164.068 230.692 165.409 230.692 167.056V167.449C230.692 169.095 232.031 170.436 233.678 170.436H235.181C237.533 170.436 239.747 171.355 241.411 173.018L247.128 178.739L247.799 178.067C248.628 177.237 249.084 176.133 249.084 174.958V174.611C249.084 173.436 248.628 172.332 247.799 171.501L242.623 166.32C241.169 164.865 239.237 164.064 237.18 164.064H233.681L233.678 164.068Z" fill="black"/>
<path d="M246.623 200.18V205.6H243.534C240.535 205.6 238.105 203.168 238.105 200.168V197.581L232.5 191.973C231.234 190.705 230.521 188.986 230.521 187.19V186.826C230.521 185.322 231.741 184.103 233.245 184.103H233.647C234.367 184.103 235.057 184.389 235.567 184.897L243.602 192.906C245.535 194.833 246.623 197.452 246.623 200.183V200.18Z" fill="#B9FF66"/>
<path d="M227.183 170.93H235.157C237.341 170.93 239.437 171.799 240.984 173.346L246.137 178.502C247.077 179.442 247.606 180.72 247.606 182.051V182.33C247.606 183.661 247.077 184.938 246.137 185.879L245.11 186.907L236.609 178.399H227.188C225.212 178.399 223.611 176.797 223.611 174.819V174.511C223.611 172.532 225.214 170.93 227.188 170.93H227.183Z" fill="#B9FF66"/>
<path d="M246.135 186.421C245.996 186.421 245.86 186.367 245.753 186.262C245.543 186.052 245.543 185.708 245.753 185.498C246.597 184.65 247.062 183.526 247.062 182.332V182.054C247.062 180.857 246.597 179.733 245.753 178.888L240.6 173.732C239.145 172.276 237.213 171.475 235.156 171.475H227.182C225.508 171.475 224.144 172.838 224.144 174.516V174.823C224.144 176.499 225.506 177.864 227.182 177.864H229.254C229.551 177.864 229.793 178.106 229.793 178.404C229.793 178.702 229.551 178.944 229.254 178.944H227.182C224.911 178.944 223.062 177.095 223.062 174.823V174.516C223.062 172.244 224.911 170.395 227.182 170.395H235.156C237.501 170.395 239.704 171.308 241.363 172.967L246.517 178.123C247.566 179.174 248.144 180.571 248.144 182.054V182.332C248.144 183.817 247.566 185.212 246.517 186.262C246.412 186.367 246.272 186.421 246.133 186.421H246.135Z" fill="black"/>
<path d="M229.635 178.045H235.156C237.34 178.045 239.436 178.915 240.983 180.461L246.144 185.627C247.078 186.563 247.603 187.833 247.603 189.154V189.457C247.603 190.781 247.078 192.049 246.144 192.984L244.816 194.313L236.24 185.495H229.635C227.688 185.495 226.111 183.917 226.111 181.968V181.57C226.111 179.623 227.69 178.043 229.635 178.043V178.045Z" fill="#B9FF66"/>
<path d="M245.107 194.909C244.968 194.909 244.832 194.856 244.724 194.751C244.514 194.541 244.514 194.196 244.724 193.986L245.761 192.948C246.601 192.108 247.064 190.991 247.064 189.802V189.499C247.064 188.312 246.603 187.193 245.761 186.353L240.601 181.187C239.146 179.731 237.214 178.93 235.157 178.93H229.635C227.991 178.93 226.651 180.268 226.651 181.915V182.313C226.651 183.959 227.991 185.298 229.635 185.298H230.572C230.87 185.298 231.112 185.539 231.112 185.837C231.112 186.135 230.87 186.377 230.572 186.377H229.635C227.395 186.377 225.57 184.553 225.57 182.31V181.912C225.57 179.67 227.393 177.845 229.635 177.845H235.157C237.502 177.845 239.705 178.759 241.364 180.417L246.525 185.583C247.569 186.629 248.143 188.016 248.143 189.494V189.797C248.143 191.275 247.567 192.662 246.525 193.708L245.488 194.746C245.383 194.851 245.244 194.904 245.105 194.904L245.107 194.909Z" fill="black"/>
<path d="M243.864 220.215H222.865C222.568 220.215 222.326 219.973 222.326 219.675V207.313C222.326 207.015 222.568 206.773 222.865 206.773C223.163 206.773 223.405 207.015 223.405 207.313V219.132H243.322V211.143C243.322 211.03 243.356 210.923 243.42 210.83L244.545 209.235C245.545 207.818 246.072 206.15 246.072 204.416L246.082 200.18C246.082 197.613 245.04 195.1 243.22 193.287L235.185 185.278C234.773 184.867 234.226 184.64 233.645 184.64H233.243C232.04 184.64 231.061 185.62 231.061 186.824V187.188C231.061 188.849 231.708 190.412 232.882 191.587L238.486 197.195C238.589 197.295 238.645 197.435 238.645 197.579V200.166C238.645 202.862 240.838 205.058 243.532 205.058C243.83 205.058 244.071 205.3 244.071 205.598C244.071 205.896 243.83 206.138 243.532 206.138C240.241 206.138 237.564 203.458 237.564 200.163V197.801L232.118 192.349C230.739 190.969 229.98 189.135 229.98 187.185V186.821C229.98 185.021 231.444 183.556 233.243 183.556H233.645C234.514 183.556 235.331 183.893 235.949 184.508L243.984 192.518C246.004 194.533 247.163 197.325 247.163 200.178L247.153 204.413C247.153 206.372 246.558 208.253 245.428 209.855L244.403 211.311V219.67C244.403 219.968 244.162 220.21 243.864 220.21V220.215Z" fill="black"/>
<path d="M95.5797 226.402L92.437 220.635C92.437 220.635 96.4532 216.04 92.9664 210.339C92.1588 209.018 90.2556 206.443 88.6257 204.291C86.7713 201.844 85.2512 199.159 84.0995 196.314L82.7795 193.05C82.1158 191.411 80.2785 190.586 78.6144 191.182L78.2582 191.309C76.5722 191.912 75.6742 193.754 76.2379 195.454L79.8686 206.424H74.2664C71.3945 206.424 68.5812 205.622 66.1388 204.113L56.1543 198.204C54.4951 197.222 52.3675 197.616 51.167 199.128L50.962 199.386L45.9235 195.688C44.4058 194.648 42.3391 194.985 41.2314 196.455C40.1431 197.899 40.3554 199.938 41.7194 201.128L75.2765 230.347L79.1049 236.986L95.5821 226.407L95.5797 226.402Z" fill="#B9FF66"/>
<path d="M79.1005 236.981L95.5801 226.402L93.755 223.055L78.0488 235.154L79.1005 236.981Z" fill="black"/>
<path d="M79.0999 237.523C79.056 237.523 79.0145 237.518 78.9731 237.508C78.8291 237.474 78.7071 237.381 78.6339 237.254L74.8519 230.694L41.3631 201.531C39.7917 200.163 39.5453 197.789 40.7995 196.126C42.0829 194.421 44.4692 194.03 46.2284 195.236L50.8644 198.639C52.243 197.049 54.6 196.653 56.4276 197.733L66.412 203.642C68.7788 205.107 71.4921 205.879 74.2639 205.879H79.1195L75.723 195.62C75.074 193.656 76.128 191.489 78.0751 190.796L78.4314 190.669C80.3736 189.975 82.5037 190.93 83.2796 192.845L84.5997 196.108C85.7367 198.915 87.2349 201.558 89.0551 203.964C91.2828 206.905 92.7517 208.957 93.4251 210.056C96.558 215.178 93.9204 219.521 93.0786 220.684L96.053 226.141C96.1896 226.39 96.1091 226.702 95.87 226.854L79.3927 237.433C79.3049 237.489 79.2024 237.518 79.0999 237.518V237.523ZM43.9812 195.618C43.1004 195.618 42.2317 196.018 41.6583 196.778C40.7433 197.989 40.9239 199.719 42.0683 200.715L75.6254 229.931C75.6693 229.971 75.7084 230.017 75.7376 230.068L79.2829 236.216L94.8598 226.214L91.9587 220.889C91.8513 220.691 91.8781 220.444 92.027 220.273C92.1783 220.097 95.7309 215.896 92.5003 210.615C91.8562 209.56 90.3654 207.484 88.1913 204.611C86.3125 202.13 84.768 199.404 83.5944 196.509L82.2744 193.246C81.718 191.871 80.1882 191.184 78.7901 191.682L78.4338 191.809C77.0357 192.31 76.2769 193.864 76.7429 195.276L80.3736 206.245C80.4273 206.409 80.4004 206.592 80.298 206.731C80.1955 206.873 80.0345 206.956 79.8612 206.956H74.259C71.2847 206.956 68.3762 206.128 65.8459 204.562L55.8713 198.659C54.4512 197.818 52.6066 198.16 51.5818 199.452L51.3768 199.711C51.1962 199.939 50.8693 199.982 50.635 199.812L45.5965 196.113C45.1011 195.774 44.5375 195.61 43.9763 195.61L43.9812 195.618Z" fill="black"/>
<path d="M81.4969 211.778C81.2725 211.778 81.0626 211.636 80.9845 211.412L79.3546 206.597C79.2595 206.314 79.4107 206.009 79.6938 205.911C79.9768 205.816 80.2818 205.967 80.3794 206.25L82.0093 211.065C82.1045 211.348 81.9532 211.654 81.6702 211.751C81.6116 211.771 81.553 211.781 81.4969 211.781V211.778Z" fill="black"/>
<path d="M66.5096 210.83L63.7646 208.908C62.0201 207.686 60.6659 205.984 59.8704 204.008L55.5053 193.187C54.8782 191.631 53.1165 190.867 51.5525 191.472C50.0641 192.049 49.2662 193.673 49.7176 195.205L53.4118 207.74C53.7095 208.754 54.2097 209.697 54.8782 210.513L58.4821 214.912L66.5121 210.83H66.5096Z" fill="#B9FF66"/>
<path d="M54.8778 211.055C54.7217 211.055 54.5655 210.986 54.4606 210.857C53.7408 209.98 53.2138 208.983 52.8941 207.894L49.2 195.358C48.673 193.57 49.6221 191.641 51.3594 190.969C53.1869 190.261 55.2731 191.164 56.0076 192.984L59.3259 201.311C59.4357 201.59 59.3015 201.902 59.0234 202.015C58.7452 202.127 58.4329 201.99 58.3207 201.712L55.0023 193.387C54.4899 192.115 53.0283 191.482 51.7473 191.978C50.5298 192.449 49.8661 193.8 50.2345 195.053L53.9287 207.589C54.2093 208.536 54.668 209.406 55.2951 210.171C55.483 210.4 55.4512 210.742 55.2194 210.933C55.1194 211.016 54.9974 211.055 54.8778 211.055Z" fill="black"/>
<path d="M72.6244 217.264L70.2356 214.914C68.7155 213.422 67.6639 211.519 67.2027 209.438L64.6847 198.043C64.3236 196.404 62.7132 195.361 61.0711 195.698C59.507 196.021 58.4529 197.489 58.6433 199.076L60.2171 212.049C60.3439 213.097 60.6807 214.111 61.2053 215.027L64.0332 219.963L72.6268 217.264H72.6244Z" fill="#B9FF66"/>
<path d="M75.4831 219.89C75.3611 219.89 75.2367 219.849 75.1342 219.763L69.8858 215.327C68.2583 213.73 67.1579 211.741 66.6748 209.555L64.1567 198.161C63.859 196.817 62.5243 195.952 61.1799 196.228C59.9014 196.492 59.023 197.714 59.1791 199.011L60.2405 210.369C60.4577 212.704 61.5825 214.634 62.7732 216.676L62.8513 216.81C63.0026 217.069 62.9147 217.399 62.6561 217.55C62.3975 217.699 62.0681 217.614 61.9168 217.355L61.8387 217.22C60.587 215.071 59.4036 213.041 59.1645 210.469L58.1055 199.125C57.8835 197.288 59.1376 195.544 60.9603 195.168C62.883 194.775 64.7862 196.011 65.2108 197.926L67.7288 209.321C68.168 211.304 69.1635 213.104 70.6129 214.529L75.8296 218.937C76.0565 219.13 76.0858 219.472 75.893 219.7C75.7857 219.827 75.6344 219.89 75.4807 219.89H75.4831Z" fill="black"/>
<path d="M207.647 283.652H194.215V258.188H198.924L207.647 283.652Z" fill="white"/>
<path d="M207.647 284.192H194.215C193.917 284.192 193.676 283.95 193.676 283.652V258.19C193.676 257.892 193.917 257.65 194.215 257.65H198.924C199.156 257.65 199.361 257.797 199.434 258.017L208.157 283.479C208.213 283.645 208.186 283.826 208.086 283.967C207.984 284.109 207.82 284.194 207.647 284.194V284.192ZM194.754 283.11H206.891L198.539 258.73H194.754V283.11Z" fill="black"/>
<path d="M194.214 258.188V283.65H132.478L126.861 268.119L124.775 273.803C123.672 276.805 121.695 279.297 119.194 281.043C116.693 282.79 113.675 283.784 110.481 283.784C105.194 283.784 100.289 281.043 97.5175 276.539L74.6914 239.472L95.5777 226.397L107.973 246.058L113.011 233.373C116.1 225.776 122.486 220.012 130.35 217.708L133.256 216.854C142.687 214.091 152.415 212.464 162.228 212.01L163.568 211.946C173.613 211.475 183.029 216.824 187.782 225.691L198.921 258.188H194.212H194.214Z" fill="white"/>
<path d="M110.481 284.326C104.967 284.326 99.9479 281.522 97.0589 276.825L74.2328 239.758C74.0767 239.504 74.1548 239.174 74.4061 239.015L95.2924 225.94C95.5437 225.781 95.8755 225.857 96.0366 226.109L107.866 244.87L112.514 233.173C115.683 225.378 122.13 219.553 130.201 217.188L133.107 216.333C142.572 213.561 152.364 211.924 162.207 211.468L163.546 211.402C173.736 210.93 183.439 216.431 188.263 225.432C188.278 225.459 188.288 225.483 188.297 225.513L199.436 258.009C199.492 258.175 199.465 258.356 199.365 258.498C199.263 258.639 199.099 258.725 198.926 258.725H194.756V283.647C194.756 283.945 194.514 284.187 194.217 284.187H132.48C132.253 284.187 132.051 284.045 131.973 283.83L126.858 269.695L125.285 273.986C124.167 277.032 122.169 279.627 119.507 281.483C116.847 283.339 113.729 284.321 110.486 284.321L110.481 284.326ZM75.4358 239.648L97.9812 276.258C100.672 280.633 105.348 283.246 110.484 283.246C113.504 283.246 116.41 282.333 118.887 280.601C121.366 278.869 123.228 276.456 124.27 273.618L126.356 267.934C126.434 267.721 126.636 267.579 126.863 267.579C127.09 267.579 127.293 267.724 127.371 267.936L132.858 283.11H193.678V258.188C193.678 257.89 193.919 257.648 194.217 257.648H198.17L187.292 225.908C182.656 217.296 173.365 212.024 163.6 212.486L162.26 212.552C152.5 213.004 142.796 214.626 133.412 217.376L130.506 218.231C122.752 220.503 116.559 226.096 113.517 233.581L108.478 246.26C108.402 246.448 108.229 246.58 108.027 246.6C107.819 246.619 107.629 246.522 107.519 246.351L95.4095 227.147L75.4333 239.651L75.4358 239.648Z" fill="black"/>
<path d="M247.958 218.585V263.341C247.958 274.577 238.857 283.688 227.628 283.688H194.215V283.652H207.647L198.924 258.19H211.368C215.631 258.19 219.081 254.734 219.081 250.474V218.588H247.956L247.958 218.585Z" fill="white"/>
<path d="M227.628 284.228H194.215C193.917 284.228 193.676 283.986 193.676 283.688C193.676 283.39 193.917 283.11 194.215 283.11H206.893L198.414 258.363C198.358 258.197 198.385 258.016 198.485 257.875C198.587 257.733 198.751 257.648 198.924 257.648H211.368C215.323 257.648 218.542 254.428 218.542 250.471V218.585C218.542 218.287 218.783 218.045 219.081 218.045H247.956C248.253 218.045 248.495 218.287 248.495 218.585V263.341C248.495 274.858 239.133 284.228 227.623 284.228H227.628ZM208.047 283.146H227.628C238.54 283.146 247.419 274.262 247.419 263.341V219.127H219.623V250.474C219.623 255.027 215.921 258.73 211.371 258.73H199.683L208.047 283.149V283.146Z" fill="black"/>
<path d="M207.647 283.652H194.215V258.188H198.924L207.647 283.652Z" fill="white"/>
<path d="M207.647 284.192H194.215C193.917 284.192 193.676 283.95 193.676 283.652V258.19C193.676 257.892 193.917 257.65 194.215 257.65H198.924C199.156 257.65 199.361 257.797 199.434 258.017L208.157 283.479C208.213 283.645 208.186 283.826 208.086 283.967C207.984 284.109 207.82 284.194 207.647 284.194V284.192ZM194.754 283.11H206.891L198.539 258.73H194.754V283.11Z" fill="black"/>
<path d="M110.481 284.326C104.969 284.326 99.9503 281.522 97.0589 276.825L74.2328 239.756C74.0767 239.502 74.1548 239.172 74.4061 239.013L95.2924 225.94C95.5437 225.781 95.8755 225.857 96.0366 226.109L107.866 244.868L112.516 233.17C115.688 225.373 122.135 219.548 130.201 217.186L133.107 216.336C136.213 215.427 139.393 214.628 142.552 213.966C142.843 213.905 143.131 214.093 143.192 214.384C143.253 214.677 143.065 214.963 142.775 215.024C139.642 215.681 136.492 216.47 133.412 217.371L130.506 218.221C122.754 220.491 116.564 226.087 113.519 233.573L108.476 246.253C108.4 246.441 108.227 246.573 108.024 246.592C107.819 246.612 107.626 246.514 107.517 246.343L95.4095 227.142L75.4333 239.643L97.9788 276.253C100.672 280.628 105.348 283.239 110.481 283.239C116.61 283.239 122.152 279.37 124.265 273.61L126.351 267.929C126.429 267.716 126.632 267.575 126.858 267.575C127.085 267.575 127.288 267.719 127.366 267.931L132.853 283.097C132.956 283.378 132.81 283.689 132.529 283.791C132.251 283.894 131.938 283.747 131.836 283.466L126.854 269.692L125.277 273.982C123.008 280.164 117.059 284.319 110.479 284.319L110.481 284.326Z" fill="black"/>
<path d="M115.506 258.54C115.325 258.54 115.152 258.449 115.049 258.288L105.821 243.654C105.663 243.4 105.738 243.068 105.99 242.909C106.243 242.75 106.575 242.826 106.734 243.078L115.962 257.712C116.12 257.966 116.045 258.298 115.793 258.457C115.703 258.513 115.606 258.54 115.506 258.54Z" fill="black"/>
<path d="M126.859 268.661C126.803 268.661 126.745 268.652 126.686 268.635C126.403 268.539 126.252 268.232 126.347 267.951L132.342 250.107C132.437 249.824 132.745 249.672 133.025 249.768C133.308 249.863 133.459 250.171 133.364 250.452L127.369 268.295C127.294 268.522 127.084 268.664 126.857 268.664L126.859 268.661Z" fill="black"/>
<path d="M155.739 213.607C155.129 215.83 153.233 217.586 150.808 217.911L147.955 218.29C144.71 218.722 141.721 216.441 141.289 213.19L140.696 208.712L140.443 206.809L139.957 203.165L154.568 201.218L155.534 208.485L155.902 211.238C156.01 212.054 155.951 212.855 155.741 213.607H155.739Z" fill="#B9FF66"/>
<path d="M147.168 218.881C143.974 218.881 141.187 216.512 140.756 213.261L139.421 203.236C139.401 203.094 139.441 202.95 139.528 202.835C139.616 202.721 139.743 202.647 139.887 202.628L154.498 200.681C154.79 200.639 155.066 200.85 155.105 201.145L156.44 211.165C156.557 212.044 156.496 212.914 156.262 213.749C155.574 216.255 153.461 218.099 150.882 218.444L148.029 218.822C147.741 218.861 147.453 218.879 147.17 218.879L147.168 218.881ZM140.563 203.629L141.824 213.119C142.217 216.067 144.935 218.148 147.883 217.753L150.735 217.374C152.885 217.086 154.644 215.552 155.217 213.463C155.217 213.463 155.217 213.463 155.217 213.461C155.413 212.767 155.461 212.044 155.364 211.309L154.1 201.827L140.56 203.629H140.563Z" fill="black"/>
<path d="M155.739 213.607C154.351 214.03 151.991 214.516 149.183 213.986C144.251 213.06 141.438 209.67 140.696 208.715L140.443 206.812L139.957 203.168L154.568 201.221L155.534 208.488L155.902 211.24C156.01 212.056 155.951 212.857 155.741 213.61L155.739 213.607Z" fill="black"/>
<path d="M136.959 199.494L148.248 195.053L160.441 196.196L157.813 176.47L134.416 179.591L136.959 199.494Z" fill="black"/>
<path d="M150.392 210.614C156.882 209.748 161.369 203.225 160.413 196.044C159.458 188.864 153.421 183.744 146.931 184.61C140.44 185.476 135.954 191.999 136.91 199.18C137.865 206.361 143.902 211.48 150.392 210.614Z" fill="#B9FF66"/>
<path d="M148.954 211.248C146.182 211.248 143.488 210.236 141.233 208.324C138.584 206.077 136.861 202.855 136.38 199.247C135.9 195.642 136.72 192.078 138.689 189.215C140.67 186.335 143.573 184.508 146.865 184.069C153.643 183.167 159.96 188.502 160.956 195.969C161.949 203.434 157.247 210.244 150.471 211.147C149.964 211.216 149.459 211.248 148.954 211.248ZM148.366 185.05C147.917 185.05 147.463 185.08 147.009 185.141C144.022 185.539 141.385 187.205 139.579 189.828C137.761 192.469 137.007 195.764 137.452 199.103C137.896 202.442 139.486 205.424 141.931 207.496C144.359 209.555 147.341 210.471 150.327 210.073C156.513 209.247 160.8 202.984 159.885 196.108C159.036 189.74 154.017 185.048 148.366 185.048V185.05Z" fill="black"/>
<path d="M154.791 203.893C154.193 204.762 153.324 205.456 152.248 205.823C149.85 206.638 147.271 205.551 146.129 203.377L154.791 203.893Z" fill="white"/>
<path d="M235.808 287.878H132.328C132.031 287.878 131.789 287.636 131.789 287.338V283.821C131.789 283.523 132.031 283.281 132.328 283.281H235.808C236.106 283.281 236.347 283.523 236.347 283.821V287.338C236.347 287.636 236.106 287.878 235.808 287.878ZM132.867 286.796H235.266V284.358H132.867V286.796Z" fill="black"/>
<path d="M161.27 287.878C160.972 287.878 160.73 287.636 160.73 287.338V283.821C160.73 283.523 160.972 283.281 161.27 283.281C161.567 283.281 161.809 283.523 161.809 283.821V287.338C161.809 287.636 161.567 287.878 161.27 287.878Z" fill="black"/>
<path d="M176.508 232.701H251.793L236.143 283.923H160.857L176.508 232.701Z" fill="black"/>
<path d="M207.765 262.712C209.704 262.705 211.27 261.125 211.262 259.184C211.255 257.243 209.677 255.675 207.738 255.683C205.799 255.69 204.233 257.27 204.24 259.211C204.247 261.152 205.825 262.72 207.765 262.712Z" fill="white"/>
<path d="M146.668 159.235C146.492 159.235 146.324 159.149 146.221 158.998L132.103 138.094H47.6213C47.3236 138.094 47.082 137.852 47.082 137.554V94.2195C47.082 93.9215 47.3236 93.6797 47.6213 93.6797H146.668C146.965 93.6797 147.207 93.9215 147.207 94.2195V158.697C147.207 158.934 147.051 159.144 146.824 159.215C146.773 159.23 146.719 159.24 146.665 159.24L146.668 159.235ZM48.163 137.012H132.391C132.569 137.012 132.738 137.102 132.838 137.251L146.128 156.931V94.7593H48.163V137.012Z" fill="#020202"/>
<path d="M83.7623 104.322H64.2912C63.9935 104.322 63.752 104.08 63.752 103.782C63.752 103.484 63.9935 103.243 64.2912 103.243H83.7623C84.06 103.243 84.3015 103.484 84.3015 103.782C84.3015 104.08 84.06 104.322 83.7623 104.322Z" fill="#020202"/>
<path d="M129.061 104.322H89.0431C88.7455 104.322 88.5039 104.08 88.5039 103.782C88.5039 103.484 88.7455 103.243 89.0431 103.243H129.061C129.359 103.243 129.601 103.484 129.601 103.782C129.601 104.08 129.359 104.322 129.061 104.322Z" fill="#020202"/>
<path d="M98.4901 115.949H64.2912C63.9935 115.949 63.752 115.707 63.752 115.409C63.752 115.111 63.9935 114.869 64.2912 114.869H98.4925C98.7902 114.869 99.0317 115.111 99.0317 115.409C99.0317 115.707 98.7902 115.949 98.4925 115.949H98.4901Z" fill="#020202"/>
<path d="M129.061 115.949H109.051C108.753 115.949 108.512 115.707 108.512 115.409C108.512 115.111 108.753 114.87 109.051 114.87H129.061C129.359 114.87 129.601 115.111 129.601 115.409C129.601 115.707 129.359 115.949 129.061 115.949Z" fill="#020202"/>
<path d="M83.7623 127.578H64.2912C63.9935 127.578 63.752 127.337 63.752 127.039C63.752 126.741 63.9935 126.499 64.2912 126.499H83.7623C84.06 126.499 84.3015 126.741 84.3015 127.039C84.3015 127.337 84.06 127.578 83.7623 127.578Z" fill="#020202"/>
<path d="M129.061 127.578H89.0431C88.7455 127.578 88.5039 127.336 88.5039 127.038C88.5039 126.74 88.7455 126.499 89.0431 126.499H129.061C129.359 126.499 129.601 126.74 129.601 127.038C129.601 127.336 129.359 127.578 129.061 127.578Z" fill="#020202"/>
<path d="M279.289 89.2631H177.822C177.525 89.2631 177.283 89.0213 177.283 88.7233V36.0188C177.283 35.7208 177.525 35.479 177.822 35.479H256.822C257.12 35.479 257.361 35.7208 257.361 36.0188V73.2297L279.592 88.2739C279.79 88.4058 279.875 88.6525 279.807 88.8796C279.736 89.1068 279.528 89.2631 279.289 89.2631ZM178.364 88.181H277.528L256.522 73.965C256.373 73.8648 256.285 73.6963 256.285 73.518V36.5586H178.367V88.181H178.364Z" fill="#020202"/>
<path d="M207.682 76.1021H193.195C192.898 76.1021 192.656 75.8603 192.656 75.5623C192.656 75.2643 192.898 75.0225 193.195 75.0225H207.682C207.979 75.0225 208.221 75.2643 208.221 75.5623C208.221 75.8603 207.979 76.1021 207.682 76.1021Z" fill="#020202"/>
<path d="M241.383 76.1021H211.608C211.31 76.1021 211.068 75.8603 211.068 75.5623C211.068 75.2643 211.31 75.0225 211.608 75.0225H241.383C241.68 75.0225 241.922 75.2643 241.922 75.5623C241.922 75.8603 241.68 76.1021 241.383 76.1021Z" fill="#020202"/>
<path d="M218.64 63.7305H193.194C192.896 63.7305 192.654 63.4887 192.654 63.1907C192.654 62.8927 192.896 62.6509 193.194 62.6509H218.64C218.938 62.6509 219.179 62.8927 219.179 63.1907C219.179 63.4887 218.938 63.7305 218.64 63.7305Z" fill="#020202"/>
<path d="M241.383 63.7305H226.496C226.199 63.7305 225.957 63.4887 225.957 63.1907C225.957 62.8927 226.199 62.6509 226.496 62.6509H241.383C241.68 62.6509 241.922 62.8927 241.922 63.1907C241.922 63.4887 241.68 63.7305 241.383 63.7305Z" fill="#020202"/>
<path d="M207.682 51.361H193.195C192.898 51.361 192.656 51.1191 192.656 50.8211C192.656 50.5231 192.898 50.2812 193.195 50.2812H207.682C207.979 50.2812 208.221 50.5231 208.221 50.8211C208.221 51.1191 207.979 51.361 207.682 51.361Z" fill="#020202"/>
<path d="M241.383 51.361H211.608C211.31 51.361 211.068 51.1191 211.068 50.8211C211.068 50.5231 211.31 50.2812 211.608 50.2812H241.383C241.68 50.2812 241.922 50.5231 241.922 50.8211C241.922 51.1191 241.68 51.361 241.383 51.361Z" fill="#020202"/>
<path d="M427.745 384.437C427.567 384.437 427.401 384.349 427.301 384.205C427.201 384.059 427.177 383.871 427.24 383.704C427.338 383.446 429.724 377.332 435.324 373.448C440.923 369.564 447.48 369.479 447.758 369.476H447.763C447.941 369.476 448.107 369.564 448.207 369.708C448.309 369.855 448.331 370.043 448.268 370.209C448.17 370.468 445.784 376.582 440.184 380.466C434.584 384.349 428.028 384.437 427.752 384.437H427.748H427.745ZM446.911 370.605C444.979 370.763 440.113 371.443 435.939 374.337C431.756 377.236 429.416 381.557 428.592 383.311C430.522 383.152 435.392 382.473 439.564 379.579C443.739 376.684 446.084 372.361 446.911 370.607V370.605Z" fill="black"/>
<path d="M427.676 407.007C427.378 407.007 427.137 406.765 427.137 406.467V384.103C427.137 383.805 427.378 383.563 427.676 383.563C427.974 383.563 428.215 383.805 428.215 384.103V406.467C428.215 406.765 427.974 407.007 427.676 407.007Z" fill="black"/>
<path d="M397.906 358.912C403.505 368.89 413.563 373.873 413.563 373.873C413.563 373.873 414.546 362.681 408.946 352.703C403.347 342.724 393.289 337.741 393.289 337.741C393.289 337.741 392.306 348.934 397.906 358.912Z" fill="#DFE3E8"/>
<path d="M413.564 374.415C413.481 374.415 413.4 374.395 413.324 374.359C413.222 374.308 403.05 369.185 397.435 359.178C391.818 349.17 392.741 337.807 392.753 337.695C392.767 337.517 392.87 337.358 393.026 337.27C393.182 337.185 393.37 337.177 393.529 337.258C393.631 337.309 403.804 342.431 409.418 352.439C415.035 362.446 414.113 373.809 414.1 373.922C414.086 374.1 413.983 374.259 413.827 374.347C413.744 374.393 413.654 374.415 413.564 374.415ZM393.785 338.626C393.695 341.386 393.797 350.487 398.377 358.648C402.962 366.818 410.67 371.635 413.068 372.991C413.158 370.231 413.056 361.13 408.476 352.969C403.891 344.798 396.183 339.984 393.785 338.626Z" fill="black"/>
<path d="M413.563 404.711C413.265 404.711 413.023 404.469 413.023 404.171V373.875C413.023 373.577 413.265 373.335 413.563 373.335C413.86 373.335 414.102 373.577 414.102 373.875V404.171C414.102 404.469 413.86 404.711 413.563 404.711Z" fill="black"/>
<path d="M441.132 350.428C433.293 364.4 419.204 371.381 419.204 371.381C419.204 371.381 417.828 355.707 425.67 341.733C433.51 327.761 447.598 320.78 447.598 320.78C447.598 320.78 448.974 336.454 441.132 350.428Z" fill="#B9FF66"/>
<path d="M419.204 371.921C419.114 371.921 419.021 371.897 418.938 371.853C418.782 371.765 418.68 371.606 418.665 371.428C418.65 371.269 417.365 355.424 425.197 341.466C433.029 327.509 447.215 320.367 447.357 320.296C447.518 320.218 447.706 320.223 447.862 320.308C448.018 320.396 448.118 320.555 448.135 320.733C448.15 320.892 449.436 336.738 441.603 350.695C433.771 364.652 419.585 371.797 419.443 371.865C419.368 371.902 419.285 371.921 419.204 371.921ZM447.106 321.657C444.131 323.303 432.79 330.147 426.139 341.999C419.483 353.86 419.551 367.109 419.695 370.507C422.669 368.861 434.01 362.016 440.662 350.165C447.318 338.303 447.25 325.055 447.106 321.657Z" fill="black"/>
<path d="M419.205 407.361C418.908 407.361 418.666 407.119 418.666 406.821V371.381C418.666 371.083 418.908 370.841 419.205 370.841C419.503 370.841 419.744 371.083 419.744 371.381V406.821C419.744 407.119 419.503 407.361 419.205 407.361Z" fill="black"/>
<path d="M395.189 402.845H448.035V424.496C448.035 436.917 437.962 447 425.555 447H417.669C405.262 447 395.189 436.917 395.189 424.496V402.845Z" fill="#DFE3E8"/>
<path d="M395.189 424.496C395.189 426.067 395.351 427.598 395.658 429.079C402.939 429.057 410.386 426.062 416.561 417.611C423.069 408.705 429.698 409.672 436.455 411.756C439.978 412.842 444.287 413.392 448.035 413.666V402.845H395.189V424.496Z" fill="black"/>
</g>
</svg>
